<?xml version="1.0" encoding="UTF-8" standalone="no"?>
<svg
   xmlns:dc="http://purl.org/dc/elements/1.1/"
   xmlns:cc="http://creativecommons.org/ns#"
   xmlns:rdf="http://www.w3.org/1999/02/22-rdf-syntax-ns#"
   xmlns:svg="http://www.w3.org/2000/svg"
   xmlns="http://www.w3.org/2000/svg"
   xmlns:xlink="http://www.w3.org/1999/xlink"
   xmlns:sodipodi="http://sodipodi.sourceforge.net/DTD/sodipodi-0.dtd"
   xmlns:inkscape="http://www.inkscape.org/namespaces/inkscape"
   enable-background="new 0 0 55 55"
   height="50"
   version="1.1"
   viewBox="0 0 50 50"
   width="50"
   x="0px"
   xml:space="preserve"
   y="0px"
   id="svg2"
   inkscape:version="0.48.3.1 r9886"
   sodipodi:docname="bash.svg"><metadata
     id="metadata17"><rdf:RDF><cc:Work
         rdf:about=""><dc:format>image/svg+xml</dc:format><dc:type
           rdf:resource="http://purl.org/dc/dcmitype/StillImage" /><dc:title></dc:title></cc:Work></rdf:RDF></metadata><defs
     id="defs15">
	
		
	
<linearGradient
   id="linearGradient4671"><stop
     style="stop-color:#ffd43b;stop-opacity:1"
     offset="0"
     id="stop4673" /><stop
     style="stop-color:#ffe873;stop-opacity:1"
     offset="1"
     id="stop4675" /></linearGradient><linearGradient
   inkscape:collect="always"
   xlink:href="#linearGradient4689"
   id="linearGradient3030"
   gradientUnits="userSpaceOnUse"
   gradientTransform="matrix(0.562541,0,0,0.567972,-9.399749,-5.305317)"
   x1="26.648937"
   y1="20.603781"
   x2="135.66525"
   y2="114.39767" /><linearGradient
   id="linearGradient4689"><stop
     style="stop-color:#5a9fd4;stop-opacity:1"
     offset="0"
     id="stop4691" /><stop
     style="stop-color:#306998;stop-opacity:1"
     offset="1"
     id="stop4693" /></linearGradient></defs><sodipodi:namedview
     pagecolor="#ffffff"
     bordercolor="#666666"
     borderopacity="1"
     objecttolerance="10"
     gridtolerance="10"
     guidetolerance="10"
     inkscape:pageopacity="0"
     inkscape:pageshadow="2"
     inkscape:window-width="1366"
     inkscape:window-height="712"
     id="namedview13"
     showgrid="false"
     inkscape:zoom="4.2909091"
     inkscape:cx="24.14565"
     inkscape:cy="27.5"
     inkscape:window-x="0"
     inkscape:window-y="27"
     inkscape:window-maximized="1"
     inkscape:current-layer="svg2" /><path
     inkscape:connector-curvature="0"
     d="m 25.123615,1.6161199 c -1.931592,0.00898 -3.776221,0.173712 -5.399305,0.4609164 -4.781398,0.8447162 -5.649515,2.6127797 -5.649516,5.8733897 l 0,4.306275 11.299033,0 0,1.435425 -11.299033,0 -4.2404297,0 c -3.283815,0 -6.1592163,1.973762 -7.0586041,5.728531 -1.0374333,4.303838 -1.0834475,6.989502 0,11.4834 0.8031767,3.345084 2.7212701,5.728531 6.0050812,5.728531 l 3.8848666,0 0,-5.162263 c 0,-3.72943 3.226789,-7.019095 7.058602,-7.019096 l 11.285864,0 c 3.141585,0 5.649519,-2.586679 5.649517,-5.7417 l 0,-10.759103 c 0,-3.0621015 -2.58323,-5.3623376 -5.649517,-5.8733897 -1.941005,-0.3231055 -3.954966,-0.469892 -5.886559,-0.4609164 z m -6.110432,3.4634565 c 1.167112,0 2.120214,0.9686701 2.120214,2.1597216 0,1.1868298 -0.953102,2.1465529 -2.120214,2.1465529 -1.171297,-4e-7 -2.120216,-0.9597235 -2.120216,-2.1465529 0,-1.1910511 0.948919,-2.1597216 2.120216,-2.1597216 z"
     style="fill:#000000;fill-opacity:1"
     id="path1948" /><path
     inkscape:connector-curvature="0"
     d="m 38.068779,13.692126 0,5.017403 c 0,3.889924 -3.297905,7.163956 -7.058605,7.163956 l -11.285864,0 c -3.091387,0 -5.649515,2.64581 -5.649516,5.7417 l 0,10.759101 c 0,3.062104 2.662711,4.863198 5.649516,5.741702 3.57664,1.051672 7.006449,1.241737 11.285864,0 2.844578,-0.823598 5.649519,-2.481093 5.649517,-5.741702 l 0,-4.306273 -11.285864,0 0,-1.435425 11.285864,0 5.649518,0 c 3.283816,0 4.5075,-2.290531 5.649515,-5.728531 1.179663,-3.539367 1.129469,-6.943043 0,-11.4834 -0.811542,-3.269057 -2.361523,-5.728531 -5.649515,-5.728531 l -4.24043,0 z m -6.347475,27.246737 c 1.171296,1e-6 2.120214,0.959724 2.120214,2.146551 -10e-7,1.191051 -0.948919,2.159723 -2.120214,2.159723 -1.167115,0 -2.120216,-0.968672 -2.120216,-2.159723 1e-6,-1.186827 0.9531,-2.146551 2.120216,-2.146551 z"
     style="fill:#808080;fill-opacity:1"
     id="path1950" /></svg>