<?xml version="1.0" encoding="UTF-8" standalone="no"?>
<!-- Created with Inkscape (http://www.inkscape.org/) -->

<svg
   xmlns:dc="http://purl.org/dc/elements/1.1/"
   xmlns:cc="http://creativecommons.org/ns#"
   xmlns:rdf="http://www.w3.org/1999/02/22-rdf-syntax-ns#"
   xmlns:svg="http://www.w3.org/2000/svg"
   xmlns="http://www.w3.org/2000/svg"
   xmlns:xlink="http://www.w3.org/1999/xlink"
   xmlns:sodipodi="http://sodipodi.sourceforge.net/DTD/sodipodi-0.dtd"
   xmlns:inkscape="http://www.inkscape.org/namespaces/inkscape"
   width="24"
   height="24"
   id="svg6662"
   version="1.1"
   inkscape:version="0.48.3.1 r9886"
   sodipodi:docname="editcut.svg">
  <defs
     id="defs6664">
    <linearGradient
       inkscape:collect="always"
       xlink:href="#linearGradient1022-8-8-3-0-2-3"
       id="linearGradient4032"
       gradientUnits="userSpaceOnUse"
       gradientTransform="matrix(1.679991,0,0,1.5097216,41.02496,772.36672)"
       x1="195.52191"
       y1="-296.74573"
       x2="195.52191"
       y2="-281.84232" />
    <linearGradient
       y2="11.02436"
       y1="3.0069399"
       x2="0"
       id="linearGradient1022-8-8-3-0-2-3"
       gradientUnits="userSpaceOnUse">
      <stop
         id="stop3001-0-9-4-1-4"
         offset="0" />
      <stop
         id="stop3003-5-6-6-1-1"
         stop-color="#363636"
         offset="1" />
    </linearGradient>
  </defs>
  <sodipodi:namedview
     id="base"
     pagecolor="#ffffff"
     bordercolor="#666666"
     borderopacity="1.0"
     inkscape:pageopacity="0.0"
     inkscape:pageshadow="2"
     inkscape:zoom="3.959798"
     inkscape:cx="31.628015"
     inkscape:cy="12.379252"
     inkscape:document-units="px"
     inkscape:current-layer="capa1"
     showgrid="false"
     inkscape:showpageshadow="false"
     inkscape:window-width="796"
     inkscape:window-height="702"
     inkscape:window-x="484"
     inkscape:window-y="36"
     inkscape:window-maximized="0" />
  <metadata
     id="metadata6667">
    <rdf:RDF>
      <cc:Work
         rdf:about="">
        <dc:format>image/svg+xml</dc:format>
        <dc:type
           rdf:resource="http://purl.org/dc/dcmitype/StillImage" />
        <dc:title />
      </cc:Work>
    </rdf:RDF>
  </metadata>
  <g
     inkscape:label="Capa 1"
     inkscape:groupmode="layer"
     id="capa1"
     transform="translate(0,-1028.3622)">
    <path
       sodipodi:nodetypes="cccccccccccccccccccccccccccccccccccccccccccccccccccc"
       style="opacity:0.6;color:#000000;fill:#ffffff;fill-opacity:1;fill-rule:nonzero;stroke:none;stroke-width:1;marker:none;visibility:visible;display:inline;overflow:visible;enable-background:accumulate"
       d="m 6,1031.3629 -2,2 0,6 2,2 2,-2 2,2 2,-2 2,2 2,-2 2,2 2,-2 0,-6 -2,-2 z m 0,3.0008 1,-1 10,0 1,1 0,4.9992 -2,-2 -2,2 -2,-2 -2,2 -2,-2 -2,2 z m -2,6.9992 0,8 2,2 12,0 2,-2 0,-8 -2,2 -2,-2 -2,2 -2,-2 -2,2 -2,-2 -2,2 z m 6,4 2,-2 2,2 2,-2 2,2 0,3.0008 -1,1 -10,0 -1,-1 0,-3.0008 2,-2 z"
       id="path6203"
       inkscape:connector-curvature="0" />
    <path
       inkscape:connector-curvature="0"
       id="path5916"
       d="m 6,1030.3622 -2,2 0,6 2,2 2,-2 2,2 2,-2 2,2 2,-2 2,2 2,-2 0,-6 -2,-2 z m 0,3.0007 1,-1 10,0 1,1 0,4.9993 -2,-2 -2,2 -2,-2 -2,2 -2,-2 -2,2 z m -2,6.9993 0,8 2,2 12,0 2,-2 0,-8 -2,2 -2,-2 -2,2 -2,-2 -2,2 -2,-2 -2,2 z m 6,4 2,-2 2,2 2,-2 2,2 0,3.0007 -1,1 -10,0 -1,-1 0,-3.0007 2,-2 z"
       style="opacity:0.69999999999999996;color:#000000;fill:#000000;fill-opacity:1;fill-rule:nonzero;stroke:none;stroke-width:1;marker:none;visibility:visible;display:inline;overflow:visible;enable-background:accumulate"
       sodipodi:nodetypes="cccccccccccccccccccccccccccccccccccccccccccccccccccc" />
    <rect
       y="1028.3622"
       x="0"
       height="24"
       width="24"
       id="rect3409"
       style="opacity:0.6;color:#000000;fill:none;stroke:none;stroke-width:1;marker:none;visibility:visible;display:inline;overflow:visible;enable-background:accumulate" />
  </g>
</svg>
