<?xml version="1.0" encoding="UTF-8" standalone="no"?>
<!-- Created with Inkscape (http://www.inkscape.org/) -->

<svg
   xmlns:dc="http://purl.org/dc/elements/1.1/"
   xmlns:cc="http://creativecommons.org/ns#"
   xmlns:rdf="http://www.w3.org/1999/02/22-rdf-syntax-ns#"
   xmlns:svg="http://www.w3.org/2000/svg"
   xmlns="http://www.w3.org/2000/svg"
   xmlns:xlink="http://www.w3.org/1999/xlink"
   xmlns:sodipodi="http://sodipodi.sourceforge.net/DTD/sodipodi-0.dtd"
   xmlns:inkscape="http://www.inkscape.org/namespaces/inkscape"
   width="24"
   height="24"
   id="svg3173"
   version="1.1"
   inkscape:version="0.48.3.1 r9886"
   sodipodi:docname="font.svg">
  <defs
     id="defs3175">
    <linearGradient
       inkscape:collect="always"
       xlink:href="#linearGradient5014"
       id="linearGradient5020"
       x1="11.152778"
       y1="1.9097221"
       x2="11"
       y2="19.9375"
       gradientUnits="userSpaceOnUse" />
    <linearGradient
       inkscape:collect="always"
       id="linearGradient5014">
      <stop
         style="stop-color:#000000;stop-opacity:1"
         offset="0"
         id="stop5016" />
      <stop
         style="stop-color:#363636;stop-opacity:1"
         offset="1"
         id="stop5018" />
    </linearGradient>
    <linearGradient
       y2="19.9375"
       x2="11"
       y1="1.9097221"
       x1="11.152778"
       gradientUnits="userSpaceOnUse"
       id="linearGradient3171"
       xlink:href="#linearGradient5014"
       inkscape:collect="always" />
    <linearGradient
       inkscape:collect="always"
       xlink:href="#linearGradient5014"
       id="linearGradient3203"
       gradientUnits="userSpaceOnUse"
       x1="11.152778"
       y1="1.9097221"
       x2="11"
       y2="19.9375"
       gradientTransform="translate(5.000004e-8,1029.8622)" />
  </defs>
  <sodipodi:namedview
     id="base"
     pagecolor="#ffffff"
     bordercolor="#666666"
     borderopacity="1.0"
     inkscape:pageopacity="0.0"
     inkscape:pageshadow="2"
     inkscape:zoom="15.519134"
     inkscape:cx="-8.8105262"
     inkscape:cy="9.5974328"
     inkscape:document-units="px"
     inkscape:current-layer="layer1"
     showgrid="false"
     inkscape:window-width="1366"
     inkscape:window-height="712"
     inkscape:window-x="0"
     inkscape:window-y="27"
     inkscape:window-maximized="1" />
  <metadata
     id="metadata3178">
    <rdf:RDF>
      <cc:Work
         rdf:about="">
        <dc:format>image/svg+xml</dc:format>
        <dc:type
           rdf:resource="http://purl.org/dc/dcmitype/StillImage" />
        <dc:title />
      </cc:Work>
    </rdf:RDF>
  </metadata>
  <g
     inkscape:label="Layer 1"
     inkscape:groupmode="layer"
     id="layer1"
     transform="translate(0,-1028.3622)">
    <path
       style="opacity:0.6;fill:#ffffff;fill-opacity:1;stroke:#ff0000;stroke-width:0;stroke-linecap:butt;stroke-linejoin:miter;stroke-miterlimit:4;stroke-opacity:1;stroke-dasharray:none;stroke-dashoffset:0"
       d="m 12,1030.8622 c -5.5228478,0 -10,4.4771 -10,10 0,5.5229 4.4771522,10 10,10 5.522848,0 10,-4.4771 10,-10 0,-5.5229 -4.477152,-10 -10,-10 z m -0.208333,3.9236 c 1.275599,-0.047 2.484025,0.1247 3.263889,0.5208 0.833732,0.4235 1.509368,1.3515 1.770833,2.4653 0.116911,0.4981 0.129388,1.0842 0.104167,3.7847 l -0.03472,3.1598 0.451389,0.1389 c 0.500571,0.1632 0.458358,0.1629 0.590278,0.4167 0.11818,0.2273 0.148396,1.0722 0.03472,1.2846 -0.0457,0.086 -0.229242,0.1897 -0.381944,0.2432 -0.347172,0.1214 -1.63055,0.1788 -2.326389,0.1044 -0.598872,-0.064 -0.932783,-0.3064 -1.180556,-0.868 -0.141479,-0.3208 -0.277777,-0.4228 -0.277777,-0.2083 0,0.1722 -0.352116,0.4621 -0.798612,0.6596 -1.277638,0.5651 -4.0516996,0.5621 -5.3472218,0 -0.6092178,-0.2642 -1.3067922,-1.0812 -1.5277778,-1.8055 -0.2729866,-0.8948 -0.2232544,-2.2791 0.1041667,-3.0208 0.2970389,-0.6729 0.8547345,-1.4583 1.2152778,-1.7014 0.8448478,-0.5697 1.5739355,-0.7207 4.1666671,-0.7639 1.550804,-0.026 2.138943,-0.062 2.1875,-0.1389 0.12952,-0.2039 0.07491,-0.7099 -0.104167,-0.9375 -0.336499,-0.4279 -0.601477,-0.4806 -1.944445,-0.5209 -1.435402,-0.043 -1.582381,-0.019 -2.4652772,0.5556 -0.7668324,0.4991 -1.2356546,0.6944 -1.701389,0.6944 -0.5860167,0 -0.93281,-0.2982 -1.1458334,-1.007 -0.1295911,-0.4311 -0.1102333,-0.4621 0.069445,-0.8333 0.2197222,-0.4538 1.0084289,-1.1743 1.6319444,-1.4583 1.0153824,-0.4624 2.3702352,-0.7168 3.6458342,-0.7639 z m -0.173611,6.8056 c -0.224052,-10e-4 -0.410354,0.011 -0.555556,0.034 -0.735373,0.1359 -1.6398988,0.6259 -1.7708332,0.9722 -0.1015556,0.2687 0.051378,0.423 0.5208333,0.625 0.8120589,0.3493 1.9295829,0.4597 2.8819439,0.2431 0.811146,-0.1846 1.111112,-0.4627 1.111112,-1.0417 0,-0.3973 -0.04282,-0.4276 -0.3125,-0.5555 -0.320672,-0.1522 -1.202847,-0.2751 -1.875,-0.2778 z"
       id="path4854"
       inkscape:connector-curvature="0" />
    <path
       style="opacity:0.69999999999999996;fill:#000000;fill-opacity:1;stroke:none;stroke-width:0;stroke-linecap:butt;stroke-linejoin:miter;stroke-miterlimit:4;stroke-opacity:1;stroke-dasharray:none;stroke-dashoffset:0"
       d="m 12,1029.8622 c -5.5228477,0 -9.9999999,4.4771 -9.9999999,10 0,5.5229 4.4771522,10 9.9999999,10 5.522848,0 10,-4.4771 10,-10 0,-5.5229 -4.477152,-10 -10,-10 z m -0.208333,3.9236 c 1.275599,-0.047 2.484025,0.1247 3.263889,0.5208 0.833732,0.4235 1.509369,1.3515 1.770833,2.4653 0.116911,0.4981 0.129388,1.0842 0.104167,3.7847 l -0.03472,3.1598 0.451389,0.1389 c 0.500571,0.1632 0.458358,0.1629 0.590278,0.4167 0.11818,0.2273 0.148396,1.0722 0.03472,1.2846 -0.0457,0.086 -0.229242,0.1897 -0.381944,0.2432 -0.347172,0.1214 -1.63055,0.1788 -2.326389,0.1044 -0.598872,-0.064 -0.932783,-0.3064 -1.180556,-0.868 -0.141479,-0.3208 -0.277777,-0.4228 -0.277777,-0.2083 0,0.1722 -0.352116,0.4621 -0.798612,0.6596 -1.277638,0.5651 -4.0516994,0.5621 -5.3472216,0 -0.6092178,-0.2642 -1.3067923,-1.0812 -1.5277778,-1.8055 -0.2729867,-0.8948 -0.2232545,-2.2791 0.1041666,-3.0208 0.2970389,-0.6729 0.8547345,-1.4583 1.2152778,-1.7014 0.8448478,-0.5697 1.5739356,-0.7207 4.166667,-0.7639 1.550804,-0.026 2.138943,-0.062 2.1875,-0.1389 0.12952,-0.2039 0.07491,-0.7099 -0.104167,-0.9376 -0.336499,-0.4278 -0.601477,-0.4805 -1.944445,-0.5208 -1.435402,-0.043 -1.582381,-0.019 -2.4652772,0.5556 -0.7668322,0.4991 -1.2356544,0.6944 -1.7013889,0.6944 -0.5860167,0 -0.93281,-0.2982 -1.1458333,-1.007 -0.1295911,-0.4311 -0.1102334,-0.4621 0.069444,-0.8333 0.2197222,-0.4538 1.0084289,-1.1743 1.6319445,-1.4583 1.0153822,-0.4624 2.3702349,-0.7168 3.6458339,-0.7639 z m -0.173611,6.8056 c -0.224052,-10e-4 -0.410354,0.011 -0.555556,0.034 -0.735373,0.1359 -1.6398987,0.6259 -1.7708332,0.9722 -0.1015555,0.2687 0.051378,0.423 0.5208333,0.625 0.8120589,0.3493 1.9295829,0.4597 2.8819439,0.2431 0.811146,-0.1846 1.111112,-0.4627 1.111112,-1.0417 0,-0.3973 -0.04282,-0.4276 -0.3125,-0.5555 -0.320672,-0.1522 -1.202847,-0.2751 -1.875,-0.2778 z"
       id="path4854-6"
       inkscape:connector-curvature="0" />
  </g>
</svg>
