<?xml version="1.0" encoding="UTF-8" standalone="no"?>
<svg
   xmlns:dc="http://purl.org/dc/elements/1.1/"
   xmlns:cc="http://creativecommons.org/ns#"
   xmlns:rdf="http://www.w3.org/1999/02/22-rdf-syntax-ns#"
   xmlns:svg="http://www.w3.org/2000/svg"
   xmlns="http://www.w3.org/2000/svg"
   xmlns:xlink="http://www.w3.org/1999/xlink"
   xmlns:sodipodi="http://sodipodi.sourceforge.net/DTD/sodipodi-0.dtd"
   xmlns:inkscape="http://www.inkscape.org/namespaces/inkscape"
   version="1.1"
   width="32.000015"
   height="21.333332"
   viewBox="-5 -5 0.96000046 0.63999996"
   id="svg2"
   inkscape:version="0.48.3.1 r9886"
   sodipodi:docname="Flag_of_Uruguay.svg">
  <metadata
     id="metadata56">
    <rdf:RDF>
      <cc:Work
         rdf:about="">
        <dc:format>image/svg+xml</dc:format>
        <dc:type
           rdf:resource="http://purl.org/dc/dcmitype/StillImage" />
        <dc:title>Flag of Uruguay</dc:title>
      </cc:Work>
    </rdf:RDF>
  </metadata>
  <defs
     id="defs54" />
  <sodipodi:namedview
     pagecolor="#ffffff"
     bordercolor="#666666"
     borderopacity="1"
     objecttolerance="10"
     gridtolerance="10"
     guidetolerance="10"
     inkscape:pageopacity="0"
     inkscape:pageshadow="2"
     inkscape:window-width="1366"
     inkscape:window-height="713"
     id="namedview52"
     showgrid="false"
     fit-margin-top="0"
     fit-margin-left="0"
     fit-margin-right="0"
     fit-margin-bottom="0"
     inkscape:zoom="0.39333333"
     inkscape:cx="-417.47458"
     inkscape:cy="10.666668"
     inkscape:window-x="0"
     inkscape:window-y="27"
     inkscape:window-maximized="1"
     inkscape:current-layer="svg2" />
  <title
     id="title4">Flag of Uruguay</title>
  <rect
     x="-4.9999995"
     y="-5"
     width="0.95999998"
     height="0.63999999"
     id="rect6"
     style="fill:#ffffff" />
  <g
     id="g8"
     transform="matrix(0.03555556,0,0,0.03555556,-4.8222222,-4.8222223)"
     style="fill:#0038a8">
    <rect
       x="5"
       y="-3"
       width="17"
       height="2"
       id="rect10" />
    <rect
       x="5"
       y="1"
       width="17"
       height="2"
       id="rect12" />
    <rect
       x="-5"
       y="5"
       width="27"
       height="2"
       id="rect14" />
    <rect
       x="-5"
       y="9"
       width="27"
       height="2"
       id="rect16" />
  </g>
  <g
     transform="matrix(0.00391111,0,0,0.00391111,-4.8222222,-4.8222223)"
     stroke-miterlimit="20"
     id="g18"
     style="fill:#fcd116;stroke:#000000;stroke-width:0.60000002;stroke-miterlimit:20">
    <g
       id="u">
      <g
         id="t">
        <g
           id="s">
          <g
             transform="matrix(0.92387953,0.38268343,-0.38268343,0.92387953,0,0)"
             id="g23">
            <path
               d="M 1.5,9 6,12 C -2,25 7,27 0,33 3,26 -3,28 -3,16"
               id="path25"
               inkscape:connector-curvature="0"
               style="stroke-linecap:square" />
            <path
               d="M 0,11 C -2,24 4.5,28 0,33"
               id="path27"
               inkscape:connector-curvature="0"
               style="fill:none" />
          </g>
          <path
             d="M 0,0 H 6 L 0,33 -6,0 h 6 v 33"
             id="path29"
             inkscape:connector-curvature="0" />
        </g>
        <use
           xlink:href="#s"
           transform="matrix(0.70710678,0.70710678,-0.70710678,0.70710678,0,0)"
           id="use31"
           x="0"
           y="0"
           width="27"
           height="18" />
      </g>
      <use
         xlink:href="#t"
         transform="matrix(0,1,-1,0,0,0)"
         id="use33"
         x="0"
         y="0"
         width="27"
         height="18" />
    </g>
    <use
       xlink:href="#u"
       transform="scale(-1,-1)"
       id="use35"
       x="0"
       y="0"
       width="27"
       height="18" />
    <circle
       r="11"
       id="circle37"
       d="M 11,0 C 11,6.0751322 6.0751322,11 0,11 -6.0751322,11 -11,6.0751322 -11,0 c 0,-6.0751322 4.9248678,-11 11,-11 6.0751322,0 11,4.9248678 11,11 z"
       cx="0"
       cy="0"
       sodipodi:cx="0"
       sodipodi:cy="0"
       sodipodi:rx="11"
       sodipodi:ry="11" />
  </g>
  <g
     transform="matrix(3.9111111e-4,0,0,3.9111111e-4,-4.8222222,-4.8222223)"
     id="g39">
    <g
       id="right">
      <path
         d="m 81,-44 c -7,8 -11,-6 -36,-6 -25,0 -29,15 -33,12 -4,-3 21,-21 29,-22 8,-1 31,7 40,16 m -29,9 c 7,6 1,19 -6,19 -7,0 -20,-12 -14,-20"
         id="path42"
         inkscape:connector-curvature="0" />
      <path
         d="m 19,-26 c 1,-12 11,-14 27,-14 16,0 23,12 29,15 -7,0 -13,-10 -29,-10 -16,0 -16,0 -27,10 m 3,2 c 4,-6 9,6 20,6 11,0 17,-3 24,-8 7,-5 -10,12 -21,12 -11,0 -26,-6 -23,-10"
         id="path44"
         inkscape:connector-curvature="0" />
      <path
         d="m 56,-17 c 13,-7 5,-17 0,-19 2,2 10,12 0,19 M 0,43 c 6,0 8,-2 16,-2 8,0 27,11 38,7 -23,9 -14,3 -54,3 h -5 m 63,6 c -4,-7 -3,-5 -11,-16 8,6 10,9 11,16 M 0,67 C 25,67 21,62 54,48 30,51 25,59 0,59 H -5 M 0,30 c 7,0 9,-5 17,-5 8,0 19,3 24,7 1,1 -3,-8 -11,-9 C 22,22 25,9 16,7 c 0,4 3,3 4,9 0,5 -9,5 -11,0 2,8 -4,8 -9,8"
         id="path46"
         inkscape:connector-curvature="0" />
    </g>
    <use
       xlink:href="#right"
       transform="scale(-1,1)"
       id="use48"
       x="0"
       y="0"
       width="27"
       height="18" />
    <path
       d="m 0,76 c -5,0 -18,3 0,3 18,0 5,-3 0,-3"
       id="path50"
       inkscape:connector-curvature="0" />
  </g>
</svg>
