<?xml version="1.0" encoding="UTF-8" standalone="no"?>
<svg
   xmlns:dc="http://purl.org/dc/elements/1.1/"
   xmlns:cc="http://creativecommons.org/ns#"
   xmlns:rdf="http://www.w3.org/1999/02/22-rdf-syntax-ns#"
   xmlns:svg="http://www.w3.org/2000/svg"
   xmlns="http://www.w3.org/2000/svg"
   xmlns:sodipodi="http://sodipodi.sourceforge.net/DTD/sodipodi-0.dtd"
   xmlns:inkscape="http://www.inkscape.org/namespaces/inkscape"
   height="55px"
   viewBox="0 0 55 55"
   width="55px"
   id="svg2"
   version="1.1"
   inkscape:version="0.48.3.1 r9886"
   sodipodi:docname="activity-help.svg">
  <metadata
     id="metadata14">
    <rdf:RDF>
      <cc:Work
         rdf:about="">
        <dc:format>image/svg+xml</dc:format>
        <dc:type
           rdf:resource="http://purl.org/dc/dcmitype/StillImage" />
        <dc:title></dc:title>
      </cc:Work>
    </rdf:RDF>
  </metadata>
  <defs
     id="defs12" />
  <sodipodi:namedview
     pagecolor="#ffffff"
     bordercolor="#666666"
     borderopacity="1"
     objecttolerance="10"
     gridtolerance="10"
     guidetolerance="10"
     inkscape:pageopacity="0"
     inkscape:pageshadow="2"
     inkscape:window-width="1366"
     inkscape:window-height="712"
     id="namedview10"
     showgrid="false"
     inkscape:zoom="4.2909091"
     inkscape:cx="-17.711864"
     inkscape:cy="27.5"
     inkscape:window-x="0"
     inkscape:window-y="27"
     inkscape:window-maximized="1"
     inkscape:current-layer="svg2" />
  <path
     style="fill:none;stroke:#ff6600;stroke-width:3.50000000000000000;stroke-linecap:round;stroke-linejoin:round;stroke-opacity:1"
     inkscape:connector-curvature="0"
     id="path6"
     d="m 50,27.625 c 0,12.3431 -10.1569,22.5 -22.5,22.5 C 15.1569,50.125 5,39.9681 5,27.625 5,15.2819 15.1569,5.125 27.5,5.125 c 12.3431,0 22.5,10.1569 22.5,22.5 z" />
  <path
     style="fill:#ff6600;stroke:none;fill-opacity:1"
     inkscape:connector-curvature="0"
     id="path8"
     d="m 23.956,27.167 c 0,-1.621 1.8,-1.89 3.645,-2.386 1.8,-0.495 3.6,-1.215 3.6,-3.825 0,-1.98 -1.845,-3.42 -3.734,-3.42 -3.78,0 -4.365,4.455 -7.246,4.455 -1.62,0 -2.745,-1.26 -2.745,-3.24 0,-4.726 5.94,-7.425 9.991,-7.425 5.806,0 10.756,3.6 10.756,9.631 0,4.995 -3.15,7.921 -7.785,9.091 l 0,1.619 c 0,1.801 -1.351,3.105 -3.241,3.105 -2.025,0 -3.24,-1.305 -3.24,-3.105 l 0,-4.5 z m -0.27,13.77 c 0,-1.935 1.575,-3.51 3.51,-3.51 1.936,0 3.51,1.575 3.51,3.51 0,1.936 -1.574,3.512 -3.51,3.512 -1.935,-10e-4 -3.51,-1.577 -3.51,-3.512 z" />
</svg>
