<?xml version="1.0" encoding="UTF-8" standalone="no"?>
<!-- Created with Inkscape (http://www.inkscape.org/) -->

<svg
   xmlns:dc="http://purl.org/dc/elements/1.1/"
   xmlns:cc="http://creativecommons.org/ns#"
   xmlns:rdf="http://www.w3.org/1999/02/22-rdf-syntax-ns#"
   xmlns:svg="http://www.w3.org/2000/svg"
   xmlns="http://www.w3.org/2000/svg"
   xmlns:sodipodi="http://sodipodi.sourceforge.net/DTD/sodipodi-0.dtd"
   xmlns:inkscape="http://www.inkscape.org/namespaces/inkscape"
   width="24"
   height="24"
   id="svg6662"
   version="1.1"
   inkscape:version="0.48.3.1 r9886"
   sodipodi:docname="pdf.svg">
  <defs
     id="defs6664">
    <linearGradient
       y2="11.02436"
       y1="3.0069399"
       x2="0"
       id="linearGradient1022-8-8-3-0-06-7"
       gradientUnits="userSpaceOnUse">
      <stop
         id="stop3001-0-9-4-9-91"
         offset="0" />
      <stop
         id="stop3003-5-6-6-5-8"
         stop-color="#363636"
         offset="1" />
    </linearGradient>
  </defs>
  <sodipodi:namedview
     id="base"
     pagecolor="#ffffff"
     bordercolor="#666666"
     borderopacity="1.0"
     inkscape:pageopacity="0.0"
     inkscape:pageshadow="2"
     inkscape:zoom="15.839192"
     inkscape:cx="16.898255"
     inkscape:cy="9.7229089"
     inkscape:document-units="px"
     inkscape:current-layer="capa1"
     showgrid="false"
     inkscape:showpageshadow="false"
     inkscape:window-width="1366"
     inkscape:window-height="712"
     inkscape:window-x="0"
     inkscape:window-y="27"
     inkscape:window-maximized="1" />
  <metadata
     id="metadata6667">
    <rdf:RDF>
      <cc:Work
         rdf:about="">
        <dc:format>image/svg+xml</dc:format>
        <dc:type
           rdf:resource="http://purl.org/dc/dcmitype/StillImage" />
        <dc:title></dc:title>
      </cc:Work>
    </rdf:RDF>
  </metadata>
  <g
     inkscape:label="Capa 1"
     inkscape:groupmode="layer"
     id="capa1"
     transform="translate(0,-1028.3622)">
    <rect
       y="1028.3622"
       x="-1e-06"
       height="23.999996"
       width="23.999996"
       id="rect3077"
       style="opacity:0.6;color:#000000;fill:none;stroke:none;stroke-width:1;marker:none;visibility:visible;display:inline;overflow:visible;enable-background:accumulate" />
    <g
       id="g3856"
       transform="matrix(0.75295886,0,0,0.75295886,-4.1690035,257.26152)">
      <path
         inkscape:export-ydpi="0.89451766"
         inkscape:export-xdpi="0.89451766"
         inkscape:export-filename="/home/flavio/Documentos/JAMediaSuite/JAMediaObjects/Iconos/sonido.png"
         d="m -5224.342,13474.188 c 0,705.852 -572.206,1278.058 -1278.0579,1278.058 -705.8519,0 -1278.0579,-572.206 -1278.0579,-1278.058 0,-705.851 572.206,-1278.057 1278.0579,-1278.057 705.8519,0 1278.0579,572.206 1278.0579,1278.057 z"
         sodipodi:ry="1278.0579"
         sodipodi:rx="1278.0579"
         sodipodi:cy="13474.188"
         sodipodi:cx="-6502.3999"
         id="path4495-8"
         style="fill:#000000;fill-opacity:0.37254902;stroke:none"
         sodipodi:type="arc"
         transform="matrix(0.01100759,0,0.00208391,0.00729899,64.229015,945.81268)" />
      <path
         inkscape:export-ydpi="0.89451766"
         inkscape:export-xdpi="0.89451766"
         inkscape:export-filename="/home/flavio/Documentos/JAMediaSuite/JAMediaObjects/Iconos/sonido.png"
         d="m -5224.342,13474.188 c 0,705.852 -572.206,1278.058 -1278.0579,1278.058 -705.8519,0 -1278.0579,-572.206 -1278.0579,-1278.058 0,-705.851 572.206,-1278.057 1278.0579,-1278.057 705.8519,0 1278.0579,572.206 1278.0579,1278.057 z"
         sodipodi:ry="1278.0579"
         sodipodi:rx="1278.0579"
         sodipodi:cy="13474.188"
         sodipodi:cx="-6502.3999"
         id="path4495"
         style="fill:#ff6600;fill-opacity:1;stroke:#000000;stroke-width:101.81900024;stroke-miterlimit:4;stroke-opacity:1;stroke-dasharray:none"
         sodipodi:type="arc"
         transform="matrix(0.01078207,0,0.00204122,0.01048451,64.573305,898.76088)" />
      <path
         inkscape:export-ydpi="0.89451766"
         inkscape:export-xdpi="0.89451766"
         inkscape:export-filename="/home/flavio/Documentos/JAMediaSuite/JAMediaObjects/Iconos/sonido.png"
         d="m -5224.342,13474.188 c 0,705.852 -572.206,1278.058 -1278.0579,1278.058 -705.8519,0 -1278.0579,-572.206 -1278.0579,-1278.058 0,-705.851 572.206,-1278.057 1278.0579,-1278.057 705.8519,0 1278.0579,572.206 1278.0579,1278.057 z"
         sodipodi:ry="1278.0579"
         sodipodi:rx="1278.0579"
         sodipodi:cy="13474.188"
         sodipodi:cx="-6502.3999"
         id="path4495-4"
         style="fill:#ffe4b5;fill-opacity:1;stroke:#000000;stroke-width:101.81900024;stroke-miterlimit:4;stroke-opacity:1;stroke-dasharray:none"
         sodipodi:type="arc"
         transform="matrix(0.00314173,0,5.9477894e-4,0.00305502,34.382315,998.86712)" />
      <path
         inkscape:export-ydpi="0.89451766"
         inkscape:export-xdpi="0.89451766"
         inkscape:export-filename="/home/flavio/Documentos/JAMediaSuite/JAMediaObjects/Iconos/sonido.png"
         sodipodi:nodetypes="cccsssscscccsssscccsc"
         inkscape:connector-curvature="0"
         id="path4533"
         d="m 21.05218,1029.5608 c -0.417703,0 -0.754108,0.3362 -0.754108,0.7539 -8.29e-4,4.107 0.0053,8.2013 0.0053,12.3073 -0.261435,-0.047 -0.537403,-0.072 -0.822511,-0.072 -1.665641,0 -3.01588,0.8592 -3.01588,1.9192 0,1.0599 1.350239,1.9192 3.01588,1.9192 1.665636,0 3.015875,-0.8593 3.015875,-1.9192 0,-0.013 -1.91e-4,-0.026 -4.15e-4,-0.039 3.86e-4,-0.01 4.15e-4,-0.02 4.15e-4,-0.03 l 0,-7.574 7.745377,0 0,8.3383 c -0.271613,-0.051 -0.559048,-0.079 -0.856712,-0.079 -1.665636,0 -3.015879,0.8592 -3.015879,1.9191 0,1.06 1.350243,1.9192 3.015879,1.9192 1.665637,0 3.01588,-0.8592 3.01588,-1.9192 0,-0.015 -2.86e-4,-0.03 -8.3e-4,-0.045 0.02281,-0.072 0.03517,-0.149 0.03517,-0.2289 -0.01705,-5.4867 0.03364,-10.9422 0.03364,-16.4163 0,-0.4177 -0.336218,-0.7539 -0.753921,-0.7539 z"
         style="fill:#00ff00;fill-opacity:1;stroke:#000000;stroke-width:0.62251264;stroke-miterlimit:4;stroke-opacity:1;stroke-dasharray:none" />
    </g>
  </g>
</svg>
