<?xml version="1.0" encoding="UTF-8" standalone="no"?>
<!-- Created with Inkscape (http://www.inkscape.org/) -->

<svg
   xmlns:dc="http://purl.org/dc/elements/1.1/"
   xmlns:cc="http://creativecommons.org/ns#"
   xmlns:rdf="http://www.w3.org/1999/02/22-rdf-syntax-ns#"
   xmlns:svg="http://www.w3.org/2000/svg"
   xmlns="http://www.w3.org/2000/svg"
   xmlns:sodipodi="http://sodipodi.sourceforge.net/DTD/sodipodi-0.dtd"
   xmlns:inkscape="http://www.inkscape.org/namespaces/inkscape"
   version="1.1"
   width="55"
   height="55"
   id="svg2"
   inkscape:version="0.48.3.1 r9886"
   sodipodi:docname="JAMedia.svg">
  <metadata
     id="metadata29">
    <rdf:RDF>
      <cc:Work
         rdf:about="">
        <dc:format>image/svg+xml</dc:format>
        <dc:type
           rdf:resource="http://purl.org/dc/dcmitype/StillImage" />
        <dc:title></dc:title>
      </cc:Work>
    </rdf:RDF>
  </metadata>
  <sodipodi:namedview
     pagecolor="#ffffff"
     bordercolor="#666666"
     borderopacity="1"
     objecttolerance="10"
     gridtolerance="10"
     guidetolerance="10"
     inkscape:pageopacity="0"
     inkscape:pageshadow="2"
     inkscape:window-width="1366"
     inkscape:window-height="712"
     id="namedview27"
     showgrid="false"
     inkscape:zoom="6.2"
     inkscape:cx="45.321573"
     inkscape:cy="30.375919"
     inkscape:window-x="0"
     inkscape:window-y="27"
     inkscape:window-maximized="1"
     inkscape:current-layer="svg2" />
  <defs
     id="defs4" />
  <g
     id="g3516"
     transform="matrix(0.02673123,0,0,0.02673123,27.925726,26.943325)">
    <text
       inkscape:export-ydpi="3.0869229"
       inkscape:export-xdpi="3.0869229"
       inkscape:export-filename="/home/flavio/Documentos/JAMediaSuite/JAMediaObjects/Iconos/jamexplorer.png"
       transform="scale(1.0016255,0.99837713)"
       sodipodi:linespacing="125%"
       id="text3057-8-6-5"
       y="557.526"
       x="-977.50342"
       style="font-size:462.60974121px;font-style:normal;font-weight:normal;line-height:125%;letter-spacing:0px;word-spacing:0px;fill:#000000;fill-opacity:0.4627451;stroke:none;font-family:Sans"
       xml:space="preserve"><tspan
         style="fill:#000000;fill-opacity:0.4627451;stroke:none"
         y="557.526"
         x="-977.50342"
         id="tspan3059-75-8-7"
         sodipodi:role="line">Explorer</tspan></text>
    <path
       inkscape:export-ydpi="3.0869229"
       inkscape:export-xdpi="3.0869229"
       inkscape:export-filename="/home/flavio/Documentos/JAMediaSuite/JAMediaObjects/Iconos/jamexplorer.png"
       sodipodi:nodetypes="cccccccccsscccc"
       id="path2816-5-6-6-3"
       d="m -413.16688,-550.9129 119.4603,266.6455 -225.5956,-42.5587 209.667,325.91060078 C -277.38548,84.731601 -286.48638,204.6847 -450.14228,271.5838 c -72.7834,21.9142 -191.9685,55.1989 -280.0623,-58.0477 l -65.2689,-100.1388 141.8901,-61.317599 16.3257,46.156 c 21.6664,48.778699 68.1176,40.041199 86.0408,9.357899 16.7449,-28.666399 5.4877,-61.018799 -14.8151,-101.9191992 l -127.9585,-257.7745008 -213.9182,170.760901 -83.1746,-222.359801 577.9164,-247.2139 z"
       style="fill:#000000;fill-opacity:0.32116789;stroke:none"
       inkscape:connector-curvature="0" />
    <path
       inkscape:export-ydpi="3.0869229"
       inkscape:export-xdpi="3.0869229"
       inkscape:export-filename="/home/flavio/Documentos/JAMediaSuite/JAMediaObjects/Iconos/jamexplorer.png"
       sodipodi:nodetypes="cccccccccsscccc"
       id="path2816-9-0-5"
       d="m -384.83808,-605.1332 119.4603,266.6454 -225.5955,-42.5586 209.667,325.910601 c 32.2497,85.647 23.1487,205.600199 -140.5071,272.499299 -72.7835,21.9141 -191.9685,55.1988 -280.0624,-58.0477 l -65.2689,-100.138899 141.8902,-61.3175002 16.3257,46.1559002 c 21.6664,48.7788 68.1175,40.0413 86.0407,9.3579 16.7449,-28.6663 5.4878,-61.0187002 -14.8151,-101.9192 l -127.9585,-257.774401 -213.9181,170.7609 -83.1746,-222.3598 577.9163,-247.2139 z"
       style="fill:#ff6600;stroke:#000000;stroke-width:43;stroke-linecap:butt;stroke-linejoin:miter;stroke-miterlimit:4;stroke-opacity:1;stroke-dasharray:none"
       inkscape:connector-curvature="0" />
    <path
       inkscape:export-ydpi="3.0869229"
       inkscape:export-xdpi="3.0869229"
       inkscape:export-filename="/home/flavio/Documentos/JAMediaSuite/JAMediaObjects/Iconos/jamexplorer.png"
       sodipodi:nodetypes="ccccccccccccc"
       id="path2818-6-3-2-1"
       d="m -197.08328,-553.4228 -353.9062,609.593801 268.0625,53.906299 77,-272.6876 93.1875,27.6563 12.1562,310.6563 297.5938,65.5 -145.281301,-728.6251 -248.812499,-66 z m 89.4375,193.7188 -2.5937,85.7187 -32.5625,-26.8437 35.1562,-58.875 z"
       style="fill:#000000;fill-opacity:0.32116789;stroke:none"
       inkscape:connector-curvature="0" />
    <path
       inkscape:export-ydpi="3.0869229"
       inkscape:export-xdpi="3.0869229"
       inkscape:export-filename="/home/flavio/Documentos/JAMediaSuite/JAMediaObjects/Iconos/jamexplorer.png"
       sodipodi:nodetypes="ccccccccccccc"
       id="path2818-8-1-7"
       d="m -168.75438,-607.6431 -353.9063,609.5938008 268.0625,53.9062002 77,-272.687501 93.187499,27.6563 12.1563,310.6563 297.593701,65.5 -145.281301,-728.6251 -248.812399,-66 z m 89.437499,193.7188 -2.5938,85.7187 -32.562499,-26.8437 35.156299,-58.875 z"
       style="fill:#ff6600;stroke:#000000;stroke-width:43;stroke-linecap:butt;stroke-linejoin:miter;stroke-miterlimit:4;stroke-opacity:1;stroke-dasharray:none"
       inkscape:connector-curvature="0" />
    <path
       inkscape:export-ydpi="3.0869229"
       inkscape:export-xdpi="3.0869229"
       inkscape:export-filename="/home/flavio/Documentos/JAMediaSuite/JAMediaObjects/Iconos/jamexplorer.png"
       sodipodi:nodetypes="ccccccccccccc"
       id="path2820-7-8-6-9"
       d="m 265.24332,-565.3479 171.8756,102.3081 -2.3744,129.3408 109.4698,-63.503 151.0077,5.3154 -66.7362,722.8997 -342.2154,-9.2712 167.0886,-486.8168 -154.2206,46.5047 -33.9558,-168.4445 -298.848101,426.923 -167.681199,-197.230999 466.59,-508.025201 z"
       style="fill:#000000;fill-opacity:0.32116789;stroke:none"
       inkscape:connector-curvature="0" />
    <path
       inkscape:export-ydpi="3.0869229"
       inkscape:export-xdpi="3.0869229"
       inkscape:export-filename="/home/flavio/Documentos/JAMediaSuite/JAMediaObjects/Iconos/jamexplorer.png"
       sodipodi:nodetypes="ccccccccccccc"
       id="path2820-4-0-4"
       d="m 307.57212,-607.5682 171.8756,102.308 -2.3744,129.3409 109.4698,-63.5031 151.0077,5.3155 -66.7362,722.8997 -342.2154,-9.2712 167.0886,-486.8169 -154.2206,46.5048 L 307.51142,-329.235 8.6633194,97.688001 -159.01788,-99.542999 307.57212,-607.5682 z"
       style="fill:#ff6600;stroke:#000000;stroke-width:43;stroke-linecap:butt;stroke-linejoin:miter;stroke-miterlimit:4;stroke-opacity:1;stroke-dasharray:none"
       inkscape:connector-curvature="0" />
    <text
       inkscape:export-ydpi="3.0869229"
       inkscape:export-xdpi="3.0869229"
       inkscape:export-filename="/home/flavio/Documentos/JAMediaSuite/JAMediaObjects/Iconos/jamexplorer.png"
       transform="scale(0.9099957,1.0989063)"
       id="text2822-1-3-0-2"
       y="295.51105"
       x="-495.77563"
       style="font-size:614.23028564px;font-style:normal;font-weight:normal;fill:#000000;fill-opacity:0.32116789;stroke:none;font-family:Bitstream Vera Sans"
       xml:space="preserve"><tspan
         style="font-weight:bold;fill:#000000;fill-opacity:0.32116789;stroke:none;-inkscape-font-specification:AlArabiya Bold"
         y="295.51105"
         x="-495.77563"
         id="tspan2824-4-6-4-6"
         sodipodi:role="line">edi</tspan></text>
    <text
       inkscape:export-ydpi="3.0869229"
       inkscape:export-xdpi="3.0869229"
       inkscape:export-filename="/home/flavio/Documentos/JAMediaSuite/JAMediaObjects/Iconos/jamexplorer.png"
       transform="scale(0.9099957,1.0989063)"
       id="text2822-2-7-0"
       y="268.01093"
       x="-466.84302"
       style="font-size:614.23028564px;font-style:normal;font-weight:normal;fill:#ffff00;fill-opacity:1;stroke:#000000;stroke-width:27.79999924;stroke-miterlimit:4;stroke-opacity:1;stroke-dasharray:none;font-family:Bitstream Vera Sans"
       xml:space="preserve"><tspan
         style="font-weight:bold;fill:#ffff00;stroke:#000000;stroke-width:27.79999924;stroke-miterlimit:4;stroke-opacity:1;stroke-dasharray:none;-inkscape-font-specification:AlArabiya Bold"
         y="268.01093"
         x="-466.84302"
         id="tspan2824-5-4-1"
         sodipodi:role="line"><tspan
           id="tspan3123-5"
           style="fill:#00ffff;stroke-width:27.79999924">e</tspan><tspan
           id="tspan3125-3"
           style="fill:#00ff00;stroke-width:27.79999924">d</tspan><tspan
           id="tspan3121-0"
           style="fill:#00ffff;stroke-width:27.79999924">i</tspan></tspan></text>
    <g
       inkscape:export-ydpi="3.0869229"
       inkscape:export-xdpi="3.0869229"
       inkscape:export-filename="/home/flavio/Documentos/JAMediaSuite/JAMediaObjects/Iconos/jamexplorer.png"
       id="g3861-0-8-1"
       transform="translate(-916.75438,-541.4243)">
      <path
         style="fill:#000000;fill-opacity:0.35036495;stroke:#000000;stroke-width:0;stroke-linecap:butt;stroke-linejoin:miter;stroke-miterlimit:4;stroke-opacity:1;stroke-dasharray:none"
         d="m 1772.8028,865.33376 81.2745,-2.0831 -4.1679,-31.2598 -33.3434,-20.8395 -2.0841,-395.9532 c 0,0 -41.6791,-27.09119 -43.7632,6.2517 -2.0839,33.3441 0,81.2747 0,81.2747 l -197.9764,2.0843 c -17.4917,6.4544 -30.6012,15.5381 -29.1755,33.3429 l 0.084,31.2598 -95.9463,2.0843 c -11.831,12.4926 -20.2906,26.6709 -2.0839,54.1823 l 89.6103,0 2.084,200.061 -20.8396,6.2517 0,35.4272 72.9387,0 0,-91.6939 181.4727,-2.0843 1.916,91.6939 z"
         id="path3761-8-9-3-3"
         sodipodi:nodetypes="cccccscccccccccccccc"
         inkscape:connector-curvature="0" />
      <path
         style="fill:#000000;fill-opacity:0.35036495;stroke:#000000;stroke-width:0;stroke-linecap:butt;stroke-linejoin:miter;stroke-miterlimit:4;stroke-opacity:1;stroke-dasharray:none"
         d="m 1703.3766,456.64166 c 0,0 -9.7645,-93.54274 84.0139,-116.46533 38.064,-28.63805 -56.633,-56.60839 -93.7784,-35.42837 -48.6708,27.75176 -48.8757,56.80478 -47.9311,56.26783 -17.5891,35.59336 0.7014,84.72747 57.6956,95.62587 z"
         id="path3789-5-0-6-7"
         sodipodi:nodetypes="ccscc"
         inkscape:connector-curvature="0" />
      <path
         style="fill:#000000;fill-opacity:0.35036495;stroke:#000000;stroke-width:0;stroke-linecap:butt;stroke-linejoin:miter;stroke-miterlimit:4;stroke-opacity:1;stroke-dasharray:none"
         d="m 1578.7586,433.41706 c 0,0 48.1668,-22.3863 29.411,-70.31698 -18.7556,-47.93181 -68.7706,-37.51149 -68.7706,-37.51149 0,0 -49.2071,11.39793 -45.8473,41.67892 37.7469,-16.3034 60.435,18.75633 60.435,18.75633 l 24.7719,47.39322 z"
         id="path3791-5-1-5-0"
         sodipodi:nodetypes="cccccc"
         inkscape:connector-curvature="0" />
    </g>
    <path
       inkscape:export-ydpi="3.0869229"
       inkscape:export-xdpi="3.0869229"
       inkscape:export-filename="/home/flavio/Documentos/JAMediaSuite/JAMediaObjects/Iconos/jamexplorer.png"
       sodipodi:nodetypes="cccccscccccccccccccc"
       id="path3761-89-2-0"
       d="m 865.66362,303.9307 81.2745,-2.0832 -4.1679,-31.2597 -33.3434,-20.8395 -2.0841,-395.9533 c 0,0 -41.6791,-27.0912 -43.7632,6.2517 -2.0839,33.3441 0,81.274701 0,81.274701 l -197.9764,2.0843 c -17.4917,6.4544 -30.6012,15.5381 -29.1754,33.3429 l 0.084,31.2597998 -95.9463,2.0843002 c -11.831,12.4926 -20.2905,26.671 -2.0839,54.1824 l 89.6103,0 2.084,200.060899 -20.8396,6.2518 0,35.4272 72.9387,0 0,-91.6939 181.4727,-2.0843 1.916,91.6939 z"
       style="fill:#00ff00;fill-opacity:1;stroke:#000000;stroke-width:27;stroke-linecap:butt;stroke-linejoin:miter;stroke-miterlimit:4;stroke-opacity:1;stroke-dasharray:none"
       inkscape:connector-curvature="0" />
    <path
       inkscape:export-ydpi="3.0869229"
       inkscape:export-xdpi="3.0869229"
       inkscape:export-filename="/home/flavio/Documentos/JAMediaSuite/JAMediaObjects/Iconos/jamexplorer.png"
       transform="matrix(11.670191,0,0,11.670191,-86.290381,-13442.362)"
       d="m 78.928568,1154.4158 c 0,1.0355 -0.759517,1.875 -1.696428,1.875 -0.936912,0 -1.696429,-0.8395 -1.696429,-1.875 0,-1.0356 0.759517,-1.875 1.696429,-1.875 0.936911,0 1.696428,0.8394 1.696428,1.875 z"
       sodipodi:ry="1.875"
       sodipodi:rx="1.6964285"
       sodipodi:cy="1154.4158"
       sodipodi:cx="77.23214"
       id="path3763-3-7-5"
       style="fill:#000000;fill-opacity:1;stroke:none"
       sodipodi:type="arc" />
    <path
       inkscape:export-ydpi="3.0869229"
       inkscape:export-xdpi="3.0869229"
       inkscape:export-filename="/home/flavio/Documentos/JAMediaSuite/JAMediaObjects/Iconos/jamexplorer.png"
       transform="matrix(11.670191,0,0,11.670191,-168.60688,-13432.984)"
       d="m 78.928568,1154.4158 c 0,1.0355 -0.759517,1.875 -1.696428,1.875 -0.936912,0 -1.696429,-0.8395 -1.696429,-1.875 0,-1.0356 0.759517,-1.875 1.696429,-1.875 0.936911,0 1.696428,0.8394 1.696428,1.875 z"
       sodipodi:ry="1.875"
       sodipodi:rx="1.6964285"
       sodipodi:cy="1154.4158"
       sodipodi:cx="77.23214"
       id="path3763-9-6-2-1"
       style="fill:#000000;fill-opacity:1;stroke:none"
       sodipodi:type="arc" />
    <path
       inkscape:export-ydpi="3.0869229"
       inkscape:export-xdpi="3.0869229"
       inkscape:export-filename="/home/flavio/Documentos/JAMediaSuite/JAMediaObjects/Iconos/jamexplorer.png"
       sodipodi:nodetypes="cccccc"
       id="path3787-7-4-4"
       d="m 703.11442,105.954 c 7.0037,21.2935 14.5797,42.4912 54.1831,58.351 59.0074,-2.7915 66.6198,-24.2606 77.1065,-43.2258 l 4.1679,-42.216399 c -44.6854,31.183399 -69.0551,44.617499 -122.9537,16.6721 L 703.11442,105.954 z"
       style="fill:#ff6600;stroke:#000000;stroke-width:3.50105739;stroke-linecap:butt;stroke-linejoin:miter;stroke-miterlimit:4;stroke-opacity:1;stroke-dasharray:none"
       inkscape:connector-curvature="0" />
    <path
       inkscape:export-ydpi="3.0869229"
       inkscape:export-xdpi="3.0869229"
       inkscape:export-filename="/home/flavio/Documentos/JAMediaSuite/JAMediaObjects/Iconos/jamexplorer.png"
       sodipodi:nodetypes="ccscc"
       id="path3789-8-6-7"
       d="m 796.23742,-104.7615 c 0,0 -9.7645,-93.5427 84.0139,-116.4653 38.064,-28.6381 -56.633,-56.6084 -93.7784,-35.4284 -48.6708,27.7518 -48.8757,56.8048 -47.9311,56.2678 -17.5891,35.5934 0.7014,84.7275 57.6956,95.6259 z"
       style="fill:#ff6600;stroke:#000000;stroke-width:27;stroke-linecap:butt;stroke-linejoin:miter;stroke-miterlimit:4;stroke-opacity:1;stroke-dasharray:none"
       inkscape:connector-curvature="0" />
    <path
       inkscape:export-ydpi="3.0869229"
       inkscape:export-xdpi="3.0869229"
       inkscape:export-filename="/home/flavio/Documentos/JAMediaSuite/JAMediaObjects/Iconos/jamexplorer.png"
       sodipodi:nodetypes="cccccc"
       id="path3791-8-8-2"
       d="m 671.61942,-127.9861 c 0,0 48.1668,-22.3863 29.411,-70.317 -18.7556,-47.9318 -68.7706,-37.5115 -68.7706,-37.5115 0,0 -49.2071,11.398 -45.8473,41.679 37.7469,-16.3034 60.435,18.7563 60.435,18.7563 l 24.7719,47.3932 z"
       style="fill:#00ff00;fill-opacity:1;stroke:#000000;stroke-width:27;stroke-linecap:butt;stroke-linejoin:miter;stroke-miterlimit:4;stroke-opacity:1;stroke-dasharray:none"
       inkscape:connector-curvature="0" />
    <text
       inkscape:export-ydpi="3.0869229"
       inkscape:export-xdpi="3.0869229"
       inkscape:export-filename="/home/flavio/Documentos/JAMediaSuite/JAMediaObjects/Iconos/jamexplorer.png"
       transform="scale(1.0016255,0.99837713)"
       sodipodi:linespacing="125%"
       id="text3057-8-6"
       y="547.80981"
       x="-989.9187"
       style="font-size:462.60974121px;font-style:normal;font-weight:normal;line-height:125%;letter-spacing:0px;word-spacing:0px;fill:#ff6600;fill-opacity:1;font-family:Sans"
       xml:space="preserve"><tspan
         style="fill:#ff6600;fill-opacity:1"
         y="547.80981"
         x="-989.9187"
         id="tspan3059-75-8"
         sodipodi:role="line">Explorer</tspan></text>
  </g>
</svg>
