<?xml version="1.0" encoding="UTF-8" standalone="no"?>
<!-- Created with Inkscape (http://www.inkscape.org/) -->

<svg
   xmlns:dc="http://purl.org/dc/elements/1.1/"
   xmlns:cc="http://creativecommons.org/ns#"
   xmlns:rdf="http://www.w3.org/1999/02/22-rdf-syntax-ns#"
   xmlns:svg="http://www.w3.org/2000/svg"
   xmlns="http://www.w3.org/2000/svg"
   xmlns:sodipodi="http://sodipodi.sourceforge.net/DTD/sodipodi-0.dtd"
   xmlns:inkscape="http://www.inkscape.org/namespaces/inkscape"
   version="1.1"
   width="55"
   height="55"
   id="svg2"
   inkscape:version="0.48.1 r9760"
   sodipodi:docname="JAMedia.svg">
  <metadata
     id="metadata29">
    <rdf:RDF>
      <cc:Work
         rdf:about="">
        <dc:format>image/svg+xml</dc:format>
        <dc:type
           rdf:resource="http://purl.org/dc/dcmitype/StillImage" />
      </cc:Work>
    </rdf:RDF>
  </metadata>
  <sodipodi:namedview
     pagecolor="#ffffff"
     bordercolor="#666666"
     borderopacity="1"
     objecttolerance="10"
     gridtolerance="10"
     guidetolerance="10"
     inkscape:pageopacity="0"
     inkscape:pageshadow="2"
     inkscape:window-width="1360"
     inkscape:window-height="715"
     id="namedview27"
     showgrid="false"
     inkscape:zoom="6.2"
     inkscape:cx="-0.61227511"
     inkscape:cy="33.372376"
     inkscape:window-x="0"
     inkscape:window-y="26"
     inkscape:window-maximized="1"
     inkscape:current-layer="svg2" />
  <defs
     id="defs4" />
  <path
     d="m 17.290914,16.28702 3.002025,6.700774 -5.669195,-1.069495 5.268912,8.190102 c 0.810432,2.152302 0.581725,5.166712 -3.53093,6.84788 -1.829041,0.550701 -4.824151,1.387142 -7.0379403,-1.458733 l -1.6402009,-2.516479 3.5656862,-1.540904 0.410263,1.159895 c 0.544474,1.225804 1.711788,1.006232 2.162195,0.235162 0.420797,-0.720381 0.137907,-1.533395 -0.372302,-2.561219 L 10.233842,23.796157 4.8580999,28.087361 2.7679307,22.499481 17.290914,16.28702 z"
     id="path2816-5"
     style="fill:#000000;fill-opacity:0.32116789;stroke:none"
     inkscape:connector-curvature="0" />
  <path
     d="m 18.002814,14.924468 3.002027,6.700774 -5.669196,-1.069495 5.268912,8.190102 c 0.810431,2.152301 0.581725,5.166712 -3.53093,6.84788 -1.829041,0.550701 -4.82415,1.387142 -7.03794,-1.458733 l -1.6402012,-2.516479 3.5656852,-1.540903 0.410263,1.159894 c 0.544475,1.225804 1.711789,1.006232 2.162196,0.235162 0.420798,-0.720381 0.137908,-1.533395 -0.372301,-2.561219 L 10.945743,22.433605 5.570001,26.72481 3.4798318,21.136929 18.002814,14.924468 z"
     id="path2816"
     style="fill:#ff6600;stroke:#000000;stroke-width:1.08058584;stroke-linecap:butt;stroke-linejoin:miter;stroke-miterlimit:4;stroke-opacity:1;stroke-dasharray:none"
     inkscape:connector-curvature="0" />
  <path
     d="m 22.721074,16.223946 -8.89363,15.319033 6.736385,1.354659 1.935003,-6.85261 2.341793,0.694998 0.305485,7.806762 7.478505,1.646008 -3.650906,-18.310276 -6.252635,-1.658574 z m 2.247556,4.868135 -0.06518,2.154103 -0.818292,-0.674581 0.883473,-1.479522 z"
     id="path2818-6"
     style="fill:#000000;fill-opacity:0.32116789;stroke:none"
     inkscape:connector-curvature="0" />
  <path
     d="m 23.432976,14.861394 -8.89363,15.319033 6.736385,1.354659 1.935003,-6.852611 2.341792,0.694999 0.305486,7.806762 7.478503,1.646009 -3.650905,-18.310277 -6.252634,-1.658574 z m 2.247556,4.868134 -0.06518,2.154104 -0.818293,-0.67458 0.883474,-1.479524 z"
     id="path2818"
     style="fill:#ff6600;stroke:#000000;stroke-width:1.08058584;stroke-linecap:butt;stroke-linejoin:miter;stroke-miterlimit:4;stroke-opacity:1;stroke-dasharray:none"
     inkscape:connector-curvature="0" />
  <path
     d="m 34.339299,15.92427 4.319217,2.570991 -0.05967,3.250323 2.750968,-1.595826 3.794809,0.133577 -1.677074,18.166399 -8.599843,-0.232985 4.19892,-12.233659 -3.875549,1.16866 -0.853306,-4.232994 -7.510026,10.728532 -4.213813,-4.956395 11.725365,-12.766623 z"
     id="path2820-7"
     style="fill:#000000;fill-opacity:0.32116789;stroke:none"
     inkscape:connector-curvature="0" />
  <path
     d="m 35.403018,14.863276 4.319217,2.570992 -0.05967,3.250323 2.750967,-1.595826 3.79481,0.133577 -1.677075,18.166399 -8.599843,-0.232985 4.198921,-12.23366 -3.875549,1.168661 L 35.401492,21.857763 27.891466,32.586295 23.677654,27.6299 35.403018,14.863276 z"
     id="path2820"
     style="fill:#ff6600;stroke:#000000;stroke-width:1.08058584;stroke-linecap:butt;stroke-linejoin:miter;stroke-miterlimit:4;stroke-opacity:1;stroke-dasharray:none"
     inkscape:connector-curvature="0" />
  <text
     x="17.952076"
     y="34.845619"
     transform="scale(0.90999577,1.0989062)"
     id="text2822-1"
     xml:space="preserve"
     style="font-size:15.43554974px;font-style:normal;font-weight:normal;fill:#000000;fill-opacity:0.32116789;stroke:none;font-family:Bitstream Vera Sans"><tspan
       x="17.952076"
       y="34.845619"
       id="tspan2824-4"
       style="font-weight:bold;fill:#000000;fill-opacity:0.32116789;stroke:none;-inkscape-font-specification:AlArabiya Bold">edi</tspan></text>
  <text
     x="18.679159"
     y="34.154545"
     transform="scale(0.90999577,1.0989062)"
     id="text2822"
     xml:space="preserve"
     style="font-size:15.43554974px;font-style:normal;font-weight:normal;fill:#ffff00;fill-opacity:1;stroke:#000000;stroke-width:0.69861138;stroke-miterlimit:4;stroke-opacity:1;stroke-dasharray:none;font-family:Bitstream Vera Sans"><tspan
       x="18.679159"
       y="34.154545"
       id="tspan2824"
       style="font-weight:bold;fill:#ffff00;stroke:#000000;stroke-width:0.69861138;stroke-miterlimit:4;stroke-opacity:1;stroke-dasharray:none;-inkscape-font-specification:AlArabiya Bold"><tspan
         style="fill:#00ffff;stroke-width:0.69861138"
         id="tspan3825">e</tspan><tspan
         id="tspan3831"
         style="fill:#00ff00;stroke-width:0.69861138">d</tspan><tspan
         style="fill:#00ffff;stroke-width:0.69861138"
         id="tspan3833">i</tspan></tspan></text>
  <g
     id="g3861"
     transform="matrix(0.0251299,0,0,0.0251299,4.6358074,16.525465)">
    <path
       d="m 1772.8028,865.33376 81.2745,-2.0831 -4.1679,-31.2598 -33.3434,-20.8395 -2.0841,-395.9532 c 0,0 -41.6791,-27.09119 -43.7632,6.2517 -2.0839,33.3441 0,81.2747 0,81.2747 l -197.9764,2.0843 c -17.4917,6.4544 -30.6012,15.5381 -29.1755,33.3429 l 0.084,31.2598 -95.9463,2.0843 c -11.831,12.4926 -20.2906,26.6709 -2.0839,54.1823 l 89.6103,0 2.084,200.061 -20.8396,6.2517 0,35.4272 72.9387,0 0,-91.6939 181.4727,-2.0843 1.916,91.6939 z"
       id="path3761-8"
       style="fill:#000000;fill-opacity:0.35036495;stroke:#000000;stroke-width:0;stroke-linecap:butt;stroke-linejoin:miter;stroke-miterlimit:4;stroke-opacity:1;stroke-dasharray:none"
       inkscape:connector-curvature="0" />
    <path
       d="m 1703.3766,456.64166 c 0,0 -9.7645,-93.54274 84.0139,-116.46533 38.064,-28.63805 -56.633,-56.60839 -93.7784,-35.42837 -48.6708,27.75176 -48.8757,56.80478 -47.9311,56.26783 -17.5891,35.59336 0.7014,84.72747 57.6956,95.62587 z"
       id="path3789-5"
       style="fill:#000000;fill-opacity:0.35036495;stroke:#000000;stroke-width:0;stroke-linecap:butt;stroke-linejoin:miter;stroke-miterlimit:4;stroke-opacity:1;stroke-dasharray:none"
       inkscape:connector-curvature="0" />
    <path
       d="m 1578.7586,433.41706 c 0,0 48.1668,-22.3863 29.411,-70.31698 -18.7556,-47.93181 -68.7706,-37.51149 -68.7706,-37.51149 0,0 -49.2071,11.39793 -45.8473,41.67892 37.7469,-16.3034 60.435,18.75633 60.435,18.75633 l 24.7719,47.39322 z"
       id="path3791-5"
       style="fill:#000000;fill-opacity:0.35036495;stroke:#000000;stroke-width:0;stroke-linecap:butt;stroke-linejoin:miter;stroke-miterlimit:4;stroke-opacity:1;stroke-dasharray:none"
       inkscape:connector-curvature="0" />
  </g>
  <path
     inkscape:connector-curvature="0"
     style="fill:#00ff00;fill-opacity:1;stroke:#000000;stroke-width:0.05865416;stroke-linecap:butt;stroke-linejoin:miter;stroke-miterlimit:4;stroke-opacity:1;stroke-dasharray:none"
     id="path3761"
     d="m 49.427806,37.769154 2.042419,-0.05235 -0.104738,-0.785555 -0.837915,-0.523694 -0.05238,-9.950267 c 0,0 -1.047393,-0.680798 -1.099766,0.157106 -0.05237,0.837933 0,2.042425 0,2.042425 l -4.975127,0.05238 c -0.439567,0.162196 -0.769005,0.39047 -0.733177,0.837904 l 0.0021,0.785555 -2.41112,0.05238 c -0.297313,0.313937 -0.5099,0.670238 -0.05237,1.361597 l 2.251899,0 0.05237,5.027512 -0.523697,0.157106 0,0.890282 1.832942,0 0,-2.304258 4.560392,-0.05238 0.04815,2.304257 z" />
  <path
     inkscape:connector-curvature="0"
     style="fill:#000000;fill-opacity:1;stroke:none"
     id="path3763"
     d="m 48.652731,30.882552 a 0.4975133,0.54988314 0 0 1 -0.995027,0 0.4975133,0.54988314 0 1 1 0.995027,0 z" />
  <path
     inkscape:connector-curvature="0"
     style="fill:#000000;fill-opacity:1;stroke:none"
     id="path3763-9"
     d="m 46.584125,31.118214 a 0.4975133,0.54988314 0 0 1 -0.995026,0 0.4975133,0.54988314 0 1 1 0.995026,0 z" />
  <path
     inkscape:connector-curvature="0"
     style="fill:#ffffff;stroke:#000000;stroke-width:0.08798124;stroke-linecap:butt;stroke-linejoin:miter;stroke-miterlimit:4;stroke-opacity:1;stroke-dasharray:none"
     id="path3787"
     d="m 45.342961,32.79402 c 0.176003,0.535102 0.366385,1.067799 1.361614,1.466355 1.482851,-0.07015 1.674151,-0.609666 1.937681,-1.08626 l 0.104739,-1.060893 c -1.12294,0.783635 -1.735347,1.121233 -3.089816,0.418967 l -0.314218,0.261831 z" />
  <path
     inkscape:connector-curvature="0"
     style="fill:#ff6600;fill-opacity:1;stroke:#000000;stroke-width:0.08798124;stroke-linecap:butt;stroke-linejoin:miter;stroke-miterlimit:4;stroke-opacity:1;stroke-dasharray:none"
     id="path3789"
     d="m 47.683133,27.498761 c 0,0 -0.24538,-2.35072 2.111261,-2.926763 0.956545,-0.719671 -1.423183,-1.422563 -2.356641,-0.890311 -1.223093,0.697398 -1.228243,1.427499 -1.204505,1.414005 -0.442013,0.894457 0.01762,2.129192 1.449885,2.403069 z" />
  <path
     inkscape:connector-curvature="0"
     style="fill:#00ff00;fill-opacity:1;stroke:#000000;stroke-width:0.05025981;stroke-linecap:butt;stroke-linejoin:miter;stroke-miterlimit:4;stroke-opacity:1;stroke-dasharray:none"
     id="path3791"
     d="m 44.551495,26.915128 c 0,0 1.210426,-0.562566 0.739096,-1.767058 -0.471327,-1.204522 -1.728201,-0.94266 -1.728201,-0.94266 0,0 -1.236569,0.286429 -1.152137,1.047387 0.948575,-0.409703 1.518726,0.471345 1.518726,0.471345 l 0.622516,1.190986 z" />
</svg>
