<?xml version="1.0" encoding="UTF-8" standalone="no"?>
<!-- Created with Inkscape (http://www.inkscape.org/) -->

<svg
   xmlns:dc="http://purl.org/dc/elements/1.1/"
   xmlns:cc="http://creativecommons.org/ns#"
   xmlns:rdf="http://www.w3.org/1999/02/22-rdf-syntax-ns#"
   xmlns:svg="http://www.w3.org/2000/svg"
   xmlns="http://www.w3.org/2000/svg"
   xmlns:sodipodi="http://sodipodi.sourceforge.net/DTD/sodipodi-0.dtd"
   xmlns:inkscape="http://www.inkscape.org/namespaces/inkscape"
   width="210mm"
   height="297mm"
   id="svg2"
   version="1.1"
   inkscape:version="0.48.4 r9939"
   sodipodi:docname="Nuevo documento 1">
  <defs
     id="defs4" />
  <sodipodi:namedview
     id="base"
     pagecolor="#ffffff"
     bordercolor="#666666"
     borderopacity="1.0"
     inkscape:pageopacity="0.0"
     inkscape:pageshadow="2"
     inkscape:zoom="0.98994949"
     inkscape:cx="367.99638"
     inkscape:cy="655.05922"
     inkscape:document-units="px"
     inkscape:current-layer="layer1"
     showgrid="false"
     inkscape:window-width="1366"
     inkscape:window-height="713"
     inkscape:window-x="0"
     inkscape:window-y="27"
     inkscape:window-maximized="1" />
  <metadata
     id="metadata7">
    <rdf:RDF>
      <cc:Work
         rdf:about="">
        <dc:format>image/svg+xml</dc:format>
        <dc:type
           rdf:resource="http://purl.org/dc/dcmitype/StillImage" />
        <dc:title></dc:title>
      </cc:Work>
    </rdf:RDF>
  </metadata>
  <g
     inkscape:label="Capa 1"
     inkscape:groupmode="layer"
     id="layer1">
    <rect
       style="fill:#ffe4b5;fill-opacity:1;stroke:#000000;stroke-width:1.39999998;stroke-miterlimit:4;stroke-opacity:1;stroke-dasharray:none"
       id="rect2985"
       width="611.11176"
       height="422.02032"
       x="63.174034"
       y="153.19902" />
    <rect
       style="fill:#ffe4b5;fill-opacity:1;stroke:#000000;stroke-width:1.39999998;stroke-miterlimit:4;stroke-opacity:1;stroke-dasharray:none"
       id="rect2987"
       width="599.02045"
       height="33.335033"
       x="65.659912"
       y="160.39749" />
    <rect
       style="fill:#ffe4b5;fill-opacity:1;stroke:#000000;stroke-width:1.39999998;stroke-miterlimit:4;stroke-opacity:1;stroke-dasharray:none"
       id="rect2989"
       width="341.43155"
       height="22.223356"
       x="188.89853"
       y="164.4381" />
    <rect
       style="fill:#ffe4b5;fill-opacity:1;stroke:#000000;stroke-width:1.39999998;stroke-miterlimit:4;stroke-opacity:1;stroke-dasharray:none"
       id="rect2991"
       width="472.7514"
       height="367.69553"
       x="68.690376"
       y="201.81374" />
    <rect
       style="fill:#ffe4b5;fill-opacity:1;stroke:#000000;stroke-width:1.39999998;stroke-miterlimit:4;stroke-opacity:1;stroke-dasharray:none"
       id="rect2993"
       width="120.20815"
       height="367.69553"
       x="549.52301"
       y="202.8239" />
    <path
       style="fill:none;stroke:#000000;stroke-width:1px;stroke-linecap:butt;stroke-linejoin:miter;stroke-opacity:1"
       d="m 613.1626,331.11327 c 1.34687,-1.01016 2.69374,-2.02031 4.04061,-3.03046 0.33671,0 0.70898,0.15058 1.01015,0 2.97268,-1.48635 -1.56805,-1.01015 3.03046,-1.01015 1.01015,0 2.12695,0.45175 3.03045,0 0.85184,-0.42592 1.22788,-1.49202 2.02031,-2.02031 0.27741,-0.18494 3.8226,0.0727 4.04061,0 0.45175,-0.15058 0.67343,-0.67344 1.01015,-1.01015 0.33672,-0.33672 0.74601,-0.61394 1.01015,-1.01016 0.41765,-0.62647 0.5584,-1.41796 1.01016,-2.0203 0.57142,-0.7619 1.34687,-1.34687 2.0203,-2.02031 3.70389,-3.70389 7.40779,-7.40778 11.11168,-11.11167 1.01015,-1.01016 2.0203,-2.02031 3.03046,-3.03046 0.33671,-0.33672 0.85956,-0.5584 1.01015,-1.01015 0.21296,-0.63888 -0.21296,-1.38143 0,-2.02031 0.30117,-0.90351 1.49202,-1.22787 2.0203,-2.0203 0.41765,-0.62647 0.47776,-1.48791 1.01016,-2.02031 0.23809,-0.23809 0.70898,0.15059 1.01015,0 0.42592,-0.21296 0.67343,-0.67343 1.01015,-1.01015 0.67344,-0.67344 1.2584,-1.44888 2.02031,-2.02031 1.56042,-1.17031 4.37877,-1.90902 6.06091,-3.03045 1.16556,-0.77704 1.8649,-2.25342 3.03046,-3.03046 1.25294,-0.8353 2.78767,-1.18501 4.04061,-2.02031 1.48641,-0.99094 2.5542,-3.04967 4.04061,-4.04061 0.27741,-0.18494 3.82261,0.0727 4.04061,0 0.45175,-0.15058 0.5584,-0.85956 1.01015,-1.01015 0.93415,-0.31138 5.3954,0.33276 6.06092,0 0.85183,-0.42592 1.16847,-1.59439 2.0203,-2.0203 0.30117,-0.15059 0.67344,0 1.01016,0 0.67343,0 1.38142,0.21295 2.0203,0 0.45175,-0.15059 0.58424,-0.7972 1.01015,-1.01016 0.30117,-0.15058 0.67344,0 1.01016,0 0.33671,0 0.67343,0 1.01015,0 0.86704,0 5.4699,0.19701 6.06091,0 0.90351,-0.30117 1.16847,-1.59438 2.02031,-2.0203 0.30117,-0.15059 0.67343,0 1.01015,0 0.86705,0 5.4699,0.197 6.06092,0 0.45175,-0.15059 0.5584,-0.85957 1.01015,-1.01015 0.59102,-0.19701 5.19387,0 6.06091,0"
       id="path2995"
       inkscape:connector-curvature="0" />
    <path
       style="fill:none;stroke:#000000;stroke-width:1px;stroke-linecap:butt;stroke-linejoin:miter;stroke-opacity:1"
       d="m 711.14739,261.41274 c 1.34687,1.34687 2.57733,2.82121 4.04061,4.04061 0.57841,0.48201 1.39384,0.59251 2.02031,1.01015 0.79243,0.52829 1.34687,1.34687 2.0203,2.02031 1.01015,1.01015 2.02031,2.0203 3.03046,3.03046 0.53181,0.5318 2.7607,2.49095 3.03046,3.03045 0.15058,0.30117 -0.15059,0.70899 0,1.01016 0.21296,0.42591 0.85957,0.55839 1.01015,1.01015 0.0221,0.0663 0.0221,4.98443 0,5.05076 -0.15058,0.45175 -0.5584,0.85957 -1.01015,1.01015 -0.93415,0.31139 -5.3954,-0.33276 -6.06092,0 -2.49649,1.24825 0.34868,1.01016 -2.0203,1.01016 -1.01728,0 -5.50229,-0.18622 -6.06092,0 -0.45175,0.15058 -0.67343,0.67343 -1.01015,1.01015"
       id="path2997"
       inkscape:connector-curvature="0" />
    <text
       xml:space="preserve"
       style="font-size:10px;font-style:normal;font-weight:normal;line-height:125%;letter-spacing:0px;word-spacing:0px;fill:#000000;fill-opacity:1;stroke:none;font-family:Sans"
       x="695.99506"
       y="300.80869"
       id="text2999"
       sodipodi:linespacing="125%"><tspan
         sodipodi:role="line"
         id="tspan3001"
         x="695.99506"
         y="300.80869">Efectos de Audio</tspan><tspan
         sodipodi:role="line"
         x="695.99506"
         y="313.30869"
         id="tspan3003">Balance - gamma - saturación - contraste -brillo</tspan><tspan
         sodipodi:role="line"
         x="695.99506"
         y="325.80869"
         id="tspan3005">Efectos de video</tspan></text>
    <rect
       style="fill:#ffe4b5;fill-opacity:1;stroke:#000000;stroke-width:1.39999998000000003;stroke-miterlimit:4;stroke-opacity:1;stroke-dasharray:none"
       id="rect3007"
       width="462.64987"
       height="34.345188"
       x="73.741135"
       y="529.10315" />
    <path
       style="fill:none;stroke:#000000;stroke-width:1px;stroke-linecap:butt;stroke-linejoin:miter;stroke-opacity:1"
       d="m 94.954339,550.31637 c -5.132725,6.84363 -0.507736,2.27417 -6.060915,5.05076 -0.425918,0.21296 -0.673435,0.67344 -1.010153,1.01015 -0.673435,0.67344 -1.34687,1.34687 -2.020305,2.02031 -1.34687,1.34687 -2.69374,2.69374 -4.04061,4.04061 -0.673435,0.67343 -1.492019,1.22787 -2.020305,2.0203 -0.186777,0.28017 0.150585,0.70899 0,1.01016 -0.212959,0.42591 -0.797194,0.58423 -1.010152,1.01015 -0.150585,0.30117 0.150584,0.70898 0,1.01015 -0.447669,0.89534 -2.41742,2.1109 -3.030458,3.03046 -0.417647,0.62647 -0.558399,1.41796 -1.010153,2.0203 -1.055497,1.40733 -2.766198,2.7662 -4.04061,4.04061 -0.336717,0.33672 -0.797194,0.58424 -1.010152,1.01016 -0.476191,0.95238 -0.533962,2.07807 -1.010153,3.03045 -0.212959,0.42592 -0.797194,0.58424 -1.010152,1.01016 -1.145264,2.29052 1.145263,-0.27022 0,2.0203 -0.212959,0.42592 -0.797194,0.58424 -1.010153,1.01015 -0.301169,0.60234 0.163332,1.36698 0,2.02031 -2.551547,10.20619 0.36476,-0.72952 -2.020305,4.04061 -0.113203,0.22641 0,3.80057 0,4.04061 0,1.01728 -0.186211,5.50228 0,6.06091 0.150585,0.45176 0.673435,0.67344 1.010152,1.01016 0.336718,0.33671 0.584235,0.79719 1.010153,1.01015 0.301169,0.15058 0.673435,0 1.010153,0 0.673435,0 1.34687,0 2.020305,0"
       id="path3009"
       inkscape:connector-curvature="0" />
    <path
       style="fill:none;stroke:#000000;stroke-width:1px;stroke-linecap:butt;stroke-linejoin:miter;stroke-opacity:1"
       d="m 75.761441,592.74277 c 0,6.06092 0,12.12184 0,18.18275 0,0.67344 0.673435,2.02031 0,2.02031 -0.673435,0 0.47619,-2.4965 0,-2.02031 -0.752923,0.75292 -0.419511,2.1445 -1.010153,3.03046 -0.186777,0.28016 -0.673435,0 -1.010152,0 -0.563824,0 -4.588352,0.15414 -5.050763,0 -0.684025,-0.22801 -2.258813,-2.64464 -3.030458,-3.03046 -0.301169,-0.15058 -0.708983,0.15058 -1.010152,0 -2.299251,-2.29925 0.209209,-0.26698 -2.020305,-1.01015 -7.316956,-2.43899 1.592614,0.29123 -3.030458,-2.02031 -0.301169,-0.15058 -0.673435,0 -1.010152,0 -0.673435,0 -1.381429,0.21296 -2.020305,0 -4.45903,-1.48634 3.67005,-1.01015 -3.030458,-1.01015"
       id="path3011"
       inkscape:connector-curvature="0" />
    <text
       xml:space="preserve"
       style="font-size:10px;font-style:normal;font-weight:normal;line-height:125%;letter-spacing:0px;word-spacing:0px;fill:#000000;fill-opacity:1;stroke:none;font-family:Sans"
       x="95.964493"
       y="616.98645"
       id="text3013"
       sodipodi:linespacing="125%"><tspan
         sodipodi:role="line"
         id="tspan3015"
         x="95.964493"
         y="616.98645">Efectos que se aplican</tspan></text>
  </g>
</svg>
