<?xml version="1.0" encoding="UTF-8" standalone="no"?>
<!-- Generator: Adobe Illustrator 16.0.0, SVG Export Plug-In . SVG Version: 6.00 Build 0)  -->

<svg
   xmlns:dc="http://purl.org/dc/elements/1.1/"
   xmlns:cc="http://creativecommons.org/ns#"
   xmlns:rdf="http://www.w3.org/1999/02/22-rdf-syntax-ns#"
   xmlns:svg="http://www.w3.org/2000/svg"
   xmlns="http://www.w3.org/2000/svg"
   xmlns:sodipodi="http://sodipodi.sourceforge.net/DTD/sodipodi-0.dtd"
   xmlns:inkscape="http://www.inkscape.org/namespaces/inkscape"
   version="1.1"
   id="Layer_1"
   x="0px"
   y="0px"
   width="50"
   height="50"
   viewBox="0 0 50 50"
   enable-background="new 0 0 512 512"
   xml:space="preserve"
   inkscape:version="0.48.5 r10040"
   sodipodi:docname="Zoomout.svg"><metadata
     id="metadata3457"><rdf:RDF><cc:Work
         rdf:about=""><dc:format>image/svg+xml</dc:format><dc:type
           rdf:resource="http://purl.org/dc/dcmitype/StillImage" /><dc:title /></cc:Work></rdf:RDF></metadata><defs
     id="defs3455" /><sodipodi:namedview
     pagecolor="#ffffff"
     bordercolor="#666666"
     borderopacity="1"
     objecttolerance="10"
     gridtolerance="10"
     guidetolerance="10"
     inkscape:pageopacity="0"
     inkscape:pageshadow="2"
     inkscape:window-width="1366"
     inkscape:window-height="713"
     id="namedview3453"
     showgrid="false"
     fit-margin-top="0"
     fit-margin-left="0"
     fit-margin-right="0"
     fit-margin-bottom="0"
     inkscape:zoom="3.6875"
     inkscape:cx="-37.089957"
     inkscape:cy="-0.2448879"
     inkscape:window-x="0"
     inkscape:window-y="27"
     inkscape:window-maximized="1"
     inkscape:current-layer="Layer_1" /><path
     style="fill:#000000;fill-opacity:1;fill-rule:evenodd;stroke:none"
     d="M 20.588368,0.02715779 C 5.2247755,0.03301856 -5.2947065,18.902699 2.604574,31.899838 c 5.7077404,11.613737 22.256812,14.957269 32.160055,6.999757 4.464681,3.053721 7.271512,10.04825 12.646448,11.077286 4.83387,-1.011033 1.713329,-6.936303 -1.445151,-8.206355 C 42.742885,38.203028 36.718719,35.238792 41.325824,30.67658 48.234793,16.454469 36.631815,-1.0843251 20.588368,0.02715779 z M 21.642239,2.4396954 C 35.271117,1.8826826 45.394603,17.985103 38.946116,29.996992 33.497934,42.718356 13.998006,44.61984 6.2421277,33.089117 -2.5611964,22.322178 4.8898743,4.166377 18.718597,2.6775513 19.673892,2.494699 20.666428,2.4675906 21.642239,2.4396954 z M 13.619223,22.861317 C 17.775038,22.065609 31.87803,24.949078 28.611384,20.4148 24.513635,21.747186 13.541506,17.559713 13.619223,22.861317 z"
     id="path3451"
     inkscape:connector-curvature="0" /></svg>