<?xml version="1.0" encoding="UTF-8" standalone="no"?>
<!-- Created with Inkscape (http://www.inkscape.org/) -->

<svg
   xmlns:dc="http://purl.org/dc/elements/1.1/"
   xmlns:cc="http://creativecommons.org/ns#"
   xmlns:rdf="http://www.w3.org/1999/02/22-rdf-syntax-ns#"
   xmlns:svg="http://www.w3.org/2000/svg"
   xmlns="http://www.w3.org/2000/svg"
   xmlns:sodipodi="http://sodipodi.sourceforge.net/DTD/sodipodi-0.dtd"
   xmlns:inkscape="http://www.inkscape.org/namespaces/inkscape"
   version="1.1"
   width="55"
   height="55"
   id="svg2"
   inkscape:version="0.48.4 r9939"
   sodipodi:docname="JAMediaTube.svg">
  <metadata
     id="metadata29">
    <rdf:RDF>
      <cc:Work
         rdf:about="">
        <dc:format>image/svg+xml</dc:format>
        <dc:type
           rdf:resource="http://purl.org/dc/dcmitype/StillImage" />
        <dc:title />
      </cc:Work>
    </rdf:RDF>
  </metadata>
  <sodipodi:namedview
     pagecolor="#ffffff"
     bordercolor="#666666"
     borderopacity="1"
     objecttolerance="10"
     gridtolerance="10"
     guidetolerance="10"
     inkscape:pageopacity="0"
     inkscape:pageshadow="2"
     inkscape:window-width="1366"
     inkscape:window-height="713"
     id="namedview27"
     showgrid="false"
     inkscape:zoom="6.2"
     inkscape:cx="18.823209"
     inkscape:cy="33.694957"
     inkscape:window-x="0"
     inkscape:window-y="27"
     inkscape:window-maximized="1"
     inkscape:current-layer="g3033" />
  <defs
     id="defs4" />
  <g
     id="g3033"
     transform="translate(0.4214857,1.255719)">
    <text
       sodipodi:linespacing="125%"
       id="text3004"
       y="43.278309"
       x="4.0347538"
       style="font-size:21.17315673999999959px;font-style:normal;font-weight:normal;line-height:125%;letter-spacing:0px;word-spacing:0px;fill:#ffffff;fill-opacity:1;stroke:none;font-family:Sans"
       xml:space="preserve"><tspan
         style="font-size:21.17315673999999959px;font-style:normal;font-variant:normal;font-weight:normal;font-stretch:normal;text-align:start;line-height:125%;writing-mode:lr-tb;text-anchor:start;fill:#ffffff;font-family:Bitstream Charter;-inkscape-font-specification:Bitstream Charter"
         y="43.278309"
         x="4.0347538"
         id="tspan3006"
         sodipodi:role="line">Tube</tspan></text>
    <g
       transform="translate(0.00720069,0)"
       id="g3008">
      <path
         d="m 17.64437,10.700511 2.845293,6.350936 -5.373214,-1.013658 4.99383,7.762509 c 0.76812,2.039933 0.551353,4.896965 -3.346586,6.490362 -1.733549,0.52195 -4.572289,1.314721 -6.6705,-1.382575 l -1.5545681,-2.385097 3.3795271,-1.460456 0.388844,1.099339 c 0.516048,1.161807 1.622418,0.953698 2.04931,0.222885 0.398828,-0.682771 0.130707,-1.453339 -0.352865,-2.427502 L 10.955737,17.817607 5.8606545,21.884774 3.87961,16.588629 17.64437,10.700511 z"
         id="path2816-5"
         style="fill:#000000;fill-opacity:0.32116789;stroke:none"
         inkscape:connector-curvature="0" />
      <path
         d="m 18.319102,9.4090961 2.845296,6.3509359 -5.373216,-1.013658 4.99383,7.762509 c 0.76812,2.039932 0.551354,4.896965 -3.346585,6.490362 -1.73355,0.52195 -4.572288,1.314721 -6.6705,-1.382575 l -1.5545684,-2.385097 3.3795264,-1.460455 0.388844,1.099338 c 0.516048,1.161806 1.622419,0.953698 2.04931,0.222884 0.398829,-0.682771 0.130708,-1.453338 -0.352863,-2.427501 L 11.630471,16.526192 6.5353882,20.593359 4.5543437,15.297213 18.319102,9.4090961 z"
         id="path2816"
         style="fill:#ff6600;stroke:#000000;stroke-width:1.02417004;stroke-linecap:butt;stroke-linejoin:miter;stroke-miterlimit:4;stroke-opacity:1;stroke-dasharray:none"
         inkscape:connector-curvature="0" />
      <path
         d="m 22.791029,10.64073 -8.429307,14.519249 6.384689,1.283934 1.833979,-6.494845 2.219531,0.658713 0.289536,7.399182 7.088063,1.560073 -3.460297,-17.354324 -5.926194,-1.571982 z m 2.130214,4.613977 -0.06178,2.04164 -0.77557,-0.639362 0.837348,-1.402278 z"
         id="path2818-6"
         style="fill:#000000;fill-opacity:0.32116789;stroke:none"
         inkscape:connector-curvature="0" />
      <path
         d="m 23.465764,9.3493151 -8.429307,14.5192489 6.384688,1.283934 1.833979,-6.494846 2.219531,0.658714 0.289537,7.399182 7.088061,1.560073 -3.460296,-17.354324 -5.926193,-1.5719819 z m 2.130214,4.6139759 -0.06178,2.041641 -0.775571,-0.639361 0.837349,-1.40228 z"
         id="path2818"
         style="fill:#ff6600;stroke:#000000;stroke-width:1.02417004;stroke-linecap:butt;stroke-linejoin:miter;stroke-miterlimit:4;stroke-opacity:1;stroke-dasharray:none"
         inkscape:connector-curvature="0" />
      <path
         d="m 33.802683,10.3567 4.093717,2.436763 -0.05656,3.080628 2.607344,-1.51251 3.596688,0.126603 -1.589516,17.217958 -8.150858,-0.220821 3.9797,-11.594958 -3.673212,1.107646 -0.808756,-4.011995 -7.117938,10.168411 -3.993816,-4.697629 11.1132,-12.100096 z"
         id="path2820-7"
         style="fill:#000000;fill-opacity:0.32116789;stroke:none"
         inkscape:connector-curvature="0" />
      <path
         d="m 34.810867,9.3510989 4.093717,2.4367641 -0.05656,3.080628 2.607343,-1.51251 3.596689,0.126603 -1.589518,17.217958 -8.150857,-0.220821 3.979701,-11.594959 -3.673212,1.107647 -0.808754,-4.011995 -7.117939,10.168411 -3.993815,-4.697629 11.1132,-12.1000971 z"
         id="path2820"
         style="fill:#ff6600;stroke:#000000;stroke-width:1.02417004;stroke-linecap:butt;stroke-linejoin:miter;stroke-miterlimit:4;stroke-opacity:1;stroke-dasharray:none"
         inkscape:connector-curvature="0" />
      <text
         x="18.395258"
         y="28.716469"
         transform="scale(0.90999577,1.0989062)"
         id="text2822-1"
         xml:space="preserve"
         style="font-size:14.62968159px;font-style:normal;font-weight:normal;fill:#000000;fill-opacity:0.32116789;stroke:none;font-family:Bitstream Vera Sans"><tspan
           x="18.395258"
           y="28.716469"
           id="tspan2824-4"
           style="font-weight:bold;fill:#000000;fill-opacity:0.32116789;stroke:none;-inkscape-font-specification:AlArabiya Bold">edi</tspan></text>
      <text
         x="19.084381"
         y="28.061474"
         transform="scale(0.90999577,1.0989062)"
         id="text2822"
         xml:space="preserve"
         style="font-size:14.62968159px;font-style:normal;font-weight:normal;fill:#00ff00;fill-opacity:1;stroke:#000000;stroke-width:0.66213787;stroke-miterlimit:4;stroke-opacity:1;stroke-dasharray:none;font-family:Bitstream Vera Sans"><tspan
           x="19.084381"
           y="28.061474"
           id="tspan2824"
           style="font-weight:bold;fill:#00ff00;stroke:#000000;stroke-width:0.66213787;stroke-miterlimit:4;stroke-opacity:1;stroke-dasharray:none;-inkscape-font-specification:AlArabiya Bold"><tspan
             style="fill:#00ff00;stroke-width:0.66213787"
             id="tspan3825">e</tspan><tspan
             id="tspan3831"
             style="fill:#00ff00;stroke-width:0.66213787">d</tspan><tspan
             style="fill:#00ff00;stroke-width:0.66213787"
             id="tspan3833">i</tspan></tspan></text>
      <g
         id="g3861"
         transform="matrix(0.0238179,0,0,0.0238179,5.6499675,10.926507)">
        <path
           d="m 1772.8028,865.33376 81.2745,-2.0831 -4.1679,-31.2598 -33.3434,-20.8395 -2.0841,-395.9532 c 0,0 -41.6791,-27.09119 -43.7632,6.2517 -2.0839,33.3441 0,81.2747 0,81.2747 l -197.9764,2.0843 c -17.4917,6.4544 -30.6012,15.5381 -29.1755,33.3429 l 0.084,31.2598 -95.9463,2.0843 c -11.831,12.4926 -20.2906,26.6709 -2.0839,54.1823 l 89.6103,0 2.084,200.061 -20.8396,6.2517 0,35.4272 72.9387,0 0,-91.6939 181.4727,-2.0843 1.916,91.6939 z"
           id="path3761-8"
           style="fill:#000000;fill-opacity:0.35036495;stroke:#000000;stroke-width:0;stroke-linecap:butt;stroke-linejoin:miter;stroke-miterlimit:4;stroke-opacity:1;stroke-dasharray:none"
           inkscape:connector-curvature="0" />
        <path
           d="m 1703.3766,456.64166 c 0,0 -9.7645,-93.54274 84.0139,-116.46533 38.064,-28.63805 -56.633,-56.60839 -93.7784,-35.42837 -48.6708,27.75176 -48.8757,56.80478 -47.9311,56.26783 -17.5891,35.59336 0.7014,84.72747 57.6956,95.62587 z"
           id="path3789-5"
           style="fill:#000000;fill-opacity:0.35036495;stroke:#000000;stroke-width:0;stroke-linecap:butt;stroke-linejoin:miter;stroke-miterlimit:4;stroke-opacity:1;stroke-dasharray:none"
           inkscape:connector-curvature="0" />
        <path
           d="m 1578.7586,433.41706 c 0,0 48.1668,-22.3863 29.411,-70.31698 -18.7556,-47.93181 -68.7706,-37.51149 -68.7706,-37.51149 0,0 -49.2071,11.39793 -45.8473,41.67892 37.7469,-16.3034 60.435,18.75633 60.435,18.75633 l 24.7719,47.39322 z"
           id="path3791-5"
           style="fill:#000000;fill-opacity:0.35036495;stroke:#000000;stroke-width:0;stroke-linecap:butt;stroke-linejoin:miter;stroke-miterlimit:4;stroke-opacity:1;stroke-dasharray:none"
           inkscape:connector-curvature="0" />
      </g>
      <path
         inkscape:connector-curvature="0"
         style="fill:#00ff00;fill-opacity:1;stroke:#000000;stroke-width:0.05559191;stroke-linecap:butt;stroke-linejoin:miter;stroke-miterlimit:4;stroke-opacity:1;stroke-dasharray:none"
         id="path3761"
         d="m 48.103441,31.061094 1.935787,-0.04962 -0.09927,-0.744542 -0.794169,-0.496353 -0.04964,-9.430778 c 0,0 -0.99271,-0.645254 -1.042349,0.148904 -0.04964,0.794186 0,1.935793 0,1.935793 l -4.715383,0.04965 c -0.416618,0.153728 -0.728856,0.370084 -0.694899,0.794158 l 0.002,0.744543 -2.285239,0.04964 c -0.281791,0.297547 -0.483279,0.635246 -0.04964,1.29051 l 2.13433,0 0.04964,4.765033 -0.496355,0.148904 0,0.843801 1.737246,0 0,-2.183956 4.322301,-0.04965 0.04564,2.183955 z" />
      <path
         inkscape:connector-curvature="0"
         style="fill:#000000;fill-opacity:1;stroke:none"
         id="path3763"
         d="m 47.368832,24.534032 a 0.47153904,0.52117475 0 0 1 -0.943078,0 0.47153904,0.52117475 0 1 1 0.943078,0 z" />
      <path
         inkscape:connector-curvature="0"
         style="fill:#000000;fill-opacity:1;stroke:none"
         id="path3763-9"
         d="m 45.408225,24.75739 a 0.47153885,0.52117454 0 0 1 -0.943077,0 0.47153885,0.52117454 0 1 1 0.943077,0 z" />
      <path
         inkscape:connector-curvature="0"
         style="fill:#ffffff;stroke:#000000;stroke-width:0.08338787;stroke-linecap:butt;stroke-linejoin:miter;stroke-miterlimit:4;stroke-opacity:1;stroke-dasharray:none"
         id="path3787"
         d="m 44.23186,26.345705 c 0.166814,0.507165 0.347257,1.01205 1.290526,1.389798 1.405434,-0.06649 1.586746,-0.577836 1.836518,-1.029548 l 0.09927,-1.005505 c -1.064313,0.742723 -1.644747,1.062695 -2.928501,0.397093 l -0.297813,0.248162 z" />
      <path
         inkscape:connector-curvature="0"
         style="fill:#ff6600;fill-opacity:1;stroke:#000000;stroke-width:0.08338787;stroke-linecap:butt;stroke-linejoin:miter;stroke-miterlimit:4;stroke-opacity:1;stroke-dasharray:none"
         id="path3789"
         d="m 46.449855,21.326903 c 0,0 -0.232569,-2.227992 2.001035,-2.773961 0.906605,-0.682098 -1.348881,-1.348293 -2.233604,-0.843829 -1.159237,0.660988 -1.164118,1.352972 -1.14162,1.340182 -0.418936,0.847759 0.0167,2.01803 1.374189,2.277608 z" />
      <path
         inkscape:connector-curvature="0"
         style="fill:#00ff00;fill-opacity:1;stroke:#000000;stroke-width:0.04763582;stroke-linecap:butt;stroke-linejoin:miter;stroke-miterlimit:4;stroke-opacity:1;stroke-dasharray:none"
         id="path3791"
         d="m 43.481715,20.773741 c 0,0 1.147232,-0.533195 0.700509,-1.674802 -0.44672,-1.141636 -1.637974,-0.893445 -1.637974,-0.893445 0,0 -1.172009,0.271474 -1.091986,0.992704 0.899052,-0.388313 1.439436,0.446737 1.439436,0.446737 l 0.590015,1.128806 z" />
    </g>
  </g>
</svg>
