<?xml version="1.0" encoding="UTF-8" standalone="no"?>
<svg
   xmlns:dc="http://purl.org/dc/elements/1.1/"
   xmlns:cc="http://creativecommons.org/ns#"
   xmlns:rdf="http://www.w3.org/1999/02/22-rdf-syntax-ns#"
   xmlns:svg="http://www.w3.org/2000/svg"
   xmlns="http://www.w3.org/2000/svg"
   xmlns:sodipodi="http://sodipodi.sourceforge.net/DTD/sodipodi-0.dtd"
   xmlns:inkscape="http://www.inkscape.org/namespaces/inkscape"
   enable-background="new 0 0 55 55"
   height="50"
   version="1.1"
   viewBox="0 0 50 50"
   width="50"
   x="0px"
   xml:space="preserve"
   y="0px"
   id="svg2"
   inkscape:version="0.48.3.1 r9886"
   sodipodi:docname="camara.svg"><metadata
     id="metadata17"><rdf:RDF><cc:Work
         rdf:about=""><dc:format>image/svg+xml</dc:format><dc:type
           rdf:resource="http://purl.org/dc/dcmitype/StillImage" /><dc:title></dc:title></cc:Work></rdf:RDF></metadata><defs
     id="defs15">
	
		
	
</defs><sodipodi:namedview
     pagecolor="#ffffff"
     bordercolor="#666666"
     borderopacity="1"
     objecttolerance="10"
     gridtolerance="10"
     guidetolerance="10"
     inkscape:pageopacity="0"
     inkscape:pageshadow="2"
     inkscape:window-width="1366"
     inkscape:window-height="712"
     id="namedview13"
     showgrid="false"
     inkscape:zoom="4.2909091"
     inkscape:cx="27.5"
     inkscape:cy="27.5"
     inkscape:window-x="0"
     inkscape:window-y="27"
     inkscape:window-maximized="1"
     inkscape:current-layer="svg2" /><g
     id="g3440"
     transform="matrix(0.38880747,0,0,0.38880747,-11.437718,17.803969)"><path
       inkscape:export-ydpi="32.776936"
       inkscape:export-xdpi="32.776936"
       inkscape:export-filename="/home/flavio/Documentos/GIT_Software/JAMedia-9/Iconos/camara.png"
       d="m 324.28572,356.64789 c 0,32.34811 -26.22332,58.57143 -58.57143,58.57143 -32.3481,0 -58.57143,-26.22332 -58.57143,-58.57143 0,-32.34811 26.22333,-58.57143 58.57143,-58.57143 32.34811,0 58.57143,26.22332 58.57143,58.57143 z"
       sodipodi:ry="58.57143"
       sodipodi:rx="58.57143"
       sodipodi:cy="356.64789"
       sodipodi:cx="265.71429"
       id="path2985-61-4-4"
       style="fill:#ff6600;fill-opacity:1;stroke:#000000;stroke-width:6.4000001;stroke-miterlimit:4;stroke-dasharray:none"
       sodipodi:type="arc"
       transform="translate(-171.56175,-338.57585)" /><path
       inkscape:export-ydpi="32"
       inkscape:export-xdpi="32"
       inkscape:export-filename="/home/flavio/Documentos/GIT_Software/JAMedia-9/Iconos/camara.png"
       inkscape:connector-curvature="0"
       id="rect3827"
       d="m 52.527524,-3.4123522 c -0.48936,0 -0.875,0.4169 -0.875,0.9063 l 0,41.1875002 c 0,0.4893 0.38564,0.875 0.875,0.875 l 58.156256,0 c 0.48936,0 0.875,-0.3857 0.875,-0.875 l 0,-19.375 25.09376,12.4687 0,-14.875 0,-14.8750002 -25.09376,12.4688002 0,-17.0000002 c 0,-0.4894 -0.38564,-0.9063 -0.875,-0.9063 l -58.156256,0 z"
       style="fill:#ffffff;fill-opacity:1;stroke:#000000;stroke-width:6;stroke-miterlimit:4;stroke-opacity:1;stroke-dasharray:none" /></g></svg>