<?xml version="1.0" encoding="UTF-8" standalone="no"?>
<!-- Created with Inkscape (http://www.inkscape.org/) -->

<svg
   xmlns:dc="http://purl.org/dc/elements/1.1/"
   xmlns:cc="http://creativecommons.org/ns#"
   xmlns:rdf="http://www.w3.org/1999/02/22-rdf-syntax-ns#"
   xmlns:svg="http://www.w3.org/2000/svg"
   xmlns="http://www.w3.org/2000/svg"
   xmlns:sodipodi="http://sodipodi.sourceforge.net/DTD/sodipodi-0.dtd"
   xmlns:inkscape="http://www.inkscape.org/namespaces/inkscape"
   version="1.1"
   width="55"
   height="55"
   id="svg2"
   inkscape:version="0.48.5 r10040"
   sodipodi:docname="JAMedia.svg">
  <metadata
     id="metadata29">
    <rdf:RDF>
      <cc:Work
         rdf:about="">
        <dc:format>image/svg+xml</dc:format>
        <dc:type
           rdf:resource="http://purl.org/dc/dcmitype/StillImage" />
      </cc:Work>
    </rdf:RDF>
  </metadata>
  <sodipodi:namedview
     pagecolor="#ffffff"
     bordercolor="#666666"
     borderopacity="1"
     objecttolerance="10"
     gridtolerance="10"
     guidetolerance="10"
     inkscape:pageopacity="0"
     inkscape:pageshadow="2"
     inkscape:window-width="1366"
     inkscape:window-height="706"
     id="namedview27"
     showgrid="false"
     inkscape:zoom="8.7681241"
     inkscape:cx="20.212492"
     inkscape:cy="32.512022"
     inkscape:window-x="0"
     inkscape:window-y="27"
     inkscape:window-maximized="1"
     inkscape:current-layer="svg2" />
  <defs
     id="defs4" />
  <path
     d="m 18.797615,16.46458 2.872603,6.411888 -5.424779,-1.023386 5.041749,7.837001 c 0.775493,2.059517 0.556655,4.943979 -3.378704,6.552667 -1.750178,0.526954 -4.616157,1.327326 -6.734514,-1.395848 l -1.569487,-2.407989 3.411968,-1.47447 0.392563,1.10988 c 0.521001,1.172956 1.637992,0.962853 2.068991,0.225021 0.402656,-0.689315 0.131953,-1.467277 -0.356259,-2.450798 L 12.044801,23.649977 6.9008104,27.75618 4.9007538,22.409212 18.797615,16.46458 z"
     id="path2816"
     style="fill:#ff6600;stroke:#000000;stroke-width:1.03400004000000001;stroke-linecap:butt;stroke-linejoin:miter;stroke-miterlimit:4;stroke-opacity:1;stroke-dasharray:none"
     inkscape:connector-curvature="0" />
  <path
     d="m 23.993679,16.404222 -8.51021,14.658604 6.44596,1.296246 1.851583,-6.55717 2.240838,0.665033 0.292309,7.470192 7.156092,1.575041 -3.493511,-17.520874 -5.983061,-1.587072 z m 2.150657,4.658259 -0.06245,2.061235 -0.783018,-0.645494 0.845386,-1.415741 z"
     id="path2818"
     style="fill:#ff6600;stroke:#000000;stroke-width:1.03400004000000001;stroke-linecap:butt;stroke-linejoin:miter;stroke-miterlimit:4;stroke-opacity:1;stroke-dasharray:none"
     inkscape:connector-curvature="0" />
  <path
     d="m 35.447664,16.40602 4.133001,2.460151 -0.05715,3.110197 2.632364,-1.527026 3.631208,0.127824 -1.604768,17.383202 -8.229084,-0.222948 4.017896,-11.706229 -3.708463,1.118274 -0.816515,-4.0505 L 28.259899,33.36497 24.227754,28.622258 35.447619,16.40602 z"
     id="path2820"
     style="fill:#ff6600;stroke:#000000;stroke-width:1.03400004000000001;stroke-linecap:butt;stroke-linejoin:miter;stroke-miterlimit:4;stroke-opacity:1;stroke-dasharray:none"
     inkscape:connector-curvature="0" />
  <text
     x="19.600178"
     y="34.669106"
     transform="scale(0.90999577,1.0989062)"
     id="text2822"
     xml:space="preserve"
     style="font-size:14.77009295999999949px;font-style:normal;font-weight:normal;fill:#00ff00;fill-opacity:1;stroke:none;stroke-width:0.66800000000000004;stroke-miterlimit:4;stroke-opacity:1;stroke-dasharray:none;font-family:Bitstream Vera Sans"><tspan
       x="19.600178"
       y="34.669106"
       id="tspan2824"
       style="font-weight:bold;fill:#00ff00;stroke:none;stroke-width:0.66800000000000004;stroke-miterlimit:4;stroke-opacity:1;stroke-dasharray:none;-inkscape-font-specification:AlArabiya Bold"><tspan
         style="fill:#00ff00;stroke-width:0.66800000000000004;stroke-miterlimit:4;stroke-dasharray:none;stroke:none"
         id="tspan3825">e</tspan><tspan
         id="tspan3831"
         style="fill:#00ff00;stroke-width:0.66800000000000004;stroke-miterlimit:4;stroke-dasharray:none;stroke:none">d</tspan><tspan
         style="fill:#00ff00;stroke-width:0.66800000000000004;stroke-miterlimit:4;stroke-dasharray:none;stroke:none"
         id="tspan3833">i</tspan></tspan></text>
  <path
     inkscape:connector-curvature="0"
     style="fill:#00ff00;fill-opacity:1;stroke:none;stroke-width:0.66800000000000004;stroke-linecap:butt;stroke-linejoin:miter;stroke-miterlimit:4;stroke-opacity:1;stroke-dasharray:none"
     id="path3761"
     d="m 48.867811,38.324383 1.954366,-0.05005 -0.100223,-0.751688 -0.801791,-0.501102 -0.05008,-9.521304 c 0,0 -1.002239,-0.651445 -1.052354,0.150344 -0.05006,0.801798 0,1.954365 0,1.954365 l -4.760637,0.05007 c -0.420618,0.155202 -0.735851,0.373634 -0.70157,0.801773 l 0.0021,0.751687 -2.307173,0.05007 c -0.284494,0.300394 -0.487917,0.641335 -0.05006,1.30289 l 2.154815,0 0.05006,4.810764 -0.50112,0.150326 0,0.8519 1.753919,0 0,-2.204904 4.363784,-0.05007 0.04605,2.204922 z" />
  <path
     inkscape:connector-curvature="0"
     style="fill:#000000;fill-opacity:1;stroke:none"
     id="path3763"
     d="m 48.126149,31.734674 a 0.47606462,0.52617671 0 0 1 -0.952129,0 0.47606462,0.52617671 0 1 1 0.952129,0 z" />
  <path
     inkscape:connector-curvature="0"
     style="fill:#000000;fill-opacity:1;stroke:none"
     id="path3763-9"
     d="m 46.146726,31.960173 a 0.47606442,0.52617649 0 0 1 -0.952126,0 0.47606442,0.52617649 0 1 1 0.952126,0 z" />
  <path
     inkscape:connector-curvature="0"
     style="fill:#ffffff;stroke:#000000;stroke-width:0.668;stroke-linecap:butt;stroke-linejoin:miter;stroke-miterlimit:4;stroke-opacity:1;stroke-dasharray:none"
     id="path3787"
     d="m 44.959072,33.56373 c 0.168417,0.512044 0.35059,1.021774 1.302912,1.403134 1.418922,-0.06715 1.601974,-0.583378 1.854142,-1.039417 l 0.100224,-1.015162 c -1.074527,0.749852 -1.660532,1.072899 -2.956607,0.40091 l -0.300671,0.250535 z" />
  <path
     inkscape:connector-curvature="0"
     style="fill:#ff6600;fill-opacity:1;stroke:#000000;stroke-width:0.66800000000000004;stroke-linecap:butt;stroke-linejoin:miter;stroke-miterlimit:4;stroke-opacity:1;stroke-dasharray:none"
     id="path3789"
     d="m 47.198355,28.496767 c 0,0 -0.234802,-2.249369 2.020239,-2.800586 0.915306,-0.688645 -1.361827,-1.361236 -2.255041,-0.851925 -1.170364,0.667332 -1.175291,1.365954 -1.152576,1.35304 -0.422958,0.855901 0.01678,2.037395 1.387378,2.299471 z" />
  <path
     inkscape:connector-curvature="0"
     style="fill:#00ff00;fill-opacity:1;stroke:none;stroke-width:0.66800000000000004;stroke-linecap:butt;stroke-linejoin:miter;stroke-miterlimit:4;stroke-opacity:1;stroke-dasharray:none"
     id="path3791"
     d="m 44.201726,27.938289 c 0,0 1.158243,-0.53831 0.707234,-1.690865 -0.451008,-1.152594 -1.653695,-0.902028 -1.653695,-0.902028 0,0 -1.183259,0.274083 -1.102465,1.002238 0.907679,-0.392039 1.453249,0.451026 1.453249,0.451026 l 0.595677,1.139629 z" />
</svg>
