<?xml version="1.0" encoding="UTF-8" standalone="no"?>
<!-- Generator: Adobe Illustrator 15.0.0, SVG Export Plug-In . SVG Version: 6.00 Build 0)  -->

<svg
   xmlns:dc="http://purl.org/dc/elements/1.1/"
   xmlns:cc="http://creativecommons.org/ns#"
   xmlns:rdf="http://www.w3.org/1999/02/22-rdf-syntax-ns#"
   xmlns:svg="http://www.w3.org/2000/svg"
   xmlns="http://www.w3.org/2000/svg"
   xmlns:sodipodi="http://sodipodi.sourceforge.net/DTD/sodipodi-0.dtd"
   xmlns:inkscape="http://www.inkscape.org/namespaces/inkscape"
   version="1.1"
   id="Layer_1"
   x="0px"
   y="0px"
   width="50"
   height="44.311047"
   viewBox="0 0 50 44.311047"
   xml:space="preserve"
   inkscape:version="0.48.4 r9939"
   sodipodi:docname="13663756921550062462Music_Converter.svg"><metadata
     id="metadata3124"><rdf:RDF><cc:Work
         rdf:about=""><dc:format>image/svg+xml</dc:format><dc:type
           rdf:resource="http://purl.org/dc/dcmitype/StillImage" /><dc:title></dc:title></cc:Work></rdf:RDF></metadata><defs
     id="defs3122" /><sodipodi:namedview
     pagecolor="#ffffff"
     bordercolor="#666666"
     borderopacity="1"
     objecttolerance="10"
     gridtolerance="10"
     guidetolerance="10"
     inkscape:pageopacity="0"
     inkscape:pageshadow="2"
     inkscape:window-width="1366"
     inkscape:window-height="713"
     id="namedview3120"
     showgrid="false"
     fit-margin-top="0"
     fit-margin-left="0"
     fit-margin-right="0"
     fit-margin-bottom="0"
     inkscape:zoom="3.3712566"
     inkscape:cx="9.0511852"
     inkscape:cy="13.042243"
     inkscape:window-x="0"
     inkscape:window-y="27"
     inkscape:window-maximized="1"
     inkscape:current-layer="Layer_1" /><g
     id="g3946"
     style="fill:#ff6600;fill-opacity:1"><path
       inkscape:connector-curvature="0"
       id="path3106"
       d="m 35.285905,27.473469 v -15.34688 l 0.007,-0.0512 -0.007,0.001 v -0.001 l -0.0153,0.002 -14.93154,1.99968 h -0.001 v 12.12585 c -0.59128,-0.18952 -1.2562,-0.26513 -1.94903,-0.19742 -2.1939,0.21299 -3.83679,1.77508 -3.6705,3.48715 0.16679,1.7143 2.079,2.93121 4.2724,2.71822 2.19514,-0.21275 3.83802,-1.77434 3.67173,-3.48913 -0.004,-0.0296 0.004,-0.085 0.004,-0.085 v -10.51852 l 10.29122,-1.50303 v 8.42397 c -0.59079,-0.18902 -1.25521,-0.26587 -1.94928,-0.19866 -2.19389,0.21275 -3.83654,1.77558 -3.67123,3.48913 0.16752,1.71479 2.08023,2.93047 4.27289,2.71772 2.1939,-0.21422 3.83802,-1.77508 3.67049,-3.48863 -0.002,-0.0287 0.005,-0.0853 0.005,-0.0853 z"
       style="fill:#ff6600;fill-opacity:1" /><g
       transform="matrix(0.24708807,0,0,0.24708807,-50.254995,-59.758991)"
       id="g3108"
       style="fill:#ff6600;fill-opacity:1"><g
         id="g3110"
         style="fill:#ff6600;fill-opacity:1"><path
           inkscape:connector-curvature="0"
           id="path3112"
           d="m 233.292,305.384 c 10.721,-29.585 39.098,-50.782 72.338,-50.782 33.24,0 61.619,21.197 72.34,50.782 h 13.431 c -11.215,-36.732 -45.417,-63.531 -85.771,-63.531 -40.354,0 -74.554,26.799 -85.771,63.531 h 13.433 z"
           style="fill:#ff6600;fill-opacity:1" /><path
           inkscape:connector-curvature="0"
           id="path3114"
           d="m 377.97,357.654 c -10.721,29.585 -39.1,50.783 -72.34,50.783 -33.24,0 -61.618,-21.198 -72.338,-50.783 l -13.432,10e-4 c 11.216,36.731 45.417,63.53 85.771,63.531 40.354,-10e-4 74.556,-26.8 85.771,-63.531 l -13.432,-10e-4 z"
           style="fill:#ff6600;fill-opacity:1" /></g><polygon
         id="polygon3116"
         points="225.95,328.21 248.511,364.322 203.389,364.322 "
         style="fill:#ff6600;fill-opacity:1" /><polygon
         id="polygon3118"
         points="383.184,335.889 360.624,299.776 405.746,299.776 "
         style="fill:#ff6600;fill-opacity:1" /></g></g></svg>