<?xml version="1.0" encoding="UTF-8" standalone="no"?>
<svg
   xmlns:dc="http://purl.org/dc/elements/1.1/"
   xmlns:cc="http://creativecommons.org/ns#"
   xmlns:rdf="http://www.w3.org/1999/02/22-rdf-syntax-ns#"
   xmlns:svg="http://www.w3.org/2000/svg"
   xmlns="http://www.w3.org/2000/svg"
   xmlns:sodipodi="http://sodipodi.sourceforge.net/DTD/sodipodi-0.dtd"
   xmlns:inkscape="http://www.inkscape.org/namespaces/inkscape"
   enable-background="new 0 0 55 55"
   height="49.254436"
   version="1.1"
   viewBox="0 0 49.266899 49.254436"
   width="49.266899"
   x="0px"
   xml:space="preserve"
   y="0px"
   id="svg2"
   inkscape:version="0.48.4 r9939"
   sodipodi:docname="foto.svg"><metadata
     id="metadata17"><rdf:RDF><cc:Work
         rdf:about=""><dc:format>image/svg+xml</dc:format><dc:type
           rdf:resource="http://purl.org/dc/dcmitype/StillImage" /><dc:title /></cc:Work></rdf:RDF></metadata><defs
     id="defs15" /><sodipodi:namedview
     pagecolor="#ffffff"
     bordercolor="#666666"
     borderopacity="1"
     objecttolerance="10"
     gridtolerance="10"
     guidetolerance="10"
     inkscape:pageopacity="0"
     inkscape:pageshadow="2"
     inkscape:window-width="1366"
     inkscape:window-height="713"
     id="namedview13"
     showgrid="false"
     inkscape:zoom="4.2909091"
     inkscape:cx="26.962185"
     inkscape:cy="27.420927"
     inkscape:window-x="0"
     inkscape:window-y="27"
     inkscape:window-maximized="1"
     inkscape:current-layer="g3395"
     fit-margin-top="0"
     fit-margin-left="0"
     fit-margin-right="0"
     fit-margin-bottom="0" /><g
     id="g3395"
     transform="translate(-0.53781485,-0.66648859)"><path
       inkscape:export-ydpi="32.776936"
       inkscape:export-xdpi="32.776936"
       inkscape:export-filename="/home/flavio/Documentos/GIT_Software/JAMedia-9/Iconos/foto.png"
       d="m 324.28572,356.64789 c 0,32.34811 -26.22332,58.57143 -58.57143,58.57143 -32.3481,0 -58.57143,-26.22332 -58.57143,-58.57143 0,-32.34811 26.22333,-58.57143 58.57143,-58.57143 32.34811,0 58.57143,26.22332 58.57143,58.57143 z"
       sodipodi:ry="58.57143"
       sodipodi:rx="58.57143"
       sodipodi:cy="356.64789"
       sodipodi:cx="265.71429"
       id="path2985-61-4-9"
       style="fill:#ff6600;fill-opacity:1;stroke:#ff6600;stroke-width:6.4000001;stroke-miterlimit:4;stroke-opacity:1;stroke-dasharray:none"
       sodipodi:type="arc"
       transform="matrix(0.39872047,0,0,0.39872047,-80.776241,-116.90621)" /><path
       sodipodi:nodetypes="sssscsssscsssss"
       inkscape:export-ydpi="32.776936"
       inkscape:export-xdpi="32.776936"
       inkscape:export-filename="/home/flavio/Documentos/GIT_Software/JAMedia-7/Iconos/monitor.png"
       inkscape:connector-curvature="0"
       id="rect3936-4-9"
       d="m 11.182537,39.455576 c -0.210725,0 -0.383491,-0.15614 -0.383491,-0.346489 l 0,-22.102032 c 0,-0.19039 0.172766,-0.346488 0.383491,-0.346488 l 16.060579,0 0,-5.17639 c 0,-0.190388 0.172766,-0.346487 0.383529,-0.346487 l 7.844747,0 c 0.210723,0 0.371926,0.156099 0.371926,0.346487 l 0,5.17639 3.313088,0 c 0.210764,0 0.383529,0.156098 0.383529,0.346488 l 0,22.102032 c 0,0.190349 -0.172765,0.346489 -0.383529,0.346489 z"
       style="fill:#ffffff;fill-opacity:1;stroke:#000000;stroke-width:2.25102901;stroke-miterlimit:4;stroke-dasharray:none" /><path
       inkscape:export-ydpi="32.776936"
       inkscape:export-xdpi="32.776936"
       inkscape:export-filename="/home/flavio/Documentos/GIT_Software/JAMedia-9/Iconos/filmar.png"
       d="m 324.28572,356.64789 c 0,32.34811 -26.22332,58.57143 -58.57143,58.57143 -32.3481,0 -58.57143,-26.22332 -58.57143,-58.57143 0,-32.34811 26.22333,-58.57143 58.57143,-58.57143 32.34811,0 58.57143,26.22332 58.57143,58.57143 z"
       sodipodi:ry="58.57143"
       sodipodi:rx="58.57143"
       sodipodi:cy="356.64789"
       sodipodi:cx="265.71429"
       id="path2985-61-4-4-4-4-7"
       style="fill:#ff6600;fill-opacity:1;stroke:#000000;stroke-width:9.70134926;stroke-miterlimit:4;stroke-dasharray:none"
       sodipodi:type="arc"
       transform="matrix(0.09564376,0,0,0.09564376,-4.7144894,-8.8145227)" /></g></svg>