<?xml version="1.0" encoding="UTF-8" standalone="no"?>
<!-- Created with Inkscape (http://www.inkscape.org/) -->

<svg
   xmlns:dc="http://purl.org/dc/elements/1.1/"
   xmlns:cc="http://creativecommons.org/ns#"
   xmlns:rdf="http://www.w3.org/1999/02/22-rdf-syntax-ns#"
   xmlns:svg="http://www.w3.org/2000/svg"
   xmlns="http://www.w3.org/2000/svg"
   xmlns:sodipodi="http://sodipodi.sourceforge.net/DTD/sodipodi-0.dtd"
   xmlns:inkscape="http://www.inkscape.org/namespaces/inkscape"
   version="1.1"
   width="55"
   height="55"
   id="svg2"
   inkscape:version="0.48.1 r9760"
   sodipodi:docname="JAMediaImagenes.svg">
  <metadata
     id="metadata29">
    <rdf:RDF>
      <cc:Work
         rdf:about="">
        <dc:format>image/svg+xml</dc:format>
        <dc:type
           rdf:resource="http://purl.org/dc/dcmitype/StillImage" />
        <dc:title></dc:title>
      </cc:Work>
    </rdf:RDF>
  </metadata>
  <sodipodi:namedview
     pagecolor="#ffffff"
     bordercolor="#666666"
     borderopacity="1"
     objecttolerance="10"
     gridtolerance="10"
     guidetolerance="10"
     inkscape:pageopacity="0"
     inkscape:pageshadow="2"
     inkscape:window-width="1360"
     inkscape:window-height="715"
     id="namedview27"
     showgrid="false"
     inkscape:zoom="8.7681241"
     inkscape:cx="35.211694"
     inkscape:cy="28.641112"
     inkscape:window-x="0"
     inkscape:window-y="26"
     inkscape:window-maximized="1"
     inkscape:current-layer="svg2" />
  <defs
     id="defs4" />
  <path
     inkscape:connector-curvature="0"
     style="fill:#000000;fill-opacity:0.32116789;stroke:none"
     d="m 17.827413,15.329138 2.98701,6.667258 -5.640839,-1.064146 5.242558,8.149136 c 0.806378,2.141535 0.578817,5.140868 -3.513269,6.813627 -1.819891,0.547946 -4.80002,1.380204 -7.0027349,-1.451437 l -1.6319974,-2.503891 3.5478493,-1.533196 0.408212,1.154092 c 0.541751,1.219673 1.703225,1.001199 2.151381,0.233987 0.418693,-0.716779 0.137215,-1.525725 -0.37044,-2.548408 l -3.1995,-6.445445 -5.3488538,4.26974 -2.0797167,-5.559929 14.4503405,-6.181388 z"
     id="path2816-5"
     sodipodi:nodetypes="cccccccccsscccc"
     inkscape:export-filename="/home/flavio/Documentos/GIT_Software/JAMediaVideoEstudio/Iconos/JAMediaVideoEstudioUbuntu.png"
     inkscape:export-xdpi="3.0869229"
     inkscape:export-ydpi="3.0869229" />
  <path
     inkscape:connector-curvature="0"
     style="fill:#ff6600;stroke:#000000;stroke-width:1.07518077;stroke-linecap:butt;stroke-linejoin:miter;stroke-miterlimit:4;stroke-opacity:1;stroke-dasharray:none"
     d="m 18.535752,13.973401 2.987011,6.667258 -5.640836,-1.064145 5.242556,8.149135 c 0.806378,2.141536 0.578815,5.140869 -3.513269,6.813627 -1.819893,0.547945 -4.800019,1.380203 -7.002737,-1.451435 l -1.6319977,-2.503894 3.5478517,-1.533195 0.408211,1.154092 c 0.541752,1.219674 1.703225,1.001199 2.15138,0.233986 0.418693,-0.716777 0.137218,-1.525724 -0.37044,-2.548407 l -3.1995,-6.445444 -5.3488513,4.269739 -2.0797173,-5.559929 14.4503386,-6.181388 z"
     id="path2816"
     sodipodi:nodetypes="cccccccccsscccc"
     inkscape:export-filename="/home/flavio/Documentos/GIT_Software/JAMediaVideoEstudio/Iconos/JAMediaVideoEstudioUbuntu.png"
     inkscape:export-xdpi="3.0869229"
     inkscape:export-ydpi="3.0869229" />
  <path
     inkscape:connector-curvature="0"
     style="fill:#000000;fill-opacity:0.32116789;stroke:none"
     d="m 23.230413,15.266381 -8.849144,15.242407 6.70269,1.347883 1.925324,-6.818335 2.33008,0.691523 0.303955,7.767713 7.441097,1.637775 -3.632644,-18.218689 -6.221358,-1.650277 z m 2.236313,4.843783 -0.06485,2.143329 -0.814199,-0.671207 0.879052,-1.472122 z"
     id="path2818-6"
     sodipodi:nodetypes="ccccccccccccc"
     inkscape:export-filename="/home/flavio/Documentos/GIT_Software/JAMediaVideoEstudio/Iconos/JAMediaVideoEstudioUbuntu.png"
     inkscape:export-xdpi="3.0869229"
     inkscape:export-ydpi="3.0869229" />
  <path
     inkscape:connector-curvature="0"
     style="fill:#ff6600;stroke:#000000;stroke-width:1.07518077;stroke-linecap:butt;stroke-linejoin:miter;stroke-miterlimit:4;stroke-opacity:1;stroke-dasharray:none"
     d="m 23.938754,13.910643 -8.849146,15.242408 6.70269,1.347883 1.925323,-6.818334 2.33008,0.691523 0.303958,7.767713 7.441095,1.637775 -3.632644,-18.21869 -6.221356,-1.650278 z m 2.236313,4.843784 -0.06486,2.14333 -0.814199,-0.671207 0.879055,-1.472123 z"
     id="path2818"
     sodipodi:nodetypes="ccccccccccccc"
     inkscape:export-filename="/home/flavio/Documentos/GIT_Software/JAMediaVideoEstudio/Iconos/JAMediaVideoEstudioUbuntu.png"
     inkscape:export-xdpi="3.0869229"
     inkscape:export-ydpi="3.0869229" />
  <path
     inkscape:connector-curvature="0"
     style="fill:#000000;fill-opacity:0.32116789;stroke:none"
     d="m 34.790522,14.968203 4.297612,2.55813 -0.05937,3.234066 2.737208,-1.587843 3.775827,0.132908 -1.668684,18.075531 -8.556828,-0.231819 4.177918,-12.172467 -3.856163,1.162815 -0.849038,-4.211822 -7.472459,10.674869 -4.192736,-4.931603 11.666713,-12.702765 z"
     id="path2820-7"
     sodipodi:nodetypes="ccccccccccccc"
     inkscape:export-filename="/home/flavio/Documentos/GIT_Software/JAMediaVideoEstudio/Iconos/JAMediaVideoEstudioUbuntu.png"
     inkscape:export-xdpi="3.0869229"
     inkscape:export-ydpi="3.0869229" />
  <path
     inkscape:connector-curvature="0"
     style="fill:#ff6600;stroke:#000000;stroke-width:1.07518077;stroke-linecap:butt;stroke-linejoin:miter;stroke-miterlimit:4;stroke-opacity:1;stroke-dasharray:none"
     d="m 35.84892,13.912516 4.297612,2.558132 -0.05937,3.234064 2.737208,-1.587842 3.775828,0.132908 -1.668686,18.075532 -8.556828,-0.231819 4.177918,-12.172468 -3.856163,1.162814 -0.849038,-4.211821 -7.472459,10.67487 -4.192736,-4.931604 11.666713,-12.702766 z"
     id="path2820"
     sodipodi:nodetypes="ccccccccccccc"
     inkscape:export-filename="/home/flavio/Documentos/GIT_Software/JAMediaVideoEstudio/Iconos/JAMediaVideoEstudioUbuntu.png"
     inkscape:export-xdpi="3.0869229"
     inkscape:export-ydpi="3.0869229" />
  <text
     xml:space="preserve"
     style="font-size:15.35834122px;font-style:normal;font-weight:normal;fill:#000000;fill-opacity:0.32116789;stroke:none;font-family:Bitstream Vera Sans"
     x="18.546881"
     y="33.873787"
     id="text2822-1"
     transform="scale(0.9099957,1.0989063)"
     inkscape:export-filename="/home/flavio/Documentos/GIT_Software/JAMediaVideoEstudio/Iconos/JAMediaVideoEstudioUbuntu.png"
     inkscape:export-xdpi="3.0869229"
     inkscape:export-ydpi="3.0869229"><tspan
       sodipodi:role="line"
       id="tspan2824-4"
       x="18.546881"
       y="33.873787"
       style="font-weight:bold;fill:#000000;fill-opacity:0.32116789;stroke:none;-inkscape-font-specification:AlArabiya Bold">edi</tspan></text>
  <text
     xml:space="preserve"
     style="font-size:15.35834122px;font-style:normal;font-weight:normal;fill:#00ff00;fill-opacity:1;stroke:#000000;stroke-width:0.69511688;stroke-miterlimit:4;stroke-opacity:1;stroke-dasharray:none;font-family:Bitstream Vera Sans"
     x="19.270327"
     y="33.186169"
     id="text2822"
     transform="scale(0.9099957,1.0989063)"
     inkscape:export-filename="/home/flavio/Documentos/GIT_Software/JAMediaVideoEstudio/Iconos/JAMediaVideoEstudioUbuntu.png"
     inkscape:export-xdpi="3.0869229"
     inkscape:export-ydpi="3.0869229"><tspan
       sodipodi:role="line"
       id="tspan2824"
       x="19.270327"
       y="33.186169"
       style="font-weight:bold;fill:#00ff00;stroke:#000000;stroke-width:0.69511688;stroke-miterlimit:4;stroke-opacity:1;stroke-dasharray:none;-inkscape-font-specification:AlArabiya Bold">edi</tspan></text>
  <g
     transform="matrix(0.02500421,0,0,0.02500421,5.235607,15.566391)"
     id="g3861"
     inkscape:export-filename="/home/flavio/Documentos/GIT_Software/JAMediaVideoEstudio/Iconos/JAMediaVideoEstudioUbuntu.png"
     inkscape:export-xdpi="3.0869229"
     inkscape:export-ydpi="3.0869229">
    <path
       inkscape:connector-curvature="0"
       sodipodi:nodetypes="cccccscccccccccccccc"
       id="path3761-8"
       d="m 1772.8028,865.33376 81.2745,-2.0831 -4.1679,-31.2598 -33.3434,-20.8395 -2.0841,-395.9532 c 0,0 -41.6791,-27.09119 -43.7632,6.2517 -2.0839,33.3441 0,81.2747 0,81.2747 l -197.9764,2.0843 c -17.4917,6.4544 -30.6012,15.5381 -29.1755,33.3429 l 0.084,31.2598 -95.9463,2.0843 c -11.831,12.4926 -20.2906,26.6709 -2.0839,54.1823 l 89.6103,0 2.084,200.061 -20.8396,6.2517 0,35.4272 72.9387,0 0,-91.6939 181.4727,-2.0843 1.916,91.6939 z"
       style="fill:#000000;fill-opacity:0.35036495;stroke:#000000;stroke-width:0;stroke-linecap:butt;stroke-linejoin:miter;stroke-miterlimit:4;stroke-opacity:1;stroke-dasharray:none" />
    <path
       inkscape:connector-curvature="0"
       sodipodi:nodetypes="ccscc"
       id="path3789-5"
       d="m 1703.3766,456.64166 c 0,0 -9.7645,-93.54274 84.0139,-116.46533 38.064,-28.63805 -56.633,-56.60839 -93.7784,-35.42837 -48.6708,27.75176 -48.8757,56.80478 -47.9311,56.26783 -17.5891,35.59336 0.7014,84.72747 57.6956,95.62587 z"
       style="fill:#000000;fill-opacity:0.35036495;stroke:#000000;stroke-width:0;stroke-linecap:butt;stroke-linejoin:miter;stroke-miterlimit:4;stroke-opacity:1;stroke-dasharray:none" />
    <path
       inkscape:connector-curvature="0"
       sodipodi:nodetypes="cccccc"
       id="path3791-5"
       d="m 1578.7586,433.41706 c 0,0 48.1668,-22.3863 29.411,-70.31698 -18.7556,-47.93181 -68.7706,-37.51149 -68.7706,-37.51149 0,0 -49.2071,11.39793 -45.8473,41.67892 37.7469,-16.3034 60.435,18.75633 60.435,18.75633 l 24.7719,47.39322 z"
       style="fill:#000000;fill-opacity:0.35036495;stroke:#000000;stroke-width:0;stroke-linecap:butt;stroke-linejoin:miter;stroke-miterlimit:4;stroke-opacity:1;stroke-dasharray:none" />
  </g>
  <path
     inkscape:connector-curvature="0"
     style="fill:#00ff00;fill-opacity:1;stroke:#000000;stroke-width:0.67511356;stroke-linecap:butt;stroke-linejoin:miter;stroke-miterlimit:4;stroke-opacity:1;stroke-dasharray:none"
     d="m 49.803557,36.703821 2.032204,-0.05208 -0.104215,-0.781624 -0.833725,-0.521076 -0.05211,-9.900496 c 0,0 -1.042152,-0.677393 -1.094263,0.15632 -0.0521,0.833742 0,2.032209 0,2.032209 l -4.950243,0.05211 c -0.437367,0.161385 -0.765158,0.388516 -0.729508,0.833713 l 0.002,0.781625 -2.39906,0.05211 c -0.295816,0.312368 -0.507341,0.666887 -0.05209,1.354787 l 2.240635,0 0.05211,5.002364 -0.521078,0.156322 0,0.885828 1.823774,0 0,-2.292733 4.537582,-0.05211 0.04791,2.292733 z"
     id="path3761"
     sodipodi:nodetypes="cccccscccccccccccccc"
     inkscape:export-filename="/home/flavio/Documentos/GIT_Software/JAMediaVideoEstudio/Iconos/JAMediaVideoEstudioUbuntu.png"
     inkscape:export-xdpi="3.0869229"
     inkscape:export-ydpi="3.0869229" />
  <path
     sodipodi:type="arc"
     style="fill:#000000;fill-opacity:1;stroke:none"
     id="path3763"
     sodipodi:cx="77.23214"
     sodipodi:cy="1154.4158"
     sodipodi:rx="1.6964285"
     sodipodi:ry="1.875"
     d="m 78.928568,1154.4158 a 1.6964285,1.875 0 1 1 -3.392857,0 1.6964285,1.875 0 1 1 3.392857,0 z"
     transform="matrix(0.29180384,0,0,0.29180384,26.000701,-307.0113)"
     inkscape:export-filename="/home/flavio/Documentos/GIT_Software/JAMediaVideoEstudio/Iconos/JAMediaVideoEstudioUbuntu.png"
     inkscape:export-xdpi="3.0869229"
     inkscape:export-ydpi="3.0869229" />
  <path
     sodipodi:type="arc"
     style="fill:#000000;fill-opacity:1;stroke:none"
     id="path3763-9"
     sodipodi:cx="77.23214"
     sodipodi:cy="1154.4158"
     sodipodi:rx="1.6964285"
     sodipodi:ry="1.875"
     d="m 78.928568,1154.4158 a 1.6964285,1.875 0 1 1 -3.392857,0 1.6964285,1.875 0 1 1 3.392857,0 z"
     transform="matrix(0.29180384,0,0,0.29180384,23.942442,-306.77679)"
     inkscape:export-filename="/home/flavio/Documentos/GIT_Software/JAMediaVideoEstudio/Iconos/JAMediaVideoEstudioUbuntu.png"
     inkscape:export-xdpi="3.0869229"
     inkscape:export-ydpi="3.0869229" />
  <path
     inkscape:connector-curvature="0"
     style="fill:#ff6600;stroke:#000000;stroke-width:0.08754116;stroke-linecap:butt;stroke-linejoin:miter;stroke-miterlimit:4;stroke-opacity:1;stroke-dasharray:none"
     d="m 45.739143,31.753571 c 0.175122,0.532426 0.364554,1.062459 1.354805,1.45902 1.475434,-0.0698 1.665776,-0.606617 1.927987,-1.080826 l 0.104215,-1.055587 c -1.117322,0.779715 -1.726668,1.115624 -3.074359,0.416872 l -0.312648,0.260521 z"
     id="path3787"
     sodipodi:nodetypes="cccccc"
     inkscape:export-filename="/home/flavio/Documentos/GIT_Software/JAMediaVideoEstudio/Iconos/JAMediaVideoEstudioUbuntu.png"
     inkscape:export-xdpi="3.0869229"
     inkscape:export-ydpi="3.0869229" />
  <path
     inkscape:connector-curvature="0"
     style="fill:#ff6600;stroke:#000000;stroke-width:0.67511356;stroke-linecap:butt;stroke-linejoin:miter;stroke-miterlimit:4;stroke-opacity:1;stroke-dasharray:none"
     d="m 48.067611,26.484798 c 0,0 -0.244155,-2.338961 2.100699,-2.912122 0.95176,-0.716072 -1.416063,-1.415448 -2.344854,-0.885858 -1.216974,0.693911 -1.222098,1.420358 -1.198479,1.406931 -0.439802,0.889984 0.01754,2.118543 1.442634,2.391049 z"
     id="path3789"
     sodipodi:nodetypes="ccscc"
     inkscape:export-filename="/home/flavio/Documentos/GIT_Software/JAMediaVideoEstudio/Iconos/JAMediaVideoEstudioUbuntu.png"
     inkscape:export-xdpi="3.0869229"
     inkscape:export-ydpi="3.0869229" />
  <path
     inkscape:connector-curvature="0"
     style="fill:#00ff00;fill-opacity:1;stroke:#000000;stroke-width:0.67511356;stroke-linecap:butt;stroke-linejoin:miter;stroke-miterlimit:4;stroke-opacity:1;stroke-dasharray:none"
     d="m 44.951636,25.904086 c 0,0 1.204373,-0.559753 0.735398,-1.75822 -0.468968,-1.198496 -1.719554,-0.937945 -1.719554,-0.937945 0,0 -1.230384,0.284996 -1.146375,1.042148 0.943831,-0.407654 1.511129,0.468987 1.511129,0.468987 l 0.619402,1.18503 z"
     id="path3791"
     sodipodi:nodetypes="cccccc"
     inkscape:export-filename="/home/flavio/Documentos/GIT_Software/JAMediaVideoEstudio/Iconos/JAMediaVideoEstudioUbuntu.png"
     inkscape:export-xdpi="3.0869229"
     inkscape:export-ydpi="3.0869229" />
  <text
     xml:space="preserve"
     style="font-size:6.8634553px;font-style:normal;font-weight:normal;line-height:125%;letter-spacing:0px;word-spacing:0px;fill:#00ff00;fill-opacity:1;stroke:#000000;stroke-width:0.13002187;stroke-miterlimit:4;stroke-opacity:1;stroke-dasharray:none;font-family:Sans"
     x="3.3297601"
     y="44.17878"
     id="text3057"
     sodipodi:linespacing="125%"
     transform="scale(1.0447337,0.95718172)"
     inkscape:export-filename="/home/flavio/Documentos/GIT_Software/JAMediaVideoEstudio/Iconos/JAMediaVideoEstudioUbuntu.png"
     inkscape:export-xdpi="3.0869229"
     inkscape:export-ydpi="3.0869229"><tspan
       style="stroke-width:0.13002187"
       sodipodi:role="line"
       id="tspan3059"
       x="3.3297601"
       y="44.17878">Video</tspan></text>
</svg>
