<?xml version="1.0" encoding="UTF-8" standalone="no"?>
<svg
   xmlns:dc="http://purl.org/dc/elements/1.1/"
   xmlns:cc="http://creativecommons.org/ns#"
   xmlns:rdf="http://www.w3.org/1999/02/22-rdf-syntax-ns#"
   xmlns:svg="http://www.w3.org/2000/svg"
   xmlns="http://www.w3.org/2000/svg"
   xmlns:sodipodi="http://sodipodi.sourceforge.net/DTD/sodipodi-0.dtd"
   xmlns:inkscape="http://www.inkscape.org/namespaces/inkscape"
   enable-background="new 0 0 55 55"
   height="48.728607"
   version="1.1"
   viewBox="0 0 48.728607 48.728607"
   width="48.728607"
   x="0px"
   xml:space="preserve"
   y="0px"
   id="svg2"
   inkscape:version="0.48.4 r9939"
   sodipodi:docname="microfono.svg"><metadata
     id="metadata17"><rdf:RDF><cc:Work
         rdf:about=""><dc:format>image/svg+xml</dc:format><dc:type
           rdf:resource="http://purl.org/dc/dcmitype/StillImage" /><dc:title /></cc:Work></rdf:RDF></metadata><defs
     id="defs15" /><sodipodi:namedview
     pagecolor="#ffffff"
     bordercolor="#666666"
     borderopacity="1"
     objecttolerance="10"
     gridtolerance="10"
     guidetolerance="10"
     inkscape:pageopacity="0"
     inkscape:pageshadow="2"
     inkscape:window-width="1366"
     inkscape:window-height="713"
     id="namedview13"
     showgrid="false"
     inkscape:zoom="4.2909091"
     inkscape:cx="26.461761"
     inkscape:cy="26.92786"
     inkscape:window-x="0"
     inkscape:window-y="27"
     inkscape:window-maximized="1"
     inkscape:current-layer="g3490"
     fit-margin-top="0"
     fit-margin-left="0"
     fit-margin-right="0"
     fit-margin-bottom="0" /><g
     id="g3490"
     transform="matrix(0.39442674,0,0,0.39442674,-10.841625,20.821149)"><path
       inkscape:export-ydpi="32.776936"
       inkscape:export-xdpi="32.776936"
       inkscape:export-filename="/home/flavio/Documentos/GIT_Software/JAMediaVideoEstudio/Iconos/microfono.png"
       d="m 324.28572,356.64789 c 0,32.34811 -26.22332,58.57143 -58.57143,58.57143 -32.3481,0 -58.57143,-26.22332 -58.57143,-58.57143 0,-32.34811 26.22333,-58.57143 58.57143,-58.57143 32.34811,0 58.57143,26.22332 58.57143,58.57143 z"
       sodipodi:ry="58.57143"
       sodipodi:rx="58.57143"
       sodipodi:cy="356.64789"
       sodipodi:cx="265.71429"
       id="path2985-61-4-4-4"
       style="fill:#ff6600;fill-opacity:1;stroke:#ff6600;stroke-width:6.4000001;stroke-miterlimit:4;stroke-opacity:1;stroke-dasharray:none"
       sodipodi:type="arc"
       transform="translate(-176.45582,-347.66484)" /><g
       inkscape:export-ydpi="32"
       inkscape:export-xdpi="32"
       inkscape:export-filename="/home/flavio/Documentos/GIT_Software/JAMediaVideoEstudio/Iconos/microfono.png"
       transform="translate(-61.564984,-937.59034)"
       id="g3901"><path
         style="fill:#ffffff;fill-opacity:1;stroke:#000000;stroke-width:4.58099985;stroke-miterlimit:4;stroke-dasharray:none"
         d="m 150.94762,902.05097 c -15.27589,0 -27.6713,12.37304 -27.6713,27.64892 0,11.73833 7.33186,21.77608 17.64968,25.79225 l 0,36.5744 c 0,0.4057 0.31022,0.7158 0.71583,0.7158 l 18.61158,0 c 0.40561,0 0.71583,-0.3101 0.71583,-0.7158 l 0,-36.5744 c 10.31782,-4.01617 17.62731,-14.05392 17.62731,-25.79225 0,-15.27588 -12.37304,-27.64892 -27.64893,-27.64892 z"
         id="path2985-61-4-4-4-4"
         inkscape:connector-curvature="0" /><path
         inkscape:connector-curvature="0"
         id="path3897"
         transform="translate(16.991724,23.049655)"
         style="fill:none;stroke:#000000;stroke-width:4.68100023;stroke-miterlimit:4;stroke-opacity:1"
         d="m 161.68414,905.21735 c 0,15.38246 -12.46995,27.85241 -27.85241,27.85241 -15.38247,0 -27.85242,-12.46995 -27.85242,-27.85241 0,-15.38247 12.46995,-27.85242 27.85242,-27.85242 15.38246,0 27.85241,12.46995 27.85241,27.85242 z m -2.52554,1.90652 c 0,0.0485 -0.0465,0.11333 -0.0876,0.0876 -17.92598,-11.21105 -34.68413,-11.21102 -50.27448,0 -0.0394,0.0283 -0.0876,-0.0391 -0.0876,-0.0876 0,-0.0485 0.0424,-0.10517 0.0876,-0.0876 13.74542,5.34077 26.59364,12.27202 50.27448,0 0.0431,-0.0223 0.0876,0.0391 0.0876,0.0876 z m -24.44247,-26.00721 c 0.0485,0 0.11332,0.0465 0.0876,0.0876 -11.21105,17.92598 -11.21102,34.68413 0,50.27448 0.0283,0.0394 -0.0391,0.0876 -0.0876,0.0876 -0.0485,0 -0.10517,-0.0424 -0.0876,-0.0876 5.34077,-13.74541 12.27202,-26.59364 0,-50.27448 -0.0223,-0.0431 0.0391,-0.0876 0.0876,-0.0876 z" /></g></g></svg>