<?xml version="1.0" encoding="UTF-8" standalone="no"?>
<!-- Generator: Adobe Illustrator 16.0.0, SVG Export Plug-In . SVG Version: 6.00 Build 0)  -->

<svg
   xmlns:dc="http://purl.org/dc/elements/1.1/"
   xmlns:cc="http://creativecommons.org/ns#"
   xmlns:rdf="http://www.w3.org/1999/02/22-rdf-syntax-ns#"
   xmlns:svg="http://www.w3.org/2000/svg"
   xmlns="http://www.w3.org/2000/svg"
   xmlns:sodipodi="http://sodipodi.sourceforge.net/DTD/sodipodi-0.dtd"
   xmlns:inkscape="http://www.inkscape.org/namespaces/inkscape"
   version="1.1"
   id="Layer_1"
   x="0px"
   y="0px"
   width="49.999989"
   height="50.000008"
   viewBox="0 0 49.999989 50.000008"
   enable-background="new 0 0 512 512"
   xml:space="preserve"
   inkscape:version="0.48.5 r10040"
   sodipodi:docname="Zoomin.svg"><metadata
     id="metadata139"><rdf:RDF><cc:Work
         rdf:about=""><dc:format>image/svg+xml</dc:format><dc:type
           rdf:resource="http://purl.org/dc/dcmitype/StillImage" /><dc:title /></cc:Work></rdf:RDF></metadata><defs
     id="defs137" /><sodipodi:namedview
     pagecolor="#ffffff"
     bordercolor="#666666"
     borderopacity="1"
     objecttolerance="10"
     gridtolerance="10"
     guidetolerance="10"
     inkscape:pageopacity="0"
     inkscape:pageshadow="2"
     inkscape:window-width="1366"
     inkscape:window-height="713"
     id="namedview135"
     showgrid="false"
     fit-margin-top="0"
     fit-margin-left="0"
     fit-margin-right="0"
     fit-margin-bottom="0"
     inkscape:zoom="7.375"
     inkscape:cx="7.4728921"
     inkscape:cy="26.75175"
     inkscape:window-x="0"
     inkscape:window-y="27"
     inkscape:window-maximized="1"
     inkscape:current-layer="Layer_1"
     showguides="true"
     inkscape:guide-bbox="true" /><path
     style="fill:#000000;fill-opacity:1;fill-rule:evenodd"
     d="M 20.588368,0.02715757 C 5.2247753,0.03301834 -5.2947067,18.902699 2.6045738,31.899838 8.3123143,43.513575 24.861386,46.857107 34.764629,38.899595 c 4.464681,3.053721 7.271512,10.04825 12.646449,11.077286 4.833869,-1.011032 1.713329,-6.936303 -1.445152,-8.206354 C 42.742886,38.203028 36.718719,35.238792 41.325824,30.67658 48.234793,16.454469 36.631815,-1.0843254 20.588368,0.02715757 z M 21.642239,2.4396952 C 35.271117,1.8826824 45.394603,17.985103 38.946116,29.996992 33.497934,42.718356 13.998006,44.61984 6.2421276,33.089117 -2.5611966,22.322178 4.8898741,4.1663768 18.718597,2.6775511 19.673892,2.4946988 20.666428,2.4675904 21.642239,2.4396952 z m -1.327611,18.0122368 -4.511124,0 0,2.684517 4.511124,0 0,4.274374 3.024799,0 0,-4.274374 4.563276,0 0,-2.684517 -4.563276,0 0,-4.378627 -3.024799,0 z"
     id="path133"
     inkscape:connector-curvature="0"
     sodipodi:nodetypes="ccccccccccccccccccccccccc" /></svg>