<?xml version="1.0" encoding="UTF-8" standalone="no"?>
<svg
   xmlns:dc="http://purl.org/dc/elements/1.1/"
   xmlns:cc="http://creativecommons.org/ns#"
   xmlns:rdf="http://www.w3.org/1999/02/22-rdf-syntax-ns#"
   xmlns:svg="http://www.w3.org/2000/svg"
   xmlns="http://www.w3.org/2000/svg"
   xmlns:sodipodi="http://sodipodi.sourceforge.net/DTD/sodipodi-0.dtd"
   xmlns:inkscape="http://www.inkscape.org/namespaces/inkscape"
   enable-background="new 0 0 55 55"
   height="50"
   version="1.1"
   viewBox="0 0 50 50"
   width="50"
   x="0px"
   xml:space="preserve"
   y="0px"
   id="svg2"
   inkscape:version="0.48.3.1 r9886"
   sodipodi:docname="agregar.svg"><metadata
     id="metadata17"><rdf:RDF><cc:Work
         rdf:about=""><dc:format>image/svg+xml</dc:format><dc:type
           rdf:resource="http://purl.org/dc/dcmitype/StillImage" /><dc:title></dc:title></cc:Work></rdf:RDF></metadata><defs
     id="defs15">
	
		
	
</defs><sodipodi:namedview
     pagecolor="#ffffff"
     bordercolor="#666666"
     borderopacity="1"
     objecttolerance="10"
     gridtolerance="10"
     guidetolerance="10"
     inkscape:pageopacity="0"
     inkscape:pageshadow="2"
     inkscape:window-width="1366"
     inkscape:window-height="712"
     id="namedview13"
     showgrid="false"
     inkscape:zoom="4.2909091"
     inkscape:cx="27.5"
     inkscape:cy="27.5"
     inkscape:window-x="0"
     inkscape:window-y="27"
     inkscape:window-maximized="1"
     inkscape:current-layer="svg2" /><g
     id="g4158"
     transform="matrix(0.86485046,0,0,0.86485046,-71.778047,-2.2246907)"><path
       inkscape:export-ydpi="32.776936"
       inkscape:export-xdpi="32.776936"
       inkscape:export-filename="/home/flavio/Documentos/GIT_Software/JAMediaVideoEstudio/Iconos/configurar.png"
       d="m 324.28572,356.64789 c 0,32.34811 -26.22332,58.57143 -58.57143,58.57143 -32.3481,0 -58.57143,-26.22332 -58.57143,-58.57143 0,-32.34811 26.22333,-58.57143 58.57143,-58.57143 32.34811,0 58.57143,26.22332 58.57143,58.57143 z"
       sodipodi:ry="58.57143"
       sodipodi:rx="58.57143"
       sodipodi:cy="356.64789"
       sodipodi:cx="265.71429"
       id="path2985-61-4-4-4-8"
       style="fill:#ff6600;fill-opacity:1;stroke:#000000;stroke-width:6.4000001;stroke-miterlimit:4;stroke-dasharray:none"
       sodipodi:type="arc"
       transform="matrix(0.45327004,0,0,0.45327004,-8.3428758,-129.83577)" /><path
       inkscape:export-ydpi="32"
       inkscape:export-xdpi="32"
       inkscape:export-filename="/home/flavio/Documentos/GIT_Software/JAMediaVideoEstudio/Iconos/configurar.png"
       inkscape:connector-curvature="0"
       id="path2985-61-4-4-4-4-8"
       d="m 108.0958,13.457172 c -0.16235,0 -0.30065,0.127958 -0.30065,0.29032 l 0,5.91957 c 0,0.02539 0.005,0.0489 0.0104,0.07257 -0.41505,0.147495 -0.81887,0.320191 -1.21294,0.508025 -0.0122,-0.0204 -0.0236,-0.04442 -0.0413,-0.06224 L 102.363,15.997112 c -0.11477,-0.114813 -0.29988,-0.114813 -0.41469,0 l -5.670775,5.670816 c -0.114813,0.114768 -0.114813,0.299884 0,0.414652 l 4.188305,4.188305 c 0.0177,0.01768 0.0417,0.02901 0.0622,0.04125 -0.18888,0.39643 -0.35985,0.805688 -0.50798,1.22333 -0.02402,-0.0063 -0.04664,-0.0204 -0.07257,-0.0204 l -5.919617,0 c -0.162316,0 -0.290274,0.138339 -0.290274,0.300609 l 0,8.013769 c 0,0.162362 0.127958,0.290274 0.290274,0.290274 l 5.919617,0 c 0.02584,0 0.04891,-0.0045 0.07257,-0.01042 0.1474,0.414832 0.32033,0.819149 0.50798,1.212996 -0.0204,0.01224 -0.0444,0.02402 -0.0622,0.04125 l -4.188305,4.188305 c -0.114813,0.114813 -0.114813,0.299929 0,0.414697 l 5.670775,5.670771 c 0.11481,0.114858 0.29992,0.114858 0.41469,0 l 4.18831,-4.188306 c 0.0154,-0.01541 0.0199,-0.034 0.0313,-0.05181 0.39692,0.189512 0.80509,0.359397 1.22333,0.50798 -0.005,0.0204 -0.0105,0.04034 -0.0105,0.06224 l 0,5.91957 c 0,0.162362 0.13829,0.300654 0.30061,0.300654 l 8.01377,0 c 0.16231,0 0.29027,-0.138292 0.29027,-0.300654 l 0,-5.91957 c 0,-0.02221 -0.005,-0.0417 -0.0104,-0.06224 0.41823,-0.148583 0.82636,-0.318468 1.22333,-0.50798 0.0114,0.01768 0.0154,0.03626 0.0313,0.05181 l 4.18826,4.188306 c 0.11482,0.114858 0.29988,0.114858 0.4147,0 l 5.67077,-5.670771 c 0.11481,-0.114768 0.11481,-0.299884 0,-0.414697 l -4.18826,-4.188305 c -0.0154,-0.01541 -0.034,-0.01994 -0.0519,-0.03127 0.18934,-0.396703 0.35949,-0.805416 0.50799,-1.223376 0.0208,0.0045 0.0399,0.01042 0.0622,0.01042 l 5.91961,0 c 0.16237,0 0.29028,-0.127912 0.29028,-0.290274 l 0,-8.013769 c 0,-0.16227 -0.12791,-0.300609 -0.29028,-0.300609 l -5.91961,0 c -0.0227,0 -0.0413,0.01586 -0.0622,0.0204 -0.14918,-0.42068 -0.31743,-0.83447 -0.50799,-1.233665 0.0177,-0.01133 0.0363,-0.01541 0.0519,-0.03127 l 4.18826,-4.188261 c 0.11481,-0.114814 0.11481,-0.299929 0,-0.414697 l -5.67077,-5.670816 c -0.11482,-0.114768 -0.29988,-0.114768 -0.4147,0 l -4.18826,4.188306 c -0.0177,0.01813 -0.029,0.0417 -0.0412,0.06224 -0.39412,-0.187835 -0.79794,-0.360486 -1.21296,-0.508025 0.006,-0.02357 0.0105,-0.04692 0.0105,-0.07252 l 0,-5.919616 c 0,-0.162361 -0.12796,-0.290274 -0.29028,-0.290274 l -8.01377,0 z m 4.00166,10.926935 c 4.10817,0 7.4436,3.335388 7.4436,7.443556 0,4.108123 -3.33543,7.433175 -7.4436,7.433175 -4.10813,0 -7.44352,-3.325052 -7.44352,-7.433175 0,-4.108168 3.33539,-7.443556 7.44352,-7.443556 z"
       style="fill:#ffffff;fill-opacity:1;stroke:#000000;stroke-width:2.12317634;stroke-miterlimit:4;stroke-dasharray:none" /></g></svg>