<?xml version="1.0" encoding="UTF-8" standalone="no"?>
<!-- Created with Inkscape (http://www.inkscape.org/) -->

<svg
   xmlns:dc="http://purl.org/dc/elements/1.1/"
   xmlns:cc="http://creativecommons.org/ns#"
   xmlns:rdf="http://www.w3.org/1999/02/22-rdf-syntax-ns#"
   xmlns:svg="http://www.w3.org/2000/svg"
   xmlns="http://www.w3.org/2000/svg"
   xmlns:sodipodi="http://sodipodi.sourceforge.net/DTD/sodipodi-0.dtd"
   xmlns:inkscape="http://www.inkscape.org/namespaces/inkscape"
   width="24"
   height="24"
   id="svg6662"
   version="1.1"
   inkscape:version="0.48.3.1 r9886"
   sodipodi:docname="document-properties.svg">
  <defs
     id="defs6664">
    <linearGradient
       y2="11.02436"
       y1="3.0069399"
       x2="0"
       id="linearGradient1022-8-8-3-0-06-59"
       gradientUnits="userSpaceOnUse">
      <stop
         id="stop3001-0-9-4-9-02"
         offset="0" />
      <stop
         id="stop3003-5-6-6-5-70"
         stop-color="#363636"
         offset="1" />
    </linearGradient>
  </defs>
  <sodipodi:namedview
     id="base"
     pagecolor="#ffffff"
     bordercolor="#666666"
     borderopacity="1.0"
     inkscape:pageopacity="0.0"
     inkscape:pageshadow="2"
     inkscape:zoom="15.839192"
     inkscape:cx="14.85378"
     inkscape:cy="13.148515"
     inkscape:document-units="px"
     inkscape:current-layer="capa1"
     showgrid="true"
     inkscape:showpageshadow="false"
     inkscape:window-width="730"
     inkscape:window-height="702"
     inkscape:window-x="152"
     inkscape:window-y="36"
     inkscape:window-maximized="0">
    <inkscape:grid
       type="xygrid"
       id="grid3199" />
  </sodipodi:namedview>
  <metadata
     id="metadata6667">
    <rdf:RDF>
      <cc:Work
         rdf:about="">
        <dc:format>image/svg+xml</dc:format>
        <dc:type
           rdf:resource="http://purl.org/dc/dcmitype/StillImage" />
        <dc:title />
      </cc:Work>
    </rdf:RDF>
  </metadata>
  <g
     inkscape:label="Capa 1"
     inkscape:groupmode="layer"
     id="capa1"
     transform="translate(0,-1028.3622)">
    <rect
       y="1028.3622"
       x="-2.9999999e-06"
       height="23.999996"
       width="23.999996"
       id="rect3123"
       style="opacity:0.6;color:#000000;fill:none;stroke:none;stroke-width:1;marker:none;visibility:visible;display:inline;overflow:visible;enable-background:accumulate" />
    <path
       id="path3969"
       d="m 6,1031.3622 -3,3 0,14 3,3 12,0 3,-3 0,-14 -3,-3 -12,0 z m 1,2 10,0 2,2 0,12 -2,2 -10,0 -2,-2 0,-12 2,-2 z m 4.53125,3 0,0.9688 c -0.713773,0.08 -1.351986,0.3509 -1.90625,0.75 l -0.8125,-0.8125 -0.90625,0.9062 0.8125,0.8125 c -0.4052728,0.5574 -0.6690636,1.186 -0.75,1.9063 l -0.96875,0 0,0.9375 0.96875,0 c 0.080182,0.7139 0.3508363,1.3519 0.75,1.9062 l -0.8125,0.8125 0.90625,0.9063 0.8125,-0.8125 c 0.554264,0.3991 1.192477,0.6698 1.90625,0.75 l 0,0.9687 0.9375,0 0,-0.9687 c 0.713773,-0.08 1.351986,-0.3509 1.90625,-0.75 l 0.8125,0.8125 0.90625,-0.9063 -0.8125,-0.8125 c 0.399163,-0.5543 0.669791,-1.1923 0.75,-1.9062 l 0.96875,0 0,-0.9375 -0.96875,0 c -0.08091,-0.7203 -0.344728,-1.3489 -0.75,-1.9063 l 0.8125,-0.8125 -0.90625,-0.9062 -0.8125,0.8125 c -0.554264,-0.3991 -1.192477,-0.6698 -1.90625,-0.75 l 0,-0.9688 -0.9375,0 z M 12,1039.081 c 1.255191,0 2.28125,1.026 2.28125,2.2812 0,1.2552 -1.026059,2.2813 -2.28125,2.2813 -1.255191,0 -2.28125,-1.0261 -2.28125,-2.2813 0,-1.2552 1.026059,-2.2812 2.28125,-2.2812 z"
       style="opacity:0.6;color:#000000;fill:#ffffff;fill-opacity:1;fill-rule:nonzero;stroke:none;stroke-width:0.66666675;marker:none;visibility:visible;display:inline;overflow:visible;enable-background:accumulate"
       inkscape:connector-curvature="0" />
    <path
       style="opacity:0.69999999999999996;color:#000000;fill:#000000;fill-opacity:1;fill-rule:nonzero;stroke:none;stroke-width:1;marker:none;visibility:visible;display:inline;overflow:visible;enable-background:accumulate"
       d="M 6 2 L 3 5 L 3 19 L 6 22 L 18 22 L 21 19 L 21 5 L 18 2 L 6 2 z M 7 4 L 17 4 L 19 6 L 19 18 L 17 20 L 7 20 L 5 18 L 5 6 L 7 4 z M 11.53125 7 L 11.53125 7.96875 C 10.817477 8.04875 10.179264 8.31965 9.625 8.71875 L 8.8125 7.90625 L 7.90625 8.8125 L 8.71875 9.625 C 8.3134772 10.1824 8.0496864 10.81095 7.96875 11.53125 L 7 11.53125 L 7 12.46875 L 7.96875 12.46875 C 8.048932 13.18265 8.3195863 13.8207 8.71875 14.375 L 7.90625 15.1875 L 8.8125 16.09375 L 9.625 15.28125 C 10.179264 15.68035 10.817477 15.95105 11.53125 16.03125 L 11.53125 17 L 12.46875 17 L 12.46875 16.03125 C 13.182523 15.95125 13.820736 15.68035 14.375 15.28125 L 15.1875 16.09375 L 16.09375 15.1875 L 15.28125 14.375 C 15.680413 13.8207 15.951041 13.18265 16.03125 12.46875 L 17 12.46875 L 17 11.53125 L 16.03125 11.53125 C 15.95034 10.81095 15.686522 10.1824 15.28125 9.625 L 16.09375 8.8125 L 15.1875 7.90625 L 14.375 8.71875 C 13.820736 8.31965 13.182523 8.04895 12.46875 7.96875 L 12.46875 7 L 11.53125 7 z M 12 9.71875 C 13.255191 9.71875 14.28125 10.7448 14.28125 12 C 14.28125 13.2552 13.255191 14.28125 12 14.28125 C 10.744809 14.28125 9.71875 13.2552 9.71875 12 C 9.71875 10.7448 10.744809 9.71875 12 9.71875 z "
       transform="translate(0,1028.3622)"
       id="path3208" />
  </g>
</svg>
