<?xml version="1.0" encoding="UTF-8" standalone="no"?>
<!-- Created with Inkscape (http://www.inkscape.org/) -->

<svg
   xmlns:dc="http://purl.org/dc/elements/1.1/"
   xmlns:cc="http://creativecommons.org/ns#"
   xmlns:rdf="http://www.w3.org/1999/02/22-rdf-syntax-ns#"
   xmlns:svg="http://www.w3.org/2000/svg"
   xmlns="http://www.w3.org/2000/svg"
   xmlns:xlink="http://www.w3.org/1999/xlink"
   xmlns:sodipodi="http://sodipodi.sourceforge.net/DTD/sodipodi-0.dtd"
   xmlns:inkscape="http://www.inkscape.org/namespaces/inkscape"
   width="48px"
   height="48px"
   id="svg4700"
   version="1.1"
   inkscape:version="0.48.3.1 r9886"
   sodipodi:docname="drive-removable-media-usb.svg">
  <defs
     id="defs4702">
    <linearGradient
       id="linearGradient4670">
      <stop
         style="stop-color:#808080;stop-opacity:1;"
         offset="0"
         id="stop4672" />
      <stop
         style="stop-color:#ffffff;stop-opacity:1;"
         offset="1"
         id="stop4674" />
    </linearGradient>
    <linearGradient
       id="linearGradient4517">
      <stop
         style="stop-color:#ffffff;stop-opacity:1;"
         offset="0"
         id="stop4519" />
      <stop
         style="stop-color:#ffffff;stop-opacity:0;"
         offset="1"
         id="stop4521" />
    </linearGradient>
    <linearGradient
       gradientUnits="userSpaceOnUse"
       xlink:href="#linearGradient3322"
       id="linearGradient3279"
       y2="77.09375"
       x2="32"
       y1="77.09375"
       x1="6"
       gradientTransform="matrix(0.46153843,0,0,0.46489104,2.2307693,0.1598061)" />
    <filter
       id="filter3174"
       color-interpolation-filters="sRGB">
      <feGaussianBlur
         stdDeviation="1.71"
         id="feGaussianBlur3176" />
    </filter>
    <linearGradient
       gradientTransform="scale(1.0058652,0.994169)"
       gradientUnits="userSpaceOnUse"
       id="ButtonShadow"
       y2="7.0165396"
       x2="45.447727"
       y1="92.539597"
       x1="45.447727">
      <stop
         offset="0"
         style="stop-color:#000000;stop-opacity:1"
         id="stop3750" />
      <stop
         offset="1"
         style="stop-color:#000000;stop-opacity:0.58823532"
         id="stop3752" />
    </linearGradient>
    <linearGradient
       id="linearGradient3322">
      <stop
         offset="0"
         style="stop-color:#7a7a7a;stop-opacity:1"
         id="stop3324" />
      <stop
         offset="0.2032043"
         style="stop-color:#f9f9f9;stop-opacity:1"
         id="stop3326" />
      <stop
         offset="0.42969123"
         style="stop-color:#c9c9c9;stop-opacity:1"
         id="stop3328" />
      <stop
         offset="1"
         style="stop-color:#dedede;stop-opacity:0"
         id="stop3330" />
    </linearGradient>
    <linearGradient
       inkscape:collect="always"
       xlink:href="#linearGradient3322"
       id="linearGradient4511"
       gradientUnits="userSpaceOnUse"
       gradientTransform="matrix(-0.46153843,0,0,0.46489104,45.769231,0.1598061)"
       x1="6"
       y1="77.09375"
       x2="32"
       y2="77.09375" />
    <linearGradient
       inkscape:collect="always"
       xlink:href="#linearGradient4517"
       id="linearGradient4523"
       x1="22.440199"
       y1="4.8942533"
       x2="22.440199"
       y2="38.21666"
       gradientUnits="userSpaceOnUse"
       gradientTransform="matrix(0.99929416,0,0,0.99929126,0.00568567,-1.909409)" />
    <radialGradient
       gradientTransform="matrix(0.23760038,0,0,0.25220859,7.7186336,4.6241265)"
       gradientUnits="userSpaceOnUse"
       xlink:href="#radialGradient4241-5"
       id="radialGradient2947-3"
       fy="95.756645"
       fx="127.2645"
       r="2.5631001"
       cy="95.756645"
       cx="127.2645" />
    <radialGradient
       gradientUnits="userSpaceOnUse"
       id="radialGradient4241-5"
       fy="98"
       fx="113.667"
       r="2.5631001"
       cy="97.587898"
       cx="113.0654">
      <stop
         offset="0"
         style="stop-color:#eee;stop-opacity:1"
         id="stop4243-2" />
      <stop
         offset="1"
         style="stop-color:#555;stop-opacity:1"
         id="stop4249-6" />
    </radialGradient>
    <radialGradient
       inkscape:collect="always"
       xlink:href="#radialGradient4241-5"
       id="radialGradient4581"
       gradientUnits="userSpaceOnUse"
       gradientTransform="matrix(0.23760038,0,0,0.25220859,7.7186336,4.6241265)"
       cx="127.2645"
       cy="95.756645"
       fx="127.2645"
       fy="95.756645"
       r="2.5631001" />
    <radialGradient
       inkscape:collect="always"
       xlink:href="#radialGradient4241-5"
       id="radialGradient4591"
       gradientUnits="userSpaceOnUse"
       gradientTransform="matrix(0.23760038,0,0,0.25220859,7.7186336,4.6241265)"
       cx="127.2645"
       cy="95.756645"
       fx="127.2645"
       fy="95.756645"
       r="2.5631001" />
    <radialGradient
       inkscape:collect="always"
       xlink:href="#radialGradient4241-5"
       id="radialGradient4593"
       gradientUnits="userSpaceOnUse"
       gradientTransform="matrix(0.23760038,0,0,0.25220859,7.7186336,4.6241265)"
       cx="127.2645"
       cy="95.756645"
       fx="127.2645"
       fy="95.756645"
       r="2.5631001" />
    <linearGradient
       inkscape:collect="always"
       xlink:href="#linearGradient5048-0"
       id="linearGradient3127"
       gradientUnits="userSpaceOnUse"
       gradientTransform="matrix(0.06214224,0,0,0.02900085,1.6242719,28.085503)"
       x1="302.85715"
       y1="366.64789"
       x2="302.85715"
       y2="609.50507" />
    <linearGradient
       id="linearGradient5048-0">
      <stop
         id="stop5050-0"
         style="stop-color:#000000;stop-opacity:0"
         offset="0" />
      <stop
         id="stop5056-5"
         style="stop-color:#000000;stop-opacity:1"
         offset="0.5" />
      <stop
         id="stop5052-9"
         style="stop-color:#000000;stop-opacity:0"
         offset="1" />
    </linearGradient>
    <radialGradient
       inkscape:collect="always"
       xlink:href="#linearGradient5060-9"
       id="radialGradient3129"
       gradientUnits="userSpaceOnUse"
       gradientTransform="matrix(0.06214224,0,0,0.02900085,1.6365015,28.085503)"
       cx="605.71429"
       cy="486.64789"
       fx="605.71429"
       fy="486.64789"
       r="117.14286" />
    <linearGradient
       id="linearGradient5060-9">
      <stop
         id="stop5062-2"
         style="stop-color:#000000;stop-opacity:1"
         offset="0" />
      <stop
         id="stop5064-0"
         style="stop-color:#000000;stop-opacity:0"
         offset="1" />
    </linearGradient>
    <radialGradient
       r="117.14286"
       fy="486.64789"
       fx="605.71429"
       cy="486.64789"
       cx="605.71429"
       gradientTransform="matrix(-0.06214224,0,0,0.02900085,46.53201,28.085503)"
       gradientUnits="userSpaceOnUse"
       id="radialGradient981"
       xlink:href="#linearGradient5060-9"
       inkscape:collect="always" />
    <linearGradient
       inkscape:collect="always"
       xlink:href="#linearGradient4670"
       id="linearGradient4676"
       x1="36.1875"
       y1="37.9375"
       x2="36.1875"
       y2="40.6875"
       gradientUnits="userSpaceOnUse"
       gradientTransform="matrix(1,0,0,1.5,0,-19.250001)" />
    <filter
       id="filter3174-6"
       color-interpolation-filters="sRGB">
      <feGaussianBlur
         stdDeviation="1.71"
         id="feGaussianBlur3176-0" />
    </filter>
    <linearGradient
       gradientTransform="scale(1.0058652,0.994169)"
       gradientUnits="userSpaceOnUse"
       id="ButtonShadow-6"
       y2="7.0165396"
       x2="45.447727"
       y1="92.539597"
       x1="45.447727">
      <stop
         offset="0"
         style="stop-color:#000000;stop-opacity:1"
         id="stop3750-5" />
      <stop
         offset="1"
         style="stop-color:#000000;stop-opacity:0.58823532"
         id="stop3752-7" />
    </linearGradient>
    <linearGradient
       gradientUnits="userSpaceOnUse"
       xlink:href="#linearGradient3173-9"
       id="linearGradient3179-2"
       y2="33.8722"
       x2="46.430859"
       y1="77.039726"
       x1="46.430859"
       gradientTransform="matrix(0.4643436,0,0,0.47228973,1.7115067,-0.33617192)" />
    <linearGradient
       id="linearGradient3173-9">
      <stop
         offset="0"
         style="stop-color:#b6b6b6;stop-opacity:1;"
         id="stop3187-3" />
      <stop
         offset="1"
         style="stop-color:#e6e6e6;stop-opacity:1"
         id="stop3177-1" />
    </linearGradient>
  </defs>
  <sodipodi:namedview
     id="base"
     pagecolor="#ffffff"
     bordercolor="#666666"
     borderopacity="1.0"
     inkscape:pageopacity="0.0"
     inkscape:pageshadow="2"
     inkscape:zoom="5.6568542"
     inkscape:cx="29.444467"
     inkscape:cy="19.628023"
     inkscape:current-layer="layer1"
     showgrid="false"
     inkscape:grid-bbox="true"
     inkscape:document-units="px"
     inkscape:window-width="575"
     inkscape:window-height="604"
     inkscape:window-x="650"
     inkscape:window-y="81"
     inkscape:window-maximized="0"
     inkscape:snap-to-guides="false"
     inkscape:snap-grids="false">
    <inkscape:grid
       type="xygrid"
       id="grid1021" />
  </sodipodi:namedview>
  <metadata
     id="metadata4705">
    <rdf:RDF>
      <cc:Work
         rdf:about="">
        <dc:format>image/svg+xml</dc:format>
        <dc:type
           rdf:resource="http://purl.org/dc/dcmitype/StillImage" />
        <dc:title />
      </cc:Work>
    </rdf:RDF>
  </metadata>
  <g
     id="layer1"
     inkscape:label="Layer 1"
     inkscape:groupmode="layer">
    <g
       transform="matrix(0.8756154,0,0,1,2.9114591,0.20800551)"
       id="g914">
      <rect
         style="opacity:0.5;fill:url(#linearGradient3127);fill-opacity:1;fill-rule:nonzero;stroke:none;stroke-width:104.96237946;marker:none;visibility:visible;display:inline;overflow:visible"
         id="rect4173"
         y="38.718601"
         x="9.0813398"
         height="7.0430632"
         width="30.005821" />
      <path
         inkscape:connector-curvature="0"
         style="opacity:0.5;fill:url(#radialGradient3129);fill-opacity:1;fill-rule:nonzero;stroke:none;stroke-width:104.96237946;marker:none;visibility:visible;display:inline;overflow:visible"
         id="path5058"
         d="m 39.087163,38.718845 c 0,0 0,7.042675 0,7.042675 3.200171,0.01326 7.736457,-1.577906 7.736455,-3.52179 0,-1.943885 -3.57115,-3.520884 -7.736455,-3.520885 z" />
      <path
         inkscape:connector-curvature="0"
         style="opacity:0.5;fill:url(#radialGradient981);fill-opacity:1;fill-rule:nonzero;stroke:none;stroke-width:104.96237946;marker:none;visibility:visible;display:inline;overflow:visible"
         id="path5018"
         d="m 9.0813406,38.718845 c 0,0 0,7.042675 0,7.042675 -3.2001721,0.01326 -7.7364568,-1.577906 -7.7364568,-3.52179 0,-1.943885 3.57115,-3.520884 7.7364568,-3.520885 z" />
    </g>
    <path
       style="fill:#cacaca;fill-opacity:1;fill-rule:nonzero;stroke:#808080;stroke-width:1;stroke-opacity:1;stroke-miterlimit:4;stroke-dasharray:none"
       id="rect3243"
       inkscape:connector-curvature="0"
       d="m 43.50605,30.493951 0,9.219939 c 0,1.546856 -1.242815,2.79216 -2.78658,2.79216 l -33.4389411,0 c -1.5437645,0 -2.7865784,-1.245304 -2.7865784,-2.79216 l 0,-9.219939 39.0120995,0 z" />
    <path
       sodipodi:nodetypes="cssccc"
       d="m 43,30 0,9.530266 C 43,41.075564 42.082231,42 40.548077,42 L 31,42 31,30 z"
       inkscape:connector-curvature="0"
       id="path4509"
       style="opacity:0.8;fill:url(#linearGradient4511);fill-opacity:1;fill-rule:nonzero;stroke:none" />
    <path
       style="opacity:0.8;fill:url(#linearGradient3279);fill-opacity:1;fill-rule:nonzero;stroke:none"
       id="path3263"
       inkscape:connector-curvature="0"
       d="m 5,30 0,9.530266 C 5,41.075564 5.9177692,42 7.4519229,42 L 17,42 17,30 z"
       sodipodi:nodetypes="cssccc" />
    <g
       id="layer2"
       style="display:none"
       transform="translate(5.204491,-179.6879)">
      <rect
         width="86"
         height="85"
         rx="6"
         ry="6"
         x="5"
         y="7"
         id="rect3745"
         style="opacity:0.9;fill:url(#ButtonShadow);fill-opacity:1;fill-rule:nonzero;stroke:none;filter:url(#filter3174)" />
    </g>
    <g
       id="layer4"
       transform="translate(5.204491,-179.6879)" />
    <rect
       style="fill:url(#linearGradient3179-2);fill-opacity:1;fill-rule:nonzero;stroke:#808080;stroke-width:0.9951371;stroke-miterlimit:4;stroke-opacity:1;stroke-dasharray:none"
       id="rect3171-2"
       y="2.4975677"
       x="4.4975686"
       ry="2.8337386"
       rx="2.7860613"
       height="34.004864"
       width="39.004864" />
    <rect
       width="37"
       height="32.003437"
       ry="2"
       x="5.5"
       y="3.4965637"
       id="rect4513"
       style="fill:none;stroke:url(#linearGradient4523);stroke-width:0.99999994;stroke-miterlimit:4;stroke-opacity:1;stroke-dasharray:none"
       rx="2" />
    <g
       id="g4574"
       transform="matrix(1.6071093,0,0,1.6011113,-22.853896,-15.42229)">
      <path
         transform="matrix(1.1258657,0,0,1.1299899,-4.0539962,-2.8976986)"
         d="m 38.669902,28.775534 c 0,0.488155 -0.395728,0.883883 -0.883884,0.883883 -0.488155,0 -0.883883,-0.395728 -0.883883,-0.883883 0,-0.488156 0.395728,-0.883884 0.883883,-0.883884 0.488156,0 0.883884,0.395728 0.883884,0.883884 z"
         sodipodi:ry="0.88388348"
         sodipodi:rx="0.88388348"
         sodipodi:cy="28.775534"
         sodipodi:cx="37.786018"
         id="path4533"
         style="color:#000000;color-interpolation:sRGB;color-interpolation-filters:linearRGB;fill:url(#radialGradient2947-3);fill-opacity:1;fill-rule:nonzero;stroke:#dddddd;stroke-width:0.44329152;stroke-linecap:butt;stroke-linejoin:miter;stroke-miterlimit:4;stroke-opacity:1;stroke-dasharray:none;stroke-dashoffset:0;marker:none;visibility:visible;display:inline;overflow:visible;enable-background:accumulate;clip-rule:nonzero"
         sodipodi:type="arc" />
    </g>
    <g
       transform="matrix(1.6071093,0,0,1.6011113,-52.853896,-15.42229)"
       id="g4577"
       style="stroke:#ebebeb;stroke-opacity:1">
      <path
         sodipodi:type="arc"
         style="color:#000000;color-interpolation:sRGB;color-interpolation-filters:linearRGB;fill:url(#radialGradient4581);fill-opacity:1;fill-rule:nonzero;stroke:#ebebeb;stroke-width:0.44329152;stroke-linecap:butt;stroke-linejoin:miter;stroke-miterlimit:4;stroke-opacity:1;stroke-dasharray:none;stroke-dashoffset:0;marker:none;visibility:visible;display:inline;overflow:visible;enable-background:accumulate;clip-rule:nonzero"
         id="path4579"
         sodipodi:cx="37.786018"
         sodipodi:cy="28.775534"
         sodipodi:rx="0.88388348"
         sodipodi:ry="0.88388348"
         d="m 38.669902,28.775534 c 0,0.488155 -0.395728,0.883883 -0.883884,0.883883 -0.488155,0 -0.883883,-0.395728 -0.883883,-0.883883 0,-0.488156 0.395728,-0.883884 0.883883,-0.883884 0.488156,0 0.883884,0.395728 0.883884,0.883884 z"
         transform="matrix(1.1258657,0,0,1.1299899,-4.0539962,-2.8976986)" />
    </g>
    <g
       style="stroke:#ebebeb;stroke-opacity:1"
       id="g4587"
       transform="matrix(1.6071093,0,0,1.6011113,-22.853896,-40.42229)">
      <path
         transform="matrix(1.1258657,0,0,1.1299899,-4.0539962,-2.8976986)"
         d="m 38.669902,28.775534 c 0,0.488155 -0.395728,0.883883 -0.883884,0.883883 -0.488155,0 -0.883883,-0.395728 -0.883883,-0.883883 0,-0.488156 0.395728,-0.883884 0.883883,-0.883884 0.488156,0 0.883884,0.395728 0.883884,0.883884 z"
         sodipodi:ry="0.88388348"
         sodipodi:rx="0.88388348"
         sodipodi:cy="28.775534"
         sodipodi:cx="37.786018"
         id="path4589"
         style="color:#000000;color-interpolation:sRGB;color-interpolation-filters:linearRGB;fill:url(#radialGradient4593);fill-opacity:1;fill-rule:nonzero;stroke:#ebebeb;stroke-width:0.44329152;stroke-linecap:butt;stroke-linejoin:miter;stroke-miterlimit:4;stroke-opacity:1;stroke-dasharray:none;stroke-dashoffset:0;marker:none;visibility:visible;display:inline;overflow:visible;enable-background:accumulate;clip-rule:nonzero"
         sodipodi:type="arc" />
    </g>
    <g
       transform="matrix(1.6071093,0,0,1.6011113,-52.853896,-40.42229)"
       id="g4583">
      <path
         sodipodi:type="arc"
         style="color:#000000;color-interpolation:sRGB;color-interpolation-filters:linearRGB;fill:url(#radialGradient4591);fill-opacity:1;fill-rule:nonzero;stroke:#dddddd;stroke-width:0.44329152;stroke-linecap:butt;stroke-linejoin:miter;stroke-miterlimit:4;stroke-opacity:1;stroke-dasharray:none;stroke-dashoffset:0;marker:none;visibility:visible;display:inline;overflow:visible;enable-background:accumulate;clip-rule:nonzero"
         id="path4585"
         sodipodi:cx="37.786018"
         sodipodi:cy="28.775534"
         sodipodi:rx="0.88388348"
         sodipodi:ry="0.88388348"
         d="m 38.669902,28.775534 c 0,0.488155 -0.395728,0.883883 -0.883884,0.883883 -0.488155,0 -0.883883,-0.395728 -0.883883,-0.883883 0,-0.488156 0.395728,-0.883884 0.883883,-0.883884 0.488156,0 0.883884,0.395728 0.883884,0.883884 z"
         transform="matrix(1.1258657,0,0,1.1299899,-4.0539962,-2.8976986)" />
    </g>
    <rect
       style="color:#000000;color-interpolation:sRGB;color-interpolation-filters:linearRGB;fill:#808080;fill-opacity:1;stroke:url(#linearGradient4676);stroke-width:1;stroke-linecap:butt;stroke-linejoin:miter;stroke-miterlimit:4;stroke-opacity:1;stroke-dasharray:none;stroke-dashoffset:0;marker:none;visibility:visible;display:inline;overflow:visible;enable-background:accumulate;clip-rule:nonzero"
       id="rect4668"
       width="5"
       height="3"
       x="33.5"
       y="38.5" />
    <g
       id="layer2-0"
       style="display:none"
       transform="translate(56.475027,-42.901899)">
      <rect
         width="86"
         height="85"
         rx="6"
         ry="6"
         x="5"
         y="7"
         id="rect3745-8"
         style="opacity:0.9;fill:url(#ButtonShadow-6);fill-opacity:1;fill-rule:nonzero;stroke:none;filter:url(#filter3174-6)" />
    </g>
    <path
       style="fill:#000000;fill-opacity:0.36309521;stroke:none;display:inline"
       id="path1334"
       inkscape:connector-curvature="0"
       d="m 18.087506,17.84778 c 0,0.694867 0.448915,1.290198 1.085826,1.557347 l 0,1.735095 c 0,0.620279 0.33689,1.204303 0.741999,1.62506 0.0036,0.0045 0.0054,0.01255 0.009,0.01692 0,0 0,0.0084 0,0.0084 0,9e-6 0.01807,0.02539 0.01807,0.0254 7.2e-5,1.03e-4 0.01627,0.02283 0.01807,0.0254 0.0018,0.0026 0.0072,-0.0015 0.009,0 0.0015,0.0015 -0.0015,0.007 0,0.0084 0.0054,0.006 0.01825,0.009 0.02711,0.01693 0.0036,0.0029 0.0054,0.0057 0.009,0.0084 0.009,0.0079 3.003449,2.617126 3.040315,2.649188 0.143669,0.170866 0.247869,0.4061 0.253362,0.617863 l 0,1.515031 c -0.907153,0.282897 -1.565408,1.077366 -1.565408,2.005936 0,1.165909 1.030004,2.107502 2.298335,2.107502 1.268728,0 2.298353,-0.941593 2.298353,-2.107501 0,-0.928754 -0.657731,-1.723069 -1.565409,-2.005935 l 0,-1.498104 c 0,0.003 -1.8e-4,-0.01303 0,-0.01693 1.63e-4,-0.0038 0.0011,0.0018 0,-0.01692 l 0,-2.615333 c 0.0054,-0.211501 0.108248,-0.429342 0.253362,-0.600933 0.01825,-0.01594 0.754829,-0.662999 1.511104,-1.320362 0.382808,-0.332748 0.77066,-0.663771 1.058683,-0.914097 0.14403,-0.125169 0.259308,-0.231251 0.343847,-0.3047 0.04229,-0.03674 0.07662,-0.06476 0.09957,-0.08463 0.01084,-0.01002 0.02115,-0.01176 0.02711,-0.01692 0.0036,-0.0024 0.0054,-0.0124 0.009,-0.01693 0.009,-0.0074 0.02151,-0.01144 0.02711,-0.01693 0.0017,-0.0016 -0.0017,-0.0067 0,-0.0084 0.0017,-0.0018 0.0054,0.0029 0.009,0 0.0036,-0.0029 0.01807,-0.03375 0.01807,-0.03386 0,-1.2e-5 0.01807,-0.01691 0.01807,-0.01693 0,0 0,-0.0084 0,-0.0084 0,0 0.009,-0.0084 0.009,-0.0084 0.0016,-0.0016 -0.0016,-0.0068 0,-0.0084 0.0036,-0.0084 0.009,-0.01693 0.009,-0.01693 0.398966,-0.419977 0.732926,-0.994372 0.732926,-1.608133 l 0,-1.591207 1.022487,0 0,-3.377081 -3.517385,0 0,3.377081 1.029028,0 c 0,0.354261 0,0.722219 0,1.616597 -0.0054,0.211637 -0.107345,0.428112 -0.253363,0.600935 l -2.406907,2.099037 0,-9.352567 1.587545,0 -2.352259,-3.9610875 -2.352874,3.9610875 1.651717,0 0,11.967901 -2.406926,-2.090575 c -0.14421,-0.171501 -0.248013,-0.405958 -0.253363,-0.617863 0,-0.729638 9.1e-5,-1.297777 0,-1.743556 0.651894,-0.262056 1.112989,-0.861257 1.112989,-1.565812 0,-0.944902 -0.826682,-1.718168 -1.836861,-1.718168 -1.01018,0 -1.827825,0.773265 -1.827825,1.718167 z" />
  </g>
</svg>
