<?xml version="1.0" encoding="UTF-8" standalone="no"?>
<!-- Created with Inkscape (http://www.inkscape.org/) -->

<svg
   xmlns:dc="http://purl.org/dc/elements/1.1/"
   xmlns:cc="http://creativecommons.org/ns#"
   xmlns:rdf="http://www.w3.org/1999/02/22-rdf-syntax-ns#"
   xmlns:svg="http://www.w3.org/2000/svg"
   xmlns="http://www.w3.org/2000/svg"
   xmlns:xlink="http://www.w3.org/1999/xlink"
   xmlns:sodipodi="http://sodipodi.sourceforge.net/DTD/sodipodi-0.dtd"
   xmlns:inkscape="http://www.inkscape.org/namespaces/inkscape"
   width="24"
   height="24"
   id="svg6662"
   version="1.1"
   inkscape:version="0.48.3.1 r9886"
   sodipodi:docname="editcopy.svg">
  <defs
     id="defs6664">
    <linearGradient
       y2="11.02436"
       y1="3.0069399"
       x2="0"
       id="linearGradient1022-8-8-3-0-2-9"
       gradientUnits="userSpaceOnUse">
      <stop
         id="stop3001-0-9-4-1-8"
         offset="0" />
      <stop
         id="stop3003-5-6-6-1-8"
         stop-color="#363636"
         offset="1" />
    </linearGradient>
    <linearGradient
       y2="-281.84232"
       x2="195.52191"
       y1="-296.74573"
       x1="195.52191"
       gradientTransform="matrix(1.679991,0,0,1.5097216,71.02496,419.09828)"
       gradientUnits="userSpaceOnUse"
       id="linearGradient7252"
       xlink:href="#linearGradient1022-8-8-3-0-2-9"
       inkscape:collect="always" />
  </defs>
  <sodipodi:namedview
     id="base"
     pagecolor="#ffffff"
     bordercolor="#666666"
     borderopacity="1.0"
     inkscape:pageopacity="0.0"
     inkscape:pageshadow="2"
     inkscape:zoom="3.959798"
     inkscape:cx="31.628015"
     inkscape:cy="13.136866"
     inkscape:document-units="px"
     inkscape:current-layer="capa1"
     showgrid="false"
     inkscape:showpageshadow="false"
     inkscape:window-width="730"
     inkscape:window-height="702"
     inkscape:window-x="484"
     inkscape:window-y="100"
     inkscape:window-maximized="0" />
  <metadata
     id="metadata6667">
    <rdf:RDF>
      <cc:Work
         rdf:about="">
        <dc:format>image/svg+xml</dc:format>
        <dc:type
           rdf:resource="http://purl.org/dc/dcmitype/StillImage" />
        <dc:title />
      </cc:Work>
    </rdf:RDF>
  </metadata>
  <g
     inkscape:label="Capa 1"
     inkscape:groupmode="layer"
     id="capa1"
     transform="translate(0,-1028.3622)">
    <g
       id="edit-copy"
       transform="translate(-385,705.00075)">
      <rect
         y="323.36145"
         x="385"
         height="24"
         width="24"
         id="rect3415"
         style="opacity:0.6;color:#000000;fill:none;stroke:none;stroke-width:1;marker:none;visibility:visible;display:inline;overflow:visible;enable-background:accumulate" />
      <path
         id="path6211"
         d="m 391,326.36292 -2,2 0,16 2,2 4,0 -2,-2 -1,0 -1,-1 0,-14 1,-1 1,0 2,-2 -4,0 z m 6,0 -2,2 0,16 2,2 6,0 2,-2 0,-16 -2,-2 -6,0 z m 1,2 4,0 1,1 0,14 -1,1 -4,0 -1,-1 0,-14 1,-1 z"
         style="opacity:0.6;color:#000000;fill:#ffffff;fill-opacity:1;fill-rule:nonzero;stroke:none;stroke-width:1;marker:none;visibility:visible;display:inline;overflow:visible;enable-background:accumulate"
         inkscape:connector-curvature="0" />
      <path
         inkscape:connector-curvature="0"
         style="opacity:0.7;color:#000000;fill:url(#linearGradient7252);fill-opacity:1;fill-rule:nonzero;stroke:none;stroke-width:1;marker:none;visibility:visible;display:inline;overflow:visible;enable-background:accumulate"
         d="m 391,-27.90625 -2,2 0,16 2,2 4,0 -2,-2 -1,0 -1,-1 0,-14 1,-1 1,0 2,-2 -4,0 z m 6,0 -2,2 0,16 2,2 6,0 2,-2 0,-16 -2,-2 -6,0 z m 1,2 4,0 1,1 0,14 -1,1 -4,0 -1,-1 0,-14 1,-1 z"
         transform="translate(0,353.26843)"
         id="path4041" />
    </g>
  </g>
</svg>
