<?xml version="1.0" encoding="UTF-8" standalone="no"?>
<!-- Created with Inkscape (http://www.inkscape.org/) -->

<svg
   xmlns:dc="http://purl.org/dc/elements/1.1/"
   xmlns:cc="http://creativecommons.org/ns#"
   xmlns:rdf="http://www.w3.org/1999/02/22-rdf-syntax-ns#"
   xmlns:svg="http://www.w3.org/2000/svg"
   xmlns="http://www.w3.org/2000/svg"
   xmlns:sodipodi="http://sodipodi.sourceforge.net/DTD/sodipodi-0.dtd"
   xmlns:inkscape="http://www.inkscape.org/namespaces/inkscape"
   width="24"
   height="24"
   id="svg3330"
   version="1.1"
   inkscape:version="0.48.3.1 r9886"
   sodipodi:docname="gtk-edit.svg">
  <defs
     id="defs3332">
    <linearGradient
       gradientUnits="userSpaceOnUse"
       id="linearGradient1022-8-8-3-0-06-59"
       x2="0"
       y1="3.0069399"
       y2="11.02436">
      <stop
         offset="0"
         id="stop3001-0-9-4-9-02" />
      <stop
         offset="1"
         stop-color="#363636"
         id="stop3003-5-6-6-5-70" />
    </linearGradient>
  </defs>
  <sodipodi:namedview
     id="base"
     pagecolor="#ffffff"
     bordercolor="#666666"
     borderopacity="1.0"
     inkscape:pageopacity="0.0"
     inkscape:pageshadow="2"
     inkscape:zoom="5.6"
     inkscape:cx="-9.4412807"
     inkscape:cy="-3.3000863"
     inkscape:document-units="px"
     inkscape:current-layer="capa1"
     showgrid="true"
     inkscape:showpageshadow="false"
     inkscape:window-width="1366"
     inkscape:window-height="712"
     inkscape:window-x="0"
     inkscape:window-y="27"
     inkscape:window-maximized="1">
    <inkscape:grid
       type="xygrid"
       id="grid2990"
       empspacing="5"
       visible="true"
       enabled="true"
       snapvisiblegridlinesonly="true" />
  </sodipodi:namedview>
  <metadata
     id="metadata3335">
    <rdf:RDF>
      <cc:Work
         rdf:about="">
        <dc:format>image/svg+xml</dc:format>
        <dc:type
           rdf:resource="http://purl.org/dc/dcmitype/StillImage" />
        <dc:title />
      </cc:Work>
    </rdf:RDF>
  </metadata>
  <g
     inkscape:label="Capa 1"
     inkscape:groupmode="layer"
     id="capa1"
     transform="translate(0,-1028.3622)">
    <rect
       y="1028.3622"
       x="-2.9999999e-06"
       height="23.999996"
       width="23.999996"
       id="rect3123"
       style="opacity:0.6;color:#000000;fill:none;stroke:none;stroke-width:1;marker:none;visibility:visible;display:inline;overflow:visible;enable-background:accumulate" />
    <path
       id="path3813"
       d="m 6,1032.3622 -2,2 0,15 2,2 12,0 2,-2 0,-15 -2,-2 -12,0 z m 1,2 10,0 1,1 0,13 -1,1 -10,0 -1,-1 0,-13 1,-1 z m 1,2 0,2 8,0 0,-2 -8,0 z m 0,3 0,2 8,0 0,-2 -8,0 z m 0,3 0,2 8,0 0,-2 -8,0 z m 0,3 0,2 5,0 0,-2 -5,0 z"
       style="opacity:0.59999999999999998;color:#000000;fill:#ffffff;fill-opacity:1;fill-rule:nonzero;stroke:none;stroke-width:1;marker:none;visibility:visible;display:inline;overflow:visible;enable-background:accumulate"
       inkscape:connector-curvature="0" />
    <path
       style="opacity:0.69999999999999996;color:#000000;fill:#000000;fill-opacity:1;fill-rule:nonzero;stroke:none;stroke-width:1;marker:none;visibility:visible;display:inline;overflow:visible;enable-background:accumulate"
       d="M 6 3 L 4 5 L 4 20 L 6 22 L 18 22 L 20 20 L 20 5 L 18 3 L 6 3 z M 7 5 L 17 5 L 18 6 L 18 19 L 17 20 L 7 20 L 6 19 L 6 6 L 7 5 z M 8 7 L 8 9 L 16 9 L 16 7 L 8 7 z M 8 10 L 8 12 L 16 12 L 16 10 L 8 10 z M 8 13 L 8 15 L 16 15 L 16 13 L 8 13 z M 8 16 L 8 18 L 13 18 L 13 16 L 8 16 z "
       transform="translate(0,1028.3622)"
       id="path3787" />
  </g>
</svg>
