<?xml version="1.0" encoding="UTF-8" standalone="no"?>
<!-- Created with Inkscape (http://www.inkscape.org/) -->

<svg
   xmlns:dc="http://purl.org/dc/elements/1.1/"
   xmlns:cc="http://creativecommons.org/ns#"
   xmlns:rdf="http://www.w3.org/1999/02/22-rdf-syntax-ns#"
   xmlns:svg="http://www.w3.org/2000/svg"
   xmlns="http://www.w3.org/2000/svg"
   xmlns:sodipodi="http://sodipodi.sourceforge.net/DTD/sodipodi-0.dtd"
   xmlns:inkscape="http://www.inkscape.org/namespaces/inkscape"
   version="1.1"
   width="55"
   height="55"
   id="svg2"
   inkscape:version="0.48.3.1 r9886"
   sodipodi:docname="JAMediaExplorer.svg">
  <metadata
     id="metadata29">
    <rdf:RDF>
      <cc:Work
         rdf:about="">
        <dc:format>image/svg+xml</dc:format>
        <dc:type
           rdf:resource="http://purl.org/dc/dcmitype/StillImage" />
        <dc:title></dc:title>
      </cc:Work>
    </rdf:RDF>
  </metadata>
  <sodipodi:namedview
     pagecolor="#ffffff"
     bordercolor="#666666"
     borderopacity="1"
     objecttolerance="10"
     gridtolerance="10"
     guidetolerance="10"
     inkscape:pageopacity="0"
     inkscape:pageshadow="2"
     inkscape:window-width="1366"
     inkscape:window-height="713"
     id="namedview27"
     showgrid="false"
     inkscape:zoom="6.2"
     inkscape:cx="45.321573"
     inkscape:cy="30.375919"
     inkscape:window-x="0"
     inkscape:window-y="27"
     inkscape:window-maximized="1"
     inkscape:current-layer="svg2" />
  <defs
     id="defs4" />
  <text
     xml:space="preserve"
     style="font-size:11.26966763px;font-style:normal;font-weight:normal;line-height:125%;letter-spacing:0px;word-spacing:0px;fill:#000000;fill-opacity:0.4627451;stroke:none;font-family:Sans"
     x="1.8379297"
     y="40.954464"
     id="text3057-8-6-5"
     sodipodi:linespacing="125%"
     transform="scale(0.998135,1.0018685)"
     inkscape:export-filename="/home/flavio/Documentos/JAMediaSuite/JAMediaObjects/Iconos/jamexplorer.png"
     inkscape:export-xdpi="3.0869229"
     inkscape:export-ydpi="3.0869229"><tspan
       sodipodi:role="line"
       id="tspan3059-75-8-7"
       x="1.8379297"
       y="40.954464"
       style="fill:#000000;fill-opacity:0.4627451;stroke:none">Extractor</tspan></text>
  <path
     inkscape:connector-curvature="0"
     style="fill:#000000;fill-opacity:0.32116789;stroke:none"
     d="m 16.881267,12.216746 3.193321,7.127762 -6.030448,-1.137647 5.604657,8.711992 c 0.862074,2.289452 0.618796,5.495946 -3.755928,7.284241 -1.94559,0.585794 -5.131554,1.475535 -7.4864096,-1.551686 l -1.744718,-2.676834 3.7928966,-1.639095 0.436406,1.233807 c 0.57917,1.303915 1.820868,1.070351 2.299977,0.250148 0.447612,-0.766288 0.146693,-1.631107 -0.396026,-2.724425 L 9.3745069,20.204379 3.6562103,24.769028 1.4328509,18.825077 16.881267,12.216746 z"
     id="path2816-5-6-6-3"
     sodipodi:nodetypes="cccccccccsscccc"
     inkscape:export-filename="/home/flavio/Documentos/JAMediaSuite/JAMediaObjects/Iconos/jamexplorer.png"
     inkscape:export-xdpi="3.0869229"
     inkscape:export-ydpi="3.0869229" />
  <path
     inkscape:connector-curvature="0"
     style="fill:#ff6600;stroke:#000000;stroke-width:1.14944291;stroke-linecap:butt;stroke-linejoin:miter;stroke-miterlimit:4;stroke-opacity:1;stroke-dasharray:none"
     d="m 17.638531,10.76737 3.193321,7.12776 -6.030446,-1.137644 5.604657,8.711991 c 0.862074,2.28945 0.618793,5.495946 -3.755927,7.284242 -1.945593,0.585791 -5.131555,1.475532 -7.4864129,-1.551687 l -1.744718,-2.676836 3.7928999,-1.639092 0.436406,1.233804 c 0.579169,1.303917 1.820864,1.070353 2.299973,0.250148 0.447612,-0.766285 0.146696,-1.631105 -0.396025,-2.724425 L 10.131771,18.755004 4.4134766,23.319653 2.1901172,17.375702 17.638531,10.76737 z"
     id="path2816-9-0-5"
     sodipodi:nodetypes="cccccccccsscccc"
     inkscape:export-filename="/home/flavio/Documentos/JAMediaSuite/JAMediaObjects/Iconos/jamexplorer.png"
     inkscape:export-xdpi="3.0869229"
     inkscape:export-ydpi="3.0869229" />
  <path
     inkscape:connector-curvature="0"
     style="fill:#000000;fill-opacity:0.32116789;stroke:none"
     d="m 22.657448,12.149653 -9.460349,16.295192 7.165641,1.440982 2.058305,-7.289275 2.491016,0.739287 0.32495,8.304225 7.955049,1.750895 -3.883548,-19.477045 -6.651064,-1.764261 z m 2.390774,5.178342 -0.06933,2.291366 -0.870436,-0.717565 0.939769,-1.573801 z"
     id="path2818-6-3-2-1"
     sodipodi:nodetypes="ccccccccccccc"
     inkscape:export-filename="/home/flavio/Documentos/JAMediaSuite/JAMediaObjects/Iconos/jamexplorer.png"
     inkscape:export-xdpi="3.0869229"
     inkscape:export-ydpi="3.0869229" />
  <path
     inkscape:connector-curvature="0"
     style="fill:#ff6600;stroke:#000000;stroke-width:1.14944291;stroke-linecap:butt;stroke-linejoin:miter;stroke-miterlimit:4;stroke-opacity:1;stroke-dasharray:none"
     d="m 23.414714,10.700278 -9.460351,16.295192 7.16564,1.440979 2.058305,-7.289273 2.491017,0.739287 0.324953,8.304225 7.955045,1.750896 -3.883548,-19.477045 -6.651061,-1.764261 z m 2.390774,5.178341 -0.06933,2.291367 -0.870436,-0.717565 0.939771,-1.573802 z"
     id="path2818-8-1-7"
     sodipodi:nodetypes="ccccccccccccc"
     inkscape:export-filename="/home/flavio/Documentos/JAMediaSuite/JAMediaObjects/Iconos/jamexplorer.png"
     inkscape:export-xdpi="3.0869229"
     inkscape:export-ydpi="3.0869229" />
  <path
     inkscape:connector-curvature="0"
     style="fill:#000000;fill-opacity:0.32116789;stroke:none"
     d="m 35.016006,11.83088 4.594446,2.734822 -0.06347,3.457438 2.926262,-1.697513 4.036622,0.142087 -1.783941,19.323998 -9.147839,-0.24783 4.466484,-13.013212 -4.122506,1.243128 -0.90768,-4.502729 -7.988578,11.412177 -4.482324,-5.272227 12.472524,-13.580139 z"
     id="path2820-7-8-6-9"
     sodipodi:nodetypes="ccccccccccccc"
     inkscape:export-filename="/home/flavio/Documentos/JAMediaSuite/JAMediaObjects/Iconos/jamexplorer.png"
     inkscape:export-xdpi="3.0869229"
     inkscape:export-ydpi="3.0869229" />
  <path
     inkscape:connector-curvature="0"
     style="fill:#ff6600;stroke:#000000;stroke-width:1.14944291;stroke-linecap:butt;stroke-linejoin:miter;stroke-miterlimit:4;stroke-opacity:1;stroke-dasharray:none"
     d="m 36.147507,10.70228 4.594446,2.734818 -0.06347,3.457442 2.926262,-1.697516 4.036622,0.14209 -1.783941,19.323998 -9.147839,-0.247831 4.466484,-13.013214 -4.122506,1.24313 -0.907681,-4.502729 -7.988577,11.412177 -4.482325,-5.272227 12.472525,-13.580138 z"
     id="path2820-4-0-4"
     sodipodi:nodetypes="ccccccccccccc"
     inkscape:export-filename="/home/flavio/Documentos/JAMediaSuite/JAMediaObjects/Iconos/jamexplorer.png"
     inkscape:export-xdpi="3.0869229"
     inkscape:export-ydpi="3.0869229" />
  <text
     xml:space="preserve"
     style="font-size:16.41913033px;font-style:normal;font-weight:normal;fill:#000000;fill-opacity:0.32116789;stroke:none;font-family:Bitstream Vera Sans"
     x="17.435068"
     y="32.417679"
     id="text2822-1-3-0-2"
     transform="scale(0.90999557,1.0989064)"
     inkscape:export-filename="/home/flavio/Documentos/JAMediaSuite/JAMediaObjects/Iconos/jamexplorer.png"
     inkscape:export-xdpi="3.0869229"
     inkscape:export-ydpi="3.0869229"><tspan
       sodipodi:role="line"
       id="tspan2824-4-6-4-6"
       x="17.435068"
       y="32.417679"
       style="font-weight:bold;fill:#000000;fill-opacity:0.32116789;stroke:none;-inkscape-font-specification:AlArabiya Bold">edi</tspan></text>
  <text
     xml:space="preserve"
     style="font-size:16.41913033px;font-style:normal;font-weight:normal;fill:#ffff00;fill-opacity:1;stroke:#000000;stroke-width:0.74312812;stroke-miterlimit:4;stroke-opacity:1;stroke-dasharray:none;font-family:Bitstream Vera Sans"
     x="18.208473"
     y="31.682568"
     id="text2822-2-7-0"
     transform="scale(0.90999557,1.0989064)"
     inkscape:export-filename="/home/flavio/Documentos/JAMediaSuite/JAMediaObjects/Iconos/jamexplorer.png"
     inkscape:export-xdpi="3.0869229"
     inkscape:export-ydpi="3.0869229"><tspan
       sodipodi:role="line"
       id="tspan2824-5-4-1"
       x="18.208473"
       y="31.682568"
       style="font-weight:bold;fill:#ffff00;stroke:#000000;stroke-width:0.74312812;stroke-miterlimit:4;stroke-opacity:1;stroke-dasharray:none;-inkscape-font-specification:AlArabiya Bold"><tspan
         style="fill:#00ffff;stroke-width:0.74312812"
         id="tspan3123-5">e</tspan><tspan
         style="fill:#00ff00;stroke-width:0.74312812"
         id="tspan3125-3">d</tspan><tspan
         style="fill:#00ffff;stroke-width:0.74312812"
         id="tspan3121-0">i</tspan></tspan></text>
  <g
     transform="matrix(0.02673123,0,0,0.02673123,3.4197538,12.470388)"
     id="g3861-0-8-1"
     inkscape:export-filename="/home/flavio/Documentos/JAMediaSuite/JAMediaObjects/Iconos/jamexplorer.png"
     inkscape:export-xdpi="3.0869229"
     inkscape:export-ydpi="3.0869229">
    <path
       inkscape:connector-curvature="0"
       sodipodi:nodetypes="cccccscccccccccccccc"
       id="path3761-8-9-3-3"
       d="m 1772.8028,865.33376 81.2745,-2.0831 -4.1679,-31.2598 -33.3434,-20.8395 -2.0841,-395.9532 c 0,0 -41.6791,-27.09119 -43.7632,6.2517 -2.0839,33.3441 0,81.2747 0,81.2747 l -197.9764,2.0843 c -17.4917,6.4544 -30.6012,15.5381 -29.1755,33.3429 l 0.084,31.2598 -95.9463,2.0843 c -11.831,12.4926 -20.2906,26.6709 -2.0839,54.1823 l 89.6103,0 2.084,200.061 -20.8396,6.2517 0,35.4272 72.9387,0 0,-91.6939 181.4727,-2.0843 1.916,91.6939 z"
       style="fill:#000000;fill-opacity:0.35036495;stroke:#000000;stroke-width:0;stroke-linecap:butt;stroke-linejoin:miter;stroke-miterlimit:4;stroke-opacity:1;stroke-dasharray:none" />
    <path
       inkscape:connector-curvature="0"
       sodipodi:nodetypes="ccscc"
       id="path3789-5-0-6-7"
       d="m 1703.3766,456.64166 c 0,0 -9.7645,-93.54274 84.0139,-116.46533 38.064,-28.63805 -56.633,-56.60839 -93.7784,-35.42837 -48.6708,27.75176 -48.8757,56.80478 -47.9311,56.26783 -17.5891,35.59336 0.7014,84.72747 57.6956,95.62587 z"
       style="fill:#000000;fill-opacity:0.35036495;stroke:#000000;stroke-width:0;stroke-linecap:butt;stroke-linejoin:miter;stroke-miterlimit:4;stroke-opacity:1;stroke-dasharray:none" />
    <path
       inkscape:connector-curvature="0"
       sodipodi:nodetypes="cccccc"
       id="path3791-5-1-5-0"
       d="m 1578.7586,433.41706 c 0,0 48.1668,-22.3863 29.411,-70.31698 -18.7556,-47.93181 -68.7706,-37.51149 -68.7706,-37.51149 0,0 -49.2071,11.39793 -45.8473,41.67892 37.7469,-16.3034 60.435,18.75633 60.435,18.75633 l 24.7719,47.39322 z"
       style="fill:#000000;fill-opacity:0.35036495;stroke:#000000;stroke-width:0;stroke-linecap:butt;stroke-linejoin:miter;stroke-miterlimit:4;stroke-opacity:1;stroke-dasharray:none" />
  </g>
  <path
     inkscape:connector-curvature="0"
     style="fill:#00ff00;fill-opacity:1;stroke:#000000;stroke-width:0.72174323;stroke-linecap:butt;stroke-linejoin:miter;stroke-miterlimit:4;stroke-opacity:1;stroke-dasharray:none"
     d="m 51.065979,35.067766 2.172568,-0.05569 -0.111413,-0.83561 -0.891311,-0.557066 -0.05571,-10.584318 c 0,0 -1.114134,-0.724182 -1.169844,0.167115 -0.05571,0.891329 0,2.172573 0,2.172573 l -5.292153,0.05572 c -0.467575,0.172534 -0.818008,0.415352 -0.779894,0.891297 l 0.0022,0.835612 -2.564762,0.05572 c -0.316258,0.333943 -0.54239,0.712949 -0.05571,1.448363 l 2.395394,0 0.05571,5.347873 -0.557068,0.167119 0,0.947012 1.949741,0 0,-2.45109 4.850988,-0.05572 0.05122,2.45109 z"
     id="path3761-89-2-0"
     sodipodi:nodetypes="cccccscccccccccccccc"
     inkscape:export-filename="/home/flavio/Documentos/JAMediaSuite/JAMediaObjects/Iconos/jamexplorer.png"
     inkscape:export-xdpi="3.0869229"
     inkscape:export-ydpi="3.0869229" />
  <path
     sodipodi:type="arc"
     style="fill:#000000;fill-opacity:1;stroke:none"
     id="path3763-3-7-5"
     sodipodi:cx="77.23214"
     sodipodi:cy="1154.4158"
     sodipodi:rx="1.6964285"
     sodipodi:ry="1.875"
     d="m 78.928568,1154.4158 a 1.6964285,1.875 0 1 1 -3.392857,0 1.6964285,1.875 0 1 1 3.392857,0 z"
     transform="matrix(0.31195856,0,0,0.31195856,25.619078,-332.38755)"
     inkscape:export-filename="/home/flavio/Documentos/JAMediaSuite/JAMediaObjects/Iconos/jamexplorer.png"
     inkscape:export-xdpi="3.0869229"
     inkscape:export-ydpi="3.0869229" />
  <path
     sodipodi:type="arc"
     style="fill:#000000;fill-opacity:1;stroke:none"
     id="path3763-9-6-2-1"
     sodipodi:cx="77.23214"
     sodipodi:cy="1154.4158"
     sodipodi:rx="1.6964285"
     sodipodi:ry="1.875"
     d="m 78.928568,1154.4158 a 1.6964285,1.875 0 1 1 -3.392857,0 1.6964285,1.875 0 1 1 3.392857,0 z"
     transform="matrix(0.31195856,0,0,0.31195856,23.418657,-332.13686)"
     inkscape:export-filename="/home/flavio/Documentos/JAMediaSuite/JAMediaObjects/Iconos/jamexplorer.png"
     inkscape:export-xdpi="3.0869229"
     inkscape:export-ydpi="3.0869229" />
  <path
     inkscape:connector-curvature="0"
     style="fill:#ff6600;stroke:#000000;stroke-width:0.09358757;stroke-linecap:butt;stroke-linejoin:miter;stroke-miterlimit:4;stroke-opacity:1;stroke-dasharray:none"
     d="m 46.720839,29.775606 c 0.187218,0.569201 0.389734,1.135842 1.448381,1.559794 1.577341,-0.07462 1.780829,-0.648516 2.061152,-1.155479 l 0.111413,-1.128496 c -1.194496,0.83357 -1.845928,1.19268 -3.286704,0.445665 l -0.334242,0.278516 z"
     id="path3787-7-4-4"
     sodipodi:nodetypes="cccccc"
     inkscape:export-filename="/home/flavio/Documentos/JAMediaSuite/JAMediaObjects/Iconos/jamexplorer.png"
     inkscape:export-xdpi="3.0869229"
     inkscape:export-ydpi="3.0869229" />
  <path
     inkscape:connector-curvature="0"
     style="fill:#ff6600;stroke:#000000;stroke-width:0.72174323;stroke-linecap:butt;stroke-linejoin:miter;stroke-miterlimit:4;stroke-opacity:1;stroke-dasharray:none"
     d="m 49.210132,24.142921 c 0,0 -0.261017,-2.500511 2.245794,-3.11326 1.017498,-0.765532 -1.513869,-1.513213 -2.506811,-0.947045 -1.301031,0.74184 -1.306508,1.518462 -1.281258,1.504107 -0.470178,0.951456 0.01875,2.264871 1.542275,2.556198 z"
     id="path3789-8-6-7"
     sodipodi:nodetypes="ccscc"
     inkscape:export-filename="/home/flavio/Documentos/JAMediaSuite/JAMediaObjects/Iconos/jamexplorer.png"
     inkscape:export-xdpi="3.0869229"
     inkscape:export-ydpi="3.0869229" />
  <path
     inkscape:connector-curvature="0"
     style="fill:#00ff00;fill-opacity:1;stroke:#000000;stroke-width:0.72174323;stroke-linecap:butt;stroke-linejoin:miter;stroke-miterlimit:4;stroke-opacity:1;stroke-dasharray:none"
     d="m 45.878939,23.522099 c 0,0 1.287558,-0.598413 0.786192,-1.87966 -0.50136,-1.281276 -1.838322,-1.002728 -1.838322,-1.002728 0,0 -1.315367,0.304682 -1.225555,1.114131 1.009021,-0.43581 1.615502,0.501379 1.615502,0.501379 l 0.662183,1.266878 z"
     id="path3791-8-8-2"
     sodipodi:nodetypes="cccccc"
     inkscape:export-filename="/home/flavio/Documentos/JAMediaSuite/JAMediaObjects/Iconos/jamexplorer.png"
     inkscape:export-xdpi="3.0869229"
     inkscape:export-ydpi="3.0869229" />
  <text
     xml:space="preserve"
     style="font-size:11.26966763px;font-style:normal;font-weight:normal;line-height:125%;letter-spacing:0px;word-spacing:0px;fill:#ff6600;fill-opacity:1;font-family:Sans"
     x="1.5354801"
     y="40.717766"
     id="text3057-8-6"
     sodipodi:linespacing="125%"
     transform="scale(0.998135,1.0018685)"
     inkscape:export-filename="/home/flavio/Documentos/JAMediaSuite/JAMediaObjects/Iconos/jamexplorer.png"
     inkscape:export-xdpi="3.0869229"
     inkscape:export-ydpi="3.0869229"><tspan
       sodipodi:role="line"
       id="tspan3059-75-8"
       x="1.5354801"
       y="40.717766"
       style="fill:#7cfc00;fill-opacity:1">Extractor</tspan></text>
</svg>
