<?xml version="1.0" encoding="UTF-8" standalone="no"?>
<!-- Created with Inkscape (http://www.inkscape.org/) -->

<svg
   xmlns:dc="http://purl.org/dc/elements/1.1/"
   xmlns:cc="http://creativecommons.org/ns#"
   xmlns:rdf="http://www.w3.org/1999/02/22-rdf-syntax-ns#"
   xmlns:svg="http://www.w3.org/2000/svg"
   xmlns="http://www.w3.org/2000/svg"
   xmlns:xlink="http://www.w3.org/1999/xlink"
   xmlns:sodipodi="http://sodipodi.sourceforge.net/DTD/sodipodi-0.dtd"
   xmlns:inkscape="http://www.inkscape.org/namespaces/inkscape"
   width="24"
   height="24"
   id="svg6662"
   version="1.1"
   inkscape:version="0.48.3.1 r9886"
   sodipodi:docname="object-rotate-right.svg">
  <defs
     id="defs6664">
    <linearGradient
       y2="11.02436"
       y1="3.0069399"
       x2="0"
       id="linearGradient1022-8-8-3-0-1-5"
       gradientUnits="userSpaceOnUse">
      <stop
         id="stop3001-0-9-4-2-8-6"
         offset="0" />
      <stop
         id="stop3003-5-6-6-2-2-5"
         stop-color="#363636"
         offset="1" />
    </linearGradient>
    <linearGradient
       y2="21.79097"
       x2="229.75757"
       y1="11.854909"
       x1="229.75757"
       gradientTransform="matrix(1.6799141,0,0,1.5096525,-140.97299,384.46539)"
       gradientUnits="userSpaceOnUse"
       id="linearGradient8124"
       xlink:href="#linearGradient1022-8-8-3-0-1-5"
       inkscape:collect="always" />
  </defs>
  <sodipodi:namedview
     id="base"
     pagecolor="#ffffff"
     bordercolor="#666666"
     borderopacity="1.0"
     inkscape:pageopacity="0.0"
     inkscape:pageshadow="2"
     inkscape:zoom="3.959798"
     inkscape:cx="31.628015"
     inkscape:cy="12.379252"
     inkscape:document-units="px"
     inkscape:current-layer="capa1"
     showgrid="false"
     inkscape:showpageshadow="false"
     inkscape:window-width="730"
     inkscape:window-height="702"
     inkscape:window-x="484"
     inkscape:window-y="36"
     inkscape:window-maximized="0" />
  <metadata
     id="metadata6667">
    <rdf:RDF>
      <cc:Work
         rdf:about="">
        <dc:format>image/svg+xml</dc:format>
        <dc:type
           rdf:resource="http://purl.org/dc/dcmitype/StillImage" />
        <dc:title />
      </cc:Work>
    </rdf:RDF>
  </metadata>
  <g
     inkscape:label="Capa 1"
     inkscape:groupmode="layer"
     id="capa1"
     transform="translate(0,-1028.3622)">
    <rect
       y="1028.3622"
       x="4.7412109e-06"
       height="23.999996"
       width="23.999996"
       id="rect3067"
       style="opacity:0.6;color:#000000;fill:none;stroke:none;stroke-width:1;marker:none;visibility:visible;display:inline;overflow:visible;enable-background:accumulate" />
    <path
       sodipodi:nodetypes="ccccccccccccccccccccc"
       style="opacity:0.6;color:#000000;fill:#ffffff;fill-opacity:1;fill-rule:nonzero;stroke:none;stroke-width:1;marker:none;visibility:visible;display:inline;overflow:visible;enable-background:accumulate"
       d="m 13.00002,1032.3622 4,4 -4,4 3,0 4,-4 -4.03125,-4 z m -5,3 -4,4 0,7 4,4 9,0 -3,-3 -5,0 -2,-2 0,-5 2,-2 5,0 2,-2 -1,-1 z"
       id="path6557"
       inkscape:connector-curvature="0" />
    <path
       inkscape:connector-curvature="0"
       id="path5831-1"
       d="m 13.00002,1031.3622 4,4 -4,4 3,0 4,-4 -4.03125,-4 z m -5,3 -4,4 0,7 4,4 9,0 -3,-3 -5,0 -2,-2 0,-5 2,-2 5,0 2,-2 -1,-1 z"
       style="opacity:0.69999999999999996;color:#000000;fill:#000000;fill-opacity:1;fill-rule:nonzero;stroke:none;stroke-width:1;marker:none;visibility:visible;display:inline;overflow:visible;enable-background:accumulate"
       sodipodi:nodetypes="ccccccccccccccccccccc" />
  </g>
</svg>
