<?xml version="1.0" encoding="UTF-8" standalone="no"?>
<svg
   xmlns:dc="http://purl.org/dc/elements/1.1/"
   xmlns:cc="http://creativecommons.org/ns#"
   xmlns:rdf="http://www.w3.org/1999/02/22-rdf-syntax-ns#"
   xmlns:svg="http://www.w3.org/2000/svg"
   xmlns="http://www.w3.org/2000/svg"
   xmlns:sodipodi="http://sodipodi.sourceforge.net/DTD/sodipodi-0.dtd"
   xmlns:inkscape="http://www.inkscape.org/namespaces/inkscape"
   enable-background="new 0 0 55 55"
   height="50"
   version="1.1"
   viewBox="0 0 50 50"
   width="50"
   x="0px"
   xml:space="preserve"
   y="0px"
   id="svg2"
   inkscape:version="0.48.3.1 r9886"
   sodipodi:docname="configurar.svg"><metadata
     id="metadata17"><rdf:RDF><cc:Work
         rdf:about=""><dc:format>image/svg+xml</dc:format><dc:type
           rdf:resource="http://purl.org/dc/dcmitype/StillImage" /><dc:title></dc:title></cc:Work></rdf:RDF></metadata><defs
     id="defs15">
	
		
	
</defs><sodipodi:namedview
     pagecolor="#ffffff"
     bordercolor="#666666"
     borderopacity="1"
     objecttolerance="10"
     gridtolerance="10"
     guidetolerance="10"
     inkscape:pageopacity="0"
     inkscape:pageshadow="2"
     inkscape:window-width="1366"
     inkscape:window-height="712"
     id="namedview13"
     showgrid="false"
     inkscape:zoom="4.2909091"
     inkscape:cx="27.5"
     inkscape:cy="27.5"
     inkscape:window-x="0"
     inkscape:window-y="27"
     inkscape:window-maximized="1"
     inkscape:current-layer="svg2" /><g
     id="g4202"
     transform="translate(-53.368644,-1.6313559)"><path
       inkscape:export-ydpi="32.776936"
       inkscape:export-xdpi="32.776936"
       inkscape:export-filename="/home/flavio/Documentos/Gtk3_Sugar_Port/JAMexplorer/Iconos/salir.png"
       transform="matrix(0.38880747,0,0,0.38880747,-24.773563,-111.7394)"
       d="m 324.28572,356.64789 c 0,32.34811 -26.22332,58.57143 -58.57143,58.57143 -32.3481,0 -58.57143,-26.22332 -58.57143,-58.57143 0,-32.34811 26.22333,-58.57143 58.57143,-58.57143 32.34811,0 58.57143,26.22332 58.57143,58.57143 z"
       sodipodi:ry="58.57143"
       sodipodi:rx="58.57143"
       sodipodi:cy="356.64789"
       sodipodi:cx="265.71429"
       id="path2985-97-8-5"
       style="fill:#ff6600;fill-opacity:1;stroke:#000000;stroke-width:6.4000001;stroke-miterlimit:4;stroke-dasharray:none"
       sodipodi:type="arc" /><path
       inkscape:connector-curvature="0"
       inkscape:export-ydpi="32.776936"
       inkscape:export-xdpi="32.776936"
       inkscape:export-filename="/home/flavio/Documentos/Gtk3_Sugar_Port/JAMexplorer/Iconos/salir.png"
       id="rect3096"
       d="m 71.207344,10.614502 c -0.08779,0 -0.175003,0.03072 -0.243005,0.0972 l -8.468732,8.28642 c -0.135966,0.133089 -0.145219,0.350043 -0.01205,0.486009 l 7.290138,7.448113 -7.29014,7.448111 c -0.13305,0.135967 -0.123835,0.352921 0.01205,0.48601 l 8.468732,8.274288 c 0.136004,0.133051 0.340789,0.136005 0.47384,0 l 7.095735,-7.253668 7.095736,7.253668 c 0.133088,0.136005 0.350043,0.133051 0.486009,0 L 94.5844,34.866367 c 0.136,-0.133089 0.13304,-0.350043 0,-0.48601 L 87.294253,26.932246 94.5844,19.484133 c 0.13304,-0.135966 0.136,-0.35292 0,-0.486009 l -8.468741,-8.28642 c -0.135966,-0.133089 -0.352921,-0.123874 -0.486009,0.01205 l -7.095735,7.25367 -7.095736,-7.25367 c -0.06652,-0.068 -0.143043,-0.1084 -0.230835,-0.109372 z"
       style="fill:#ffffff;fill-opacity:1;stroke:#000000;stroke-width:2.4883678;stroke-miterlimit:4;stroke-opacity:1;stroke-dasharray:none" /></g></svg>