<?xml version="1.0" encoding="UTF-8" standalone="no"?>
<svg
   xmlns:dc="http://purl.org/dc/elements/1.1/"
   xmlns:cc="http://creativecommons.org/ns#"
   xmlns:rdf="http://www.w3.org/1999/02/22-rdf-syntax-ns#"
   xmlns:svg="http://www.w3.org/2000/svg"
   xmlns="http://www.w3.org/2000/svg"
   xmlns:sodipodi="http://sodipodi.sourceforge.net/DTD/sodipodi-0.dtd"
   xmlns:inkscape="http://www.inkscape.org/namespaces/inkscape"
   enable-background="new 0 0 55 55"
   height="55px"
   version="1.1"
   viewBox="0 0 55 55"
   width="55px"
   x="0px"
   xml:space="preserve"
   y="0px"
   id="svg2"
   inkscape:version="0.48.3.1 r9886"
   sodipodi:docname="activity-terminal.svg"><metadata
     id="metadata17"><rdf:RDF><cc:Work
         rdf:about=""><dc:format>image/svg+xml</dc:format><dc:type
           rdf:resource="http://purl.org/dc/dcmitype/StillImage" /></cc:Work></rdf:RDF></metadata><defs
     id="defs15" /><sodipodi:namedview
     pagecolor="#ffffff"
     bordercolor="#666666"
     borderopacity="1"
     objecttolerance="10"
     gridtolerance="10"
     guidetolerance="10"
     inkscape:pageopacity="0"
     inkscape:pageshadow="2"
     inkscape:window-width="1366"
     inkscape:window-height="712"
     id="namedview13"
     showgrid="false"
     inkscape:zoom="4.2909091"
     inkscape:cx="27.5"
     inkscape:cy="27.5"
     inkscape:window-x="0"
     inkscape:window-y="27"
     inkscape:window-maximized="1"
     inkscape:current-layer="svg2" /><g
     display="block"
     id="activity-terminal"
     style="fill:none">
	
		<rect
   fill="#FFFFFF"
   height="32.442"
   stroke="#010101"
   stroke-linecap="round"
   stroke-width="3.5"
   width="43.457"
   x="5.646"
   y="9.404"
   id="rect5"
   style="fill:none" />
	<g
   id="g7"
   style="fill:none">
        <path
   d="M11,16 l7,5 l-7,5"
   fill="none"
   stroke="#010101"
   stroke-width="2.25"
   id="path9"
   style="fill:none" />
		<path
   d="M27.646,27.813v1.392h-7.501v-1.392H27.646z"
   fill="#010101"
   stroke="#010101"
   stroke-width="0.5"
   id="path11"
   style="fill:none" />
	</g>
</g><g
     id="g3861"
     transform="matrix(0.04449376,0,0,0.04449376,-34.059372,2.323575)"><path
       d="m 1772.8028,865.33376 81.2745,-2.0831 -4.1679,-31.2598 -33.3434,-20.8395 -2.0841,-395.9532 c 0,0 -41.6791,-27.09119 -43.7632,6.2517 -2.0839,33.3441 0,81.2747 0,81.2747 l -197.9764,2.0843 c -17.4917,6.4544 -30.6012,15.5381 -29.1755,33.3429 l 0.084,31.2598 -95.9463,2.0843 c -11.831,12.4926 -20.2906,26.6709 -2.0839,54.1823 l 89.6103,0 2.084,200.061 -20.8396,6.2517 0,35.4272 72.9387,0 0,-91.6939 181.4727,-2.0843 1.916,91.6939 z"
       id="path3761-8"
       style="fill:#000000;fill-opacity:0.35036495;stroke:#000000;stroke-width:0;stroke-linecap:butt;stroke-linejoin:miter;stroke-miterlimit:4;stroke-opacity:1;stroke-dasharray:none"
       inkscape:connector-curvature="0" /><path
       d="m 1703.3766,456.64166 c 0,0 -9.7645,-93.54274 84.0139,-116.46533 38.064,-28.63805 -56.633,-56.60839 -93.7784,-35.42837 -48.6708,27.75176 -48.8757,56.80478 -47.9311,56.26783 -17.5891,35.59336 0.7014,84.72747 57.6956,95.62587 z"
       id="path3789-5"
       style="fill:#000000;fill-opacity:0.35036495;stroke:#000000;stroke-width:0;stroke-linecap:butt;stroke-linejoin:miter;stroke-miterlimit:4;stroke-opacity:1;stroke-dasharray:none"
       inkscape:connector-curvature="0" /><path
       d="m 1578.7586,433.41706 c 0,0 48.1668,-22.3863 29.411,-70.31698 -18.7556,-47.93181 -68.7706,-37.51149 -68.7706,-37.51149 0,0 -49.2071,11.39793 -45.8473,41.67892 37.7469,-16.3034 60.435,18.75633 60.435,18.75633 l 24.7719,47.39322 z"
       id="path3791-5"
       style="fill:#000000;fill-opacity:0.35036495;stroke:#000000;stroke-width:0;stroke-linecap:butt;stroke-linejoin:miter;stroke-miterlimit:4;stroke-opacity:1;stroke-dasharray:none"
       inkscape:connector-curvature="0" /></g><path
     inkscape:connector-curvature="0"
     style="fill:#00ff00;fill-opacity:1;stroke:#000000;stroke-width:0.10385026;stroke-linecap:butt;stroke-linejoin:miter;stroke-miterlimit:4;stroke-opacity:1;stroke-dasharray:none"
     id="path3761"
     d="m 45.247223,39.936658 3.616211,-0.09261 -0.185445,-1.390866 -1.483573,-0.927201 -0.09266,-17.617499 c 0,0 -1.854467,-1.205385 -1.947196,0.278185 -0.09263,1.483586 0,3.616209 0,3.616209 l -8.808722,0.09265 c -0.77828,0.287174 -1.361563,0.691344 -1.298132,1.48354 l 0.0039,1.390865 -4.269018,0.09265 c -0.526406,0.555826 -0.902805,1.186677 -0.09263,2.410769 l 3.987107,0 0.09263,8.901472 -0.927235,0.278152 0,1.576291 3.245319,0 0,-4.079787 8.074415,-0.09264 0.08521,4.07982 z" /><path
     inkscape:connector-curvature="0"
     style="fill:#000000;fill-opacity:1;stroke:none"
     id="path3763"
     d="m 43.874908,27.74356 a 0.88087387,0.97359748 0 0 1 -1.761747,0 0.88087387,0.97359748 0 1 1 1.761747,0 z" /><path
     inkscape:connector-curvature="0"
     style="fill:#000000;fill-opacity:1;stroke:none"
     id="path3763-9"
     d="m 40.212334,28.160806 a 0.8808735,0.97359708 0 0 1 -1.761742,0 0.8808735,0.97359708 0 1 1 1.761742,0 z" /><path
     inkscape:connector-curvature="0"
     style="fill:#ffffff;stroke:#000000;stroke-width:0.15577537;stroke-linecap:butt;stroke-linejoin:miter;stroke-miterlimit:4;stroke-opacity:1;stroke-dasharray:none"
     id="path3787"
     d="m 38.014789,31.127907 c 0.311626,0.947447 0.648705,1.890613 2.41081,2.596252 2.625465,-0.124249 2.964171,-1.079438 3.430764,-1.923258 l 0.185446,-1.878379 c -1.988223,1.38747 -3.072522,1.985211 -5.470681,0.741814 l -0.556339,0.463571 z" /><path
     inkscape:connector-curvature="0"
     style="fill:#ff6600;fill-opacity:1;stroke:#000000;stroke-width:0.15577537;stroke-linecap:butt;stroke-linejoin:miter;stroke-miterlimit:4;stroke-opacity:1;stroke-dasharray:none"
     id="path3789"
     d="m 42.158189,21.752383 c 0,0 -0.43446,-4.162062 3.738097,-5.181992 1.693613,-1.274217 -2.519822,-2.518728 -4.172557,-1.576338 -2.165553,1.234781 -2.174669,2.527458 -2.132639,2.503563 -0.78261,1.583694 0.03105,3.769841 2.567099,4.254767 z" /><path
     inkscape:connector-curvature="0"
     style="fill:#00ff00;fill-opacity:1;stroke:#000000;stroke-width:0.08898754;stroke-linecap:butt;stroke-linejoin:miter;stroke-miterlimit:4;stroke-opacity:1;stroke-dasharray:none"
     id="path3791"
     d="m 36.613454,20.719017 c 0,0 2.143125,-0.996048 1.308612,-3.128648 -0.834511,-2.132673 -3.059872,-1.669044 -3.059872,-1.669044 0,0 -2.189413,0.507142 -2.039918,1.854465 1.679501,-0.725399 2.688982,0.834544 2.688982,0.834544 l 1.102196,2.108683 z" /></svg>