<?xml version="1.0" encoding="UTF-8" standalone="no"?>
<!-- Created with Inkscape (http://www.inkscape.org/) -->

<svg
   xmlns:dc="http://purl.org/dc/elements/1.1/"
   xmlns:cc="http://creativecommons.org/ns#"
   xmlns:rdf="http://www.w3.org/1999/02/22-rdf-syntax-ns#"
   xmlns:svg="http://www.w3.org/2000/svg"
   xmlns="http://www.w3.org/2000/svg"
   xmlns:sodipodi="http://sodipodi.sourceforge.net/DTD/sodipodi-0.dtd"
   xmlns:inkscape="http://www.inkscape.org/namespaces/inkscape"
   version="1.1"
   width="96.970001"
   height="25.27"
   id="svg2"
   inkscape:version="0.48.3.1 r9886"
   sodipodi:docname="JAMediaTerminal.svg">
  <metadata
     id="metadata29">
    <rdf:RDF>
      <cc:Work
         rdf:about="">
        <dc:format>image/svg+xml</dc:format>
        <dc:type
           rdf:resource="http://purl.org/dc/dcmitype/StillImage" />
        <dc:title></dc:title>
      </cc:Work>
    </rdf:RDF>
  </metadata>
  <sodipodi:namedview
     pagecolor="#ffffff"
     bordercolor="#666666"
     borderopacity="1"
     objecttolerance="10"
     gridtolerance="10"
     guidetolerance="10"
     inkscape:pageopacity="0"
     inkscape:pageshadow="2"
     inkscape:window-width="1366"
     inkscape:window-height="712"
     id="namedview27"
     showgrid="false"
     inkscape:zoom="6.2"
     inkscape:cx="52.179146"
     inkscape:cy="5.8140828"
     inkscape:window-x="0"
     inkscape:window-y="27"
     inkscape:window-maximized="1"
     inkscape:current-layer="svg2"
     fit-margin-top="0"
     fit-margin-left="0"
     fit-margin-right="0"
     fit-margin-bottom="0" />
  <defs
     id="defs4" />
  <path
     d="m 14.60654,3.3386189 2.872601,6.4118818 -5.424774,-1.0233878 5.04175,7.8370241 c 0.775494,2.059497 0.556648,4.943959 -3.378704,6.552646 -1.750182,0.526954 -4.6161776,1.327343 -6.7345172,-1.395848 l -1.5694889,-2.407989 3.4119535,-1.47447 0.392584,1.109894 c 0.521,1.172962 1.6379846,0.962842 2.0689706,0.225028 0.402655,-0.689327 0.131964,-1.467297 -0.356241,-2.450801 L 7.8537098,10.524018 2.7097352,14.630215 0.70967742,9.2832459 14.60654,3.3386189 z"
     id="path2816-5"
     style="fill:#000000;fill-opacity:0.32116789;stroke:none"
     inkscape:connector-curvature="0" />
  <path
     d="m 15.287748,2.0348079 2.872603,6.411888 -5.424779,-1.023386 5.041749,7.8370031 c 0.775493,2.059517 0.556655,4.943979 -3.378704,6.552667 -1.750178,0.526954 -4.6161566,1.327326 -6.7345132,-1.395848 l -1.569487,-2.407989 3.4119676,-1.47447 0.392563,1.10988 c 0.5210006,1.172956 1.6379916,0.962853 2.0689906,0.225021 0.402656,-0.689315 0.131953,-1.467277 -0.356259,-2.450798 L 8.5349348,9.2202049 3.3909442,13.32641 1.3908876,7.9794399 15.287748,2.0348079 z"
     id="path2816"
     style="fill:#ff6600;stroke:#000000;stroke-width:1.03400004;stroke-linecap:butt;stroke-linejoin:miter;stroke-miterlimit:4;stroke-opacity:1;stroke-dasharray:none"
     inkscape:connector-curvature="0" />
  <path
     d="m 19.802595,3.2782599 -8.510198,14.6585991 6.44596,1.296259 1.851583,-6.557179 2.240827,0.665036 0.292313,7.470186 7.156096,1.57506 -3.49351,-17.5208881 -5.983071,-1.587073 z m 2.150662,4.658266 -0.06245,2.0612358 -0.783008,-0.6455008 0.845383,-1.415735 z"
     id="path2818-6"
     style="fill:#000000;fill-opacity:0.32116789;stroke:none"
     inkscape:connector-curvature="0" />
  <path
     d="m 20.483812,1.9744499 -8.51021,14.6586061 6.44596,1.296246 1.851583,-6.55717 2.240838,0.665033 0.292309,7.470192 7.156092,1.575041 -3.493511,-17.5208761 -5.983061,-1.587072 z m 2.150657,4.658259 -0.06245,2.061235 -0.783018,-0.645494 0.845386,-1.415741 z"
     id="path2818"
     style="fill:#ff6600;stroke:#000000;stroke-width:1.03400004;stroke-linecap:butt;stroke-linejoin:miter;stroke-miterlimit:4;stroke-opacity:1;stroke-dasharray:none"
     inkscape:connector-curvature="0" />
  <path
     d="m 30.919936,2.9915089 4.133004,2.460152 -0.05715,3.110191 2.632364,-1.527027 3.631209,0.127811 L 39.654592,24.545844 31.425508,24.322912 35.443401,12.616668 31.734937,13.734945 30.918431,9.6844437 23.732178,19.950442 19.700037,15.20773 30.919897,2.9915089 z"
     id="path2820-7"
     style="fill:#000000;fill-opacity:0.32116789;stroke:none"
     inkscape:connector-curvature="0" />
  <path
     d="m 31.937797,1.9762479 4.133001,2.460151 -0.05715,3.110197 2.632364,-1.527026 3.631208,0.127824 L 40.672452,23.530598 32.443368,23.30765 36.461264,11.601421 32.752801,12.719695 31.936286,8.6691929 24.750032,18.9352 20.717887,14.192488 31.937752,1.9762479 z"
     id="path2820"
     style="fill:#ff6600;stroke:#000000;stroke-width:1.03400004;stroke-linecap:butt;stroke-linejoin:miter;stroke-miterlimit:4;stroke-opacity:1;stroke-dasharray:none"
     inkscape:connector-curvature="0" />
  <text
     x="15.047438"
     y="22.199354"
     transform="scale(0.90999577,1.0989062)"
     id="text2822-1"
     xml:space="preserve"
     style="font-size:14.77009296px;font-style:normal;font-weight:normal;fill:#000000;fill-opacity:0.32116789;stroke:none;font-family:Bitstream Vera Sans"><tspan
       x="15.047438"
       y="22.199354"
       id="tspan2824-4"
       style="font-weight:bold;fill:#000000;fill-opacity:0.32116789;stroke:none;-inkscape-font-specification:AlArabiya Bold">edi</tspan></text>
  <text
     x="15.743164"
     y="21.538076"
     transform="scale(0.90999577,1.0989062)"
     id="text2822"
     xml:space="preserve"
     style="font-size:14.77009295999999949px;font-style:normal;font-weight:normal;fill:#fffafa;fill-opacity:1;stroke:#000000;stroke-width:0.66849278999999995;stroke-miterlimit:4;stroke-opacity:1;stroke-dasharray:none;font-family:Bitstream Vera Sans"><tspan
       x="15.743164"
       y="21.538076"
       id="tspan2824"
       style="font-weight:bold;fill:#fffafa;stroke:#000000;stroke-width:0.66849278999999995;stroke-miterlimit:4;stroke-opacity:1;stroke-dasharray:none;-inkscape-font-specification:AlArabiya Bold"><tspan
         style="fill:#fffafa;stroke-width:0.66849278999999995;stroke:#000000"
         id="tspan3825">e</tspan><tspan
         id="tspan3831"
         style="fill:#fffafa;stroke-width:0.66849278999999995;stroke:#000000">d</tspan><tspan
         style="fill:#fffafa;stroke-width:0.66849278999999995;stroke:#000000"
         id="tspan3833">i</tspan></tspan></text>
  <g
     id="g3861"
     transform="matrix(0.02404647,0,0,0.02404647,2.4970256,3.5667769)">
    <path
       d="m 1772.8028,865.33376 81.2745,-2.0831 -4.1679,-31.2598 -33.3434,-20.8395 -2.0841,-395.9532 c 0,0 -41.6791,-27.09119 -43.7632,6.2517 -2.0839,33.3441 0,81.2747 0,81.2747 l -197.9764,2.0843 c -17.4917,6.4544 -30.6012,15.5381 -29.1755,33.3429 l 0.084,31.2598 -95.9463,2.0843 c -11.831,12.4926 -20.2906,26.6709 -2.0839,54.1823 l 89.6103,0 2.084,200.061 -20.8396,6.2517 0,35.4272 72.9387,0 0,-91.6939 181.4727,-2.0843 1.916,91.6939 z"
       id="path3761-8"
       style="fill:#000000;fill-opacity:0.35036495;stroke:#000000;stroke-width:0;stroke-linecap:butt;stroke-linejoin:miter;stroke-miterlimit:4;stroke-opacity:1;stroke-dasharray:none"
       inkscape:connector-curvature="0" />
    <path
       d="m 1703.3766,456.64166 c 0,0 -9.7645,-93.54274 84.0139,-116.46533 38.064,-28.63805 -56.633,-56.60839 -93.7784,-35.42837 -48.6708,27.75176 -48.8757,56.80478 -47.9311,56.26783 -17.5891,35.59336 0.7014,84.72747 57.6956,95.62587 z"
       id="path3789-5"
       style="fill:#000000;fill-opacity:0.35036495;stroke:#000000;stroke-width:0;stroke-linecap:butt;stroke-linejoin:miter;stroke-miterlimit:4;stroke-opacity:1;stroke-dasharray:none"
       inkscape:connector-curvature="0" />
    <path
       d="m 1578.7586,433.41706 c 0,0 48.1668,-22.3863 29.411,-70.31698 -18.7556,-47.93181 -68.7706,-37.51149 -68.7706,-37.51149 0,0 -49.2071,11.39793 -45.8473,41.67892 37.7469,-16.3034 60.435,18.75633 60.435,18.75633 l 24.7719,47.39322 z"
       id="path3791-5"
       style="fill:#000000;fill-opacity:0.35036495;stroke:#000000;stroke-width:0;stroke-linecap:butt;stroke-linejoin:miter;stroke-miterlimit:4;stroke-opacity:1;stroke-dasharray:none"
       inkscape:connector-curvature="0" />
  </g>
  <path
     inkscape:connector-curvature="0"
     style="fill:#00ff00;fill-opacity:1;stroke:#000000;stroke-width:0.05612544;stroke-linecap:butt;stroke-linejoin:miter;stroke-miterlimit:4;stroke-opacity:1;stroke-dasharray:none"
     id="path3761"
     d="m 45.357944,23.894613 1.954366,-0.05005 -0.100223,-0.751688 -0.801791,-0.501102 -0.05008,-9.521304 c 0,0 -1.002239,-0.651445 -1.052354,0.150344 -0.05006,0.801798 0,1.954365 0,1.954365 l -4.760637,0.05007 c -0.420618,0.155202 -0.735851,0.373634 -0.70157,0.801773 l 0.0021,0.751687 -2.307173,0.05007 c -0.284494,0.300394 -0.487917,0.641335 -0.05006,1.30289 l 2.154815,0 0.05006,4.810764 -0.50112,0.150326 0,0.8519 1.753919,0 0,-2.204904 4.363784,-0.05007 0.04605,2.204922 z" />
  <path
     inkscape:connector-curvature="0"
     style="fill:#000000;fill-opacity:1;stroke:none"
     id="path3763"
     d="m 44.616282,17.304904 a 0.47606462,0.52617671 0 0 1 -0.952129,0 0.47606462,0.52617671 0 1 1 0.952129,0 z" />
  <path
     inkscape:connector-curvature="0"
     style="fill:#000000;fill-opacity:1;stroke:none"
     id="path3763-9"
     d="m 42.636859,17.530403 a 0.47606442,0.52617649 0 0 1 -0.952126,0 0.47606442,0.52617649 0 1 1 0.952126,0 z" />
  <path
     inkscape:connector-curvature="0"
     style="fill:#ffffff;stroke:#000000;stroke-width:0.08418815;stroke-linecap:butt;stroke-linejoin:miter;stroke-miterlimit:4;stroke-opacity:1;stroke-dasharray:none"
     id="path3787"
     d="m 41.449205,19.13396 c 0.168417,0.512044 0.35059,1.021774 1.302912,1.403134 1.418922,-0.06715 1.601974,-0.583378 1.854142,-1.039417 l 0.100224,-1.015162 c -1.074527,0.749852 -1.660532,1.072899 -2.956607,0.40091 l -0.300671,0.250535 z" />
  <path
     inkscape:connector-curvature="0"
     style="fill:#ff6600;fill-opacity:1;stroke:#000000;stroke-width:0.08418815;stroke-linecap:butt;stroke-linejoin:miter;stroke-miterlimit:4;stroke-opacity:1;stroke-dasharray:none"
     id="path3789"
     d="m 43.688488,14.066997 c 0,0 -0.234802,-2.249369 2.020239,-2.800587 0.915306,-0.688645 -1.361827,-1.3612363 -2.255041,-0.851925 -1.170364,0.667332 -1.175291,1.365955 -1.152576,1.353041 -0.422958,0.855901 0.01678,2.037395 1.387378,2.299471 z" />
  <path
     inkscape:connector-curvature="0"
     style="fill:#fffafa;fill-opacity:1;stroke:#000000;stroke-width:0.04809295000000000;stroke-linecap:butt;stroke-linejoin:miter;stroke-miterlimit:4;stroke-opacity:1;stroke-dasharray:none"
     id="path3791"
     d="m 40.691859,13.508519 c 0,0 1.158243,-0.53831 0.707234,-1.690865 -0.451008,-1.152595 -1.653695,-0.902029 -1.653695,-0.902029 0,0 -1.183259,0.274083 -1.102465,1.002239 0.907679,-0.392039 1.453249,0.451026 1.453249,0.451026 l 0.595677,1.139629 z" />
  <text
     xml:space="preserve"
     style="font-size:11.24005318px;font-style:normal;font-weight:normal;line-height:125%;letter-spacing:0px;word-spacing:0px;fill:#000000;fill-opacity:1;stroke:none;font-family:Sans"
     x="49.138653"
     y="24.267797"
     id="text3420"
     sodipodi:linespacing="125%"><tspan
       sodipodi:role="line"
       id="tspan3422"
       x="49.138653"
       y="24.267797">Terminal</tspan></text>
</svg>
