<?xml version="1.0" encoding="UTF-8" standalone="no"?>
<!-- Generator: Adobe Illustrator 15.0.0, SVG Export Plug-In . SVG Version: 6.00 Build 0)  -->

<svg
   xmlns:dc="http://purl.org/dc/elements/1.1/"
   xmlns:cc="http://creativecommons.org/ns#"
   xmlns:rdf="http://www.w3.org/1999/02/22-rdf-syntax-ns#"
   xmlns:svg="http://www.w3.org/2000/svg"
   xmlns="http://www.w3.org/2000/svg"
   xmlns:sodipodi="http://sodipodi.sourceforge.net/DTD/sodipodi-0.dtd"
   xmlns:inkscape="http://www.inkscape.org/namespaces/inkscape"
   version="1.1"
   id="Layer_1"
   x="0px"
   y="0px"
   width="49.986191"
   height="50.007442"
   viewBox="0 0 49.986191 50.007443"
   xml:space="preserve"
   inkscape:version="0.48.4 r9939"
   sodipodi:docname="convert.svg"><metadata
     id="metadata3124"><rdf:RDF><cc:Work
         rdf:about=""><dc:format>image/svg+xml</dc:format><dc:type
           rdf:resource="http://purl.org/dc/dcmitype/StillImage" /><dc:title /></cc:Work></rdf:RDF></metadata><defs
     id="defs3122" /><sodipodi:namedview
     pagecolor="#ffffff"
     bordercolor="#666666"
     borderopacity="1"
     objecttolerance="10"
     gridtolerance="10"
     guidetolerance="10"
     inkscape:pageopacity="0"
     inkscape:pageshadow="2"
     inkscape:window-width="1366"
     inkscape:window-height="713"
     id="namedview3120"
     showgrid="false"
     fit-margin-top="0"
     fit-margin-left="0"
     fit-margin-right="0"
     fit-margin-bottom="0"
     inkscape:zoom="3.3712566"
     inkscape:cx="-40.705005"
     inkscape:cy="14.613241"
     inkscape:window-x="0"
     inkscape:window-y="27"
     inkscape:window-maximized="1"
     inkscape:current-layer="g3759" /><g
     id="g3759"
     transform="translate(99.742959,18.363414)"><path
       transform="matrix(0.68008423,0,0,0.68008423,-23.913568,2.1241236)"
       d="m -41.230915,6.6396337 c 0,18.5118433 -15.006814,33.5186573 -33.518658,33.5186573 -18.511843,0 -33.518657,-15.006814 -33.518657,-33.5186573 0,-18.5118437 15.006814,-33.5186577 33.518657,-33.5186577 18.511844,0 33.518658,15.006814 33.518658,33.5186577 z"
       sodipodi:ry="33.518658"
       sodipodi:rx="33.518658"
       sodipodi:cy="6.6396337"
       sodipodi:cx="-74.749573"
       id="path2989"
       style="fill:#ff6600;fill-opacity:1;stroke:#ff6600;stroke-width:6.48299073999999997;stroke-miterlimit:4;stroke-opacity:1;stroke-dasharray:none"
       sodipodi:type="arc" /><path
       inkscape:connector-curvature="0"
       id="path3106"
       d="M -65.724486,11.305722 V -2.159982 l 0.0061,-0.044924 -0.0061,8.774e-4 v -8.774e-4 l -0.01342,0.00175 -13.101275,1.75456505 h -8.78e-4 V 10.190912 c -0.518802,-0.166289 -1.102218,-0.2326307 -1.710123,-0.17322 -1.924979,0.186882 -3.366488,1.557495 -3.220581,3.059705 0.146345,1.504166 1.824162,2.571911 3.748701,2.385028 1.926067,-0.186671 3.367567,-1.556846 3.22166,-3.061442 -0.0035,-0.02597 0.0035,-0.07458 0.0035,-0.07458 V 3.0972114 l 9.029752,-1.3187929 v 7.3913843 c -0.518372,-0.1658505 -1.10135,-0.2332805 -1.710343,-0.1743089 -1.924969,0.1866717 -3.366268,1.5579341 -3.221221,3.0614431 0.146986,1.504596 1.825242,2.571261 3.749132,2.384589 1.924978,-0.187961 3.367566,-1.557496 3.220572,-3.061004 -0.0018,-0.02518 0.0044,-0.07484 0.0044,-0.07484 z"
       style="fill:#000000;fill-opacity:1;stroke:#000000;stroke-width:0.87742293000000005" /><g
       transform="matrix(0.21680073,0,0,0.21680073,-140.78003,-65.234037)"
       id="g3108"
       style="fill:#ffffff;fill-opacity:1;stroke:#ffffff"><g
         id="g3110"
         style="fill:#ffffff;fill-opacity:1;stroke:#ffffff"><path
           inkscape:connector-curvature="0"
           id="path3112"
           d="m 233.292,305.384 c 10.721,-29.585 39.098,-50.782 72.338,-50.782 33.24,0 61.619,21.197 72.34,50.782 h 13.431 c -11.215,-36.732 -45.417,-63.531 -85.771,-63.531 -40.354,0 -74.554,26.799 -85.771,63.531 h 13.433 z"
           style="fill:#ffffff;fill-opacity:1;stroke:#ffffff" /><path
           inkscape:connector-curvature="0"
           id="path3114"
           d="m 377.97,357.654 c -10.721,29.585 -39.1,50.783 -72.34,50.783 -33.24,0 -61.618,-21.198 -72.338,-50.783 l -13.432,10e-4 c 11.216,36.731 45.417,63.53 85.771,63.531 40.354,-10e-4 74.556,-26.8 85.771,-63.531 l -13.432,-10e-4 z"
           style="fill:#ffffff;fill-opacity:1;stroke:#ffffff" /></g><polygon
         id="polygon3116"
         points="225.95,328.21 248.511,364.322 203.389,364.322 "
         style="fill:#ffffff;fill-opacity:1;stroke:#ffffff" /><polygon
         id="polygon3118"
         points="383.184,335.889 360.624,299.776 405.746,299.776 "
         style="fill:#ffffff;fill-opacity:1;stroke:#ffffff" /></g></g></svg>