<?xml version="1.0" encoding="UTF-8" standalone="no"?>
<svg
   xmlns:dc="http://purl.org/dc/elements/1.1/"
   xmlns:cc="http://creativecommons.org/ns#"
   xmlns:rdf="http://www.w3.org/1999/02/22-rdf-syntax-ns#"
   xmlns:svg="http://www.w3.org/2000/svg"
   xmlns="http://www.w3.org/2000/svg"
   xmlns:sodipodi="http://sodipodi.sourceforge.net/DTD/sodipodi-0.dtd"
   xmlns:inkscape="http://www.inkscape.org/namespaces/inkscape"
   enable-background="new 0 0 55 55"
   height="49.43269"
   version="1.1"
   viewBox="0 0 49.43269 49.43269"
   width="49.43269"
   x="0px"
   xml:space="preserve"
   y="0px"
   id="svg2"
   inkscape:version="0.48.4 r9939"
   sodipodi:docname="monitor.svg"><metadata
     id="metadata17"><rdf:RDF><cc:Work
         rdf:about=""><dc:format>image/svg+xml</dc:format><dc:type
           rdf:resource="http://purl.org/dc/dcmitype/StillImage" /><dc:title /></cc:Work></rdf:RDF></metadata><defs
     id="defs15" /><sodipodi:namedview
     pagecolor="#ffffff"
     bordercolor="#666666"
     borderopacity="1"
     objecttolerance="10"
     gridtolerance="10"
     guidetolerance="10"
     inkscape:pageopacity="0"
     inkscape:pageshadow="2"
     inkscape:window-width="1366"
     inkscape:window-height="713"
     id="namedview13"
     showgrid="false"
     inkscape:zoom="8.5818182"
     inkscape:cx="27.039651"
     inkscape:cy="26.340492"
     inkscape:window-x="0"
     inkscape:window-y="27"
     inkscape:window-maximized="1"
     inkscape:current-layer="g3536"
     fit-margin-top="0"
     fit-margin-left="0"
     fit-margin-right="0"
     fit-margin-bottom="0" /><g
     id="g3536"
     transform="matrix(0.40012584,0,0,0.40012584,-10.159029,1.259817)"><path
       inkscape:export-ydpi="32.776936"
       inkscape:export-xdpi="32.776936"
       inkscape:export-filename="/home/flavio/Documentos/GIT_Software/JAMedia-7/Iconos/monitor.png"
       d="m 324.28572,356.64789 c 0,32.34811 -26.22332,58.57143 -58.57143,58.57143 -32.3481,0 -58.57143,-26.22332 -58.57143,-58.57143 0,-32.34811 26.22333,-58.57143 58.57143,-58.57143 32.34811,0 58.57143,26.22332 58.57143,58.57143 z"
       sodipodi:ry="58.57143"
       sodipodi:rx="58.57143"
       sodipodi:cy="356.64789"
       sodipodi:cx="265.71429"
       id="path2985-61-4"
       style="fill:#ff6600;fill-opacity:1;stroke:#ff6600;stroke-width:6.4000001;stroke-miterlimit:4;stroke-opacity:1;stroke-dasharray:none"
       sodipodi:type="arc"
       transform="translate(-178.55328,-298.02501)" /><path
       inkscape:export-ydpi="32.776936"
       inkscape:export-xdpi="32.776936"
       inkscape:export-filename="/home/flavio/Documentos/GIT_Software/JAMedia-7/Iconos/monitor.png"
       inkscape:connector-curvature="0"
       id="rect3936-4"
       d="m 52.081468,23.111995 c -0.52852,0 -0.96188,0.3915 -0.96188,0.869 l 0,55.4323 c 0,0.4775 0.43336,0.869 0.96188,0.869 l 24.28024,0 0,12.9825 c 0,0.4775 0.43337,0.869 0.96188,0.869 l 19.67487,0 c 0.52851,0 0.93273,-0.3915 0.93273,-0.869 l 0,-12.9825 24.309392,0 c 0.52852,0 0.96188,-0.3915 0.96188,-0.869 l 0,-55.4323 c 0,-0.4775 -0.43336,-0.869 -0.96188,-0.869 l -70.159112,0 z"
       style="fill:#ffffff;fill-opacity:1;stroke:#000000;stroke-width:5.64563179;stroke-miterlimit:4;stroke-dasharray:none" /></g></svg>