<?xml version="1.0" encoding="UTF-8" standalone="no"?>
<!-- Created with Inkscape (http://www.inkscape.org/) -->

<svg
   xmlns:dc="http://purl.org/dc/elements/1.1/"
   xmlns:cc="http://creativecommons.org/ns#"
   xmlns:rdf="http://www.w3.org/1999/02/22-rdf-syntax-ns#"
   xmlns:svg="http://www.w3.org/2000/svg"
   xmlns="http://www.w3.org/2000/svg"
   xmlns:sodipodi="http://sodipodi.sourceforge.net/DTD/sodipodi-0.dtd"
   xmlns:inkscape="http://www.inkscape.org/namespaces/inkscape"
   width="24"
   height="24"
   id="svg6662"
   version="1.1"
   inkscape:version="0.48.5 r10040"
   sodipodi:docname="sonido.svg">
  <defs
     id="defs6664">
    <linearGradient
       y2="11.02436"
       y1="3.0069399"
       x2="0"
       id="linearGradient1022-8-8-3-0-06-7"
       gradientUnits="userSpaceOnUse">
      <stop
         id="stop3001-0-9-4-9-91"
         offset="0" />
      <stop
         id="stop3003-5-6-6-5-8"
         stop-color="#363636"
         offset="1" />
    </linearGradient>
  </defs>
  <sodipodi:namedview
     id="base"
     pagecolor="#ffffff"
     bordercolor="#666666"
     borderopacity="1.0"
     inkscape:pageopacity="0.0"
     inkscape:pageshadow="2"
     inkscape:zoom="15.839192"
     inkscape:cx="16.898255"
     inkscape:cy="9.7229089"
     inkscape:document-units="px"
     inkscape:current-layer="capa1"
     showgrid="false"
     inkscape:showpageshadow="false"
     inkscape:window-width="1366"
     inkscape:window-height="706"
     inkscape:window-x="0"
     inkscape:window-y="27"
     inkscape:window-maximized="1" />
  <metadata
     id="metadata6667">
    <rdf:RDF>
      <cc:Work
         rdf:about="">
        <dc:format>image/svg+xml</dc:format>
        <dc:type
           rdf:resource="http://purl.org/dc/dcmitype/StillImage" />
        <dc:title />
      </cc:Work>
    </rdf:RDF>
  </metadata>
  <g
     inkscape:label="Capa 1"
     inkscape:groupmode="layer"
     id="capa1"
     transform="translate(0,-1028.3622)">
    <rect
       y="1028.3622"
       x="-1e-06"
       height="23.999996"
       width="23.999996"
       id="rect3077"
       style="opacity:0.6;color:#000000;fill:none;stroke:none;stroke-width:1;marker:none;visibility:visible;display:inline;overflow:visible;enable-background:accumulate" />
    <path
       transform="matrix(0.00828826,0,0.0015691,0.00549584,44.192802,969.41956)"
       sodipodi:type="arc"
       style="fill:#000000;fill-opacity:0.37254902;stroke:none"
       id="path4495-8"
       sodipodi:cx="-6502.3999"
       sodipodi:cy="13474.188"
       sodipodi:rx="1278.0579"
       sodipodi:ry="1278.0579"
       d="m -5224.342,13474.188 a 1278.0579,1278.0579 0 1 1 -2556.1158,0 1278.0579,1278.0579 0 1 1 2556.1158,0 z"
       inkscape:export-filename="/home/flavio/Documentos/JAMediaSuite/JAMediaObjects/Iconos/sonido.png"
       inkscape:export-xdpi="0.89451766"
       inkscape:export-ydpi="0.89451766" />
    <path
       transform="matrix(0.00811846,0,0.00153695,0.0078944,44.452039,933.99149)"
       sodipodi:type="arc"
       style="fill:#ffffff;fill-opacity:1;stroke:#000000;stroke-width:101.81900023999999405;stroke-miterlimit:4;stroke-opacity:1;stroke-dasharray:none"
       id="path4495"
       sodipodi:cx="-6502.3999"
       sodipodi:cy="13474.188"
       sodipodi:rx="1278.0579"
       sodipodi:ry="1278.0579"
       d="m -5224.342,13474.188 a 1278.0579,1278.0579 0 1 1 -2556.1158,0 1278.0579,1278.0579 0 1 1 2556.1158,0 z"
       inkscape:export-filename="/home/flavio/Documentos/JAMediaSuite/JAMediaObjects/Iconos/sonido.png"
       inkscape:export-xdpi="0.89451766"
       inkscape:export-ydpi="0.89451766" />
    <path
       transform="matrix(0.00236559,0,4.4784407e-4,0.0023003,21.719465,1009.3674)"
       sodipodi:type="arc"
       style="fill:none;fill-opacity:1;stroke:#000000;stroke-width:101.81900023999999405;stroke-miterlimit:4;stroke-opacity:1;stroke-dasharray:none"
       id="path4495-4"
       sodipodi:cx="-6502.3999"
       sodipodi:cy="13474.188"
       sodipodi:rx="1278.0579"
       sodipodi:ry="1278.0579"
       d="m -5224.342,13474.188 a 1278.0579,1278.0579 0 1 1 -2556.1158,0 1278.0579,1278.0579 0 1 1 2556.1158,0 z"
       inkscape:export-filename="/home/flavio/Documentos/JAMediaSuite/JAMediaObjects/Iconos/sonido.png"
       inkscape:export-xdpi="0.89451766"
       inkscape:export-ydpi="0.89451766" />
    <path
       style="fill:#00ff00;fill-opacity:1;stroke:#000000;stroke-width:0.4687264;stroke-miterlimit:4;stroke-opacity:1;stroke-dasharray:none"
       d="m 11.682422,1032.4784 c -0.314513,0 -0.567812,0.2532 -0.567812,0.5677 -6.25e-4,3.0924 0.004,6.1752 0.004,9.2669 -0.196849,-0.035 -0.404642,-0.054 -0.619317,-0.054 -1.2541588,0 -2.2708332,0.6469 -2.2708332,1.4451 0,0.798 1.0166744,1.445 2.2708332,1.445 1.254156,0 2.27083,-0.647 2.27083,-1.445 0,-0.01 -1.44e-4,-0.02 -3.12e-4,-0.029 2.9e-4,-0.01 3.12e-4,-0.015 3.12e-4,-0.023 l 0,-5.7029 5.83195,0 0,6.2784 c -0.204513,-0.038 -0.42094,-0.06 -0.645068,-0.06 -1.254156,0 -2.270833,0.6469 -2.270833,1.445 0,0.7981 1.016677,1.4451 2.270833,1.4451 1.254156,0 2.270833,-0.647 2.270833,-1.4451 0,-0.011 -2.15e-4,-0.023 -6.25e-4,-0.034 0.01718,-0.054 0.02648,-0.1122 0.02648,-0.1723 -0.01284,-4.1313 0.02533,-8.2391 0.02533,-12.3608 0,-0.3145 -0.253158,-0.5677 -0.567671,-0.5677 z"
       id="path4533"
       inkscape:connector-curvature="0"
       sodipodi:nodetypes="cccsssscscccsssscccsc"
       inkscape:export-filename="/home/flavio/Documentos/JAMediaSuite/JAMediaObjects/Iconos/sonido.png"
       inkscape:export-xdpi="0.89451766"
       inkscape:export-ydpi="0.89451766" />
  </g>
</svg>
