<?xml version="1.0" encoding="UTF-8" standalone="no"?>
<svg
   xmlns:dc="http://purl.org/dc/elements/1.1/"
   xmlns:cc="http://creativecommons.org/ns#"
   xmlns:rdf="http://www.w3.org/1999/02/22-rdf-syntax-ns#"
   xmlns:svg="http://www.w3.org/2000/svg"
   xmlns="http://www.w3.org/2000/svg"
   xmlns:xlink="http://www.w3.org/1999/xlink"
   xmlns:sodipodi="http://sodipodi.sourceforge.net/DTD/sodipodi-0.dtd"
   xmlns:inkscape="http://www.inkscape.org/namespaces/inkscape"
   width="31.999802"
   height="16.842001"
   id="svg2"
   version="1.1"
   inkscape:version="0.48.3.1 r9886"
   sodipodi:docname="Flag_of_the_United_States.svg">
  <metadata
     id="metadata73">
    <rdf:RDF>
      <cc:Work
         rdf:about="">
        <dc:format>image/svg+xml</dc:format>
        <dc:type
           rdf:resource="http://purl.org/dc/dcmitype/StillImage" />
      </cc:Work>
    </rdf:RDF>
  </metadata>
  <sodipodi:namedview
     pagecolor="#ffffff"
     bordercolor="#666666"
     borderopacity="1"
     objecttolerance="10"
     gridtolerance="10"
     guidetolerance="10"
     inkscape:pageopacity="0"
     inkscape:pageshadow="2"
     inkscape:window-width="1366"
     inkscape:window-height="713"
     id="namedview71"
     showgrid="false"
     fit-margin-top="0"
     fit-margin-left="0"
     fit-margin-right="0"
     fit-margin-bottom="0"
     inkscape:zoom="0.35708502"
     inkscape:cx="-461.47742"
     inkscape:cy="8.4210005"
     inkscape:window-x="0"
     inkscape:window-y="27"
     inkscape:window-maximized="1"
     inkscape:current-layer="svg2" />
  <defs
     id="defs4">
    <polygon
       id="pt"
       points="0.16245985,0 -0.16245985,0 0,-0.5 "
       transform="scale(0.0616,0.0616)"
       style="fill:#ffffff" />
    <g
       id="star">
      <use
         xlink:href="#pt"
         transform="matrix(-0.80901699,-0.58778525,0.58778525,-0.80901699,0,0)"
         id="use8"
         x="0"
         y="0"
         width="1235"
         height="650" />
      <use
         xlink:href="#pt"
         transform="matrix(0.30901699,-0.95105652,0.95105652,0.30901699,0,0)"
         id="use10"
         x="0"
         y="0"
         width="1235"
         height="650" />
      <use
         xlink:href="#pt"
         id="use12"
         x="0"
         y="0"
         width="1235"
         height="650" />
      <use
         xlink:href="#pt"
         transform="matrix(0.30901699,0.95105652,-0.95105652,0.30901699,0,0)"
         id="use14"
         x="0"
         y="0"
         width="1235"
         height="650" />
      <use
         xlink:href="#pt"
         transform="matrix(-0.80901699,0.58778525,-0.58778525,-0.80901699,0,0)"
         id="use16"
         x="0"
         y="0"
         width="1235"
         height="650" />
    </g>
    <g
       id="s5">
      <use
         xlink:href="#star"
         x="-0.252"
         id="use19"
         y="0"
         width="1235"
         height="650" />
      <use
         xlink:href="#star"
         x="-0.126"
         id="use21"
         y="0"
         width="1235"
         height="650" />
      <use
         xlink:href="#star"
         id="use23"
         x="0"
         y="0"
         width="1235"
         height="650" />
      <use
         xlink:href="#star"
         x="0.126"
         id="use25"
         y="0"
         width="1235"
         height="650" />
      <use
         xlink:href="#star"
         x="0.252"
         id="use27"
         y="0"
         width="1235"
         height="650" />
    </g>
    <g
       id="s6">
      <use
         xlink:href="#s5"
         x="-0.063000001"
         id="use30"
         y="0"
         width="1235"
         height="650" />
      <use
         xlink:href="#star"
         x="0.315"
         id="use32"
         y="0"
         width="1235"
         height="650" />
    </g>
    <g
       id="x4">
      <use
         xlink:href="#s6"
         id="use35"
         x="0"
         y="0"
         width="1235"
         height="650" />
      <use
         xlink:href="#s5"
         y="0.054000001"
         id="use37"
         x="0"
         width="1235"
         height="650" />
      <use
         xlink:href="#s6"
         y="0.108"
         id="use39"
         x="0"
         width="1235"
         height="650" />
      <use
         xlink:href="#s5"
         y="0.162"
         id="use41"
         x="0"
         width="1235"
         height="650" />
    </g>
    <g
       id="u">
      <use
         xlink:href="#x4"
         y="-0.21600001"
         id="use44"
         x="0"
         width="1235"
         height="650" />
      <use
         xlink:href="#x4"
         id="use46"
         x="0"
         y="0"
         width="1235"
         height="650" />
      <use
         xlink:href="#s6"
         y="0.21600001"
         id="use48"
         x="0"
         width="1235"
         height="650" />
    </g>
    <rect
       id="stripe"
       width="1235"
       height="50"
       x="0"
       y="0"
       style="fill:#b22234" />
  </defs>
  <g
     id="g3050"
     transform="scale(0.02591077,0.02591077)">
    <rect
       id="rect51"
       height="650"
       width="1235"
       x="0"
       y="0"
       style="fill:#ffffff" />
    <use
       id="use53"
       xlink:href="#stripe"
       x="0"
       y="0"
       width="1235"
       height="650" />
    <use
       id="use55"
       y="100"
       xlink:href="#stripe"
       x="0"
       width="1235"
       height="650" />
    <use
       id="use57"
       y="200"
       xlink:href="#stripe"
       x="0"
       width="1235"
       height="650" />
    <use
       id="use59"
       y="300"
       xlink:href="#stripe"
       x="0"
       width="1235"
       height="650" />
    <use
       id="use61"
       y="400"
       xlink:href="#stripe"
       x="0"
       width="1235"
       height="650" />
    <use
       id="use63"
       y="500"
       xlink:href="#stripe"
       x="0"
       width="1235"
       height="650" />
    <use
       id="use65"
       y="600"
       xlink:href="#stripe"
       x="0"
       width="1235"
       height="650" />
    <rect
       id="rect67"
       height="350"
       width="494"
       x="0"
       y="0"
       style="fill:#3c3b6e" />
    <use
       id="use69"
       transform="matrix(650,0,0,650,247,175)"
       xlink:href="#u"
       x="0"
       y="0"
       width="1235"
       height="650" />
  </g>
</svg>
