<?xml version="1.0" encoding="UTF-8" standalone="no"?>
<svg
   xmlns:dc="http://purl.org/dc/elements/1.1/"
   xmlns:cc="http://creativecommons.org/ns#"
   xmlns:rdf="http://www.w3.org/1999/02/22-rdf-syntax-ns#"
   xmlns:svg="http://www.w3.org/2000/svg"
   xmlns="http://www.w3.org/2000/svg"
   xmlns:xlink="http://www.w3.org/1999/xlink"
   xmlns:sodipodi="http://sodipodi.sourceforge.net/DTD/sodipodi-0.dtd"
   xmlns:inkscape="http://www.inkscape.org/namespaces/inkscape"
   id="svg2870"
   height="50"
   viewBox="-165 -165 32.738095 32.738095"
   width="50"
   version="1.1"
   inkscape:version="0.48.3.1 r9886"
   sodipodi:docname="Sol_de_Mayo-Bandera_de_Uruguay.svg">
  <sodipodi:namedview
     pagecolor="#ffffff"
     bordercolor="#666666"
     borderopacity="1"
     objecttolerance="10"
     gridtolerance="10"
     guidetolerance="10"
     inkscape:pageopacity="0"
     inkscape:pageshadow="2"
     inkscape:window-width="1366"
     inkscape:window-height="713"
     id="namedview3886"
     showgrid="false"
     inkscape:zoom="5.2976889"
     inkscape:cx="56.701101"
     inkscape:cy="14.678035"
     inkscape:window-x="0"
     inkscape:window-y="27"
     inkscape:window-maximized="1"
     inkscape:current-layer="g4745" />
  <metadata
     id="metadata2920">
    <rdf:RDF>
      <cc:Work
         rdf:about="">
        <dc:format>image/svg+xml</dc:format>
        <dc:type
           rdf:resource="http://purl.org/dc/dcmitype/StillImage" />
        <dc:title></dc:title>
      </cc:Work>
    </rdf:RDF>
  </metadata>
  <defs
     id="defs2918">
    <clipPath
       clipPathUnits="userSpaceOnUse"
       id="clipPath4741">
      <rect
         style="fill:#fffff0;fill-opacity:1"
         id="rect4743"
         width="87.274704"
         height="39.321575"
         x="-43.328899"
         y="-3.6548452"
         ry="0.32904813"
         transform="scale(1,-1)" />
    </clipPath>
  </defs>
  <g
     id="g4745">
    <g
       clip-path="url(#clipPath4741)"
       style="fill:#fcd116;stroke:#000000;stroke-width:0.60000002;stroke-miterlimit:20"
       stroke-miterlimit="20"
       transform="matrix(0.46215254,0,0,0.4621525,-148.53768,-146.97271)"
       id="sun">
      <g
         id="4wavyrays">
        <g
           id="2wavyrays">
          <g
             transform="matrix(0.92387953,0.38268343,-0.38268343,0.92387953,0,0)"
             id="wavyray">
            <path
               inkscape:connector-curvature="0"
               d="M 0,0 6,12 C -2,25 7,27 0,33 3,25 -4,28 -3,13"
               id="path3431" />
            <path
               style="fill:none"
               inkscape:connector-curvature="0"
               d="M 0,11 C -2,24 4.5,28 0,33"
               id="path3433" />
          </g>
          <use
             x="0"
             y="0"
             width="1"
             height="1"
             transform="scale(-1,-1)"
             xlink:href="#wavyray"
             id="use3435" />
        </g>
        <use
           x="0"
           y="0"
           width="1"
           height="1"
           transform="matrix(0,1,-1,0,0,0)"
           xlink:href="#2wavyrays"
           id="use3437" />
      </g>
      <use
         x="0"
         y="0"
         width="1"
         height="1"
         transform="matrix(0.70710678,0.70710678,-0.70710678,0.70710678,0,0)"
         xlink:href="#4wavyrays"
         id="use3439" />
      <g
         id="4straightrays">
        <g
           id="2straightrays">
          <path
             inkscape:connector-curvature="0"
             d="M 0,0 H 6 L 0,33 -6,0 h 6 v 33"
             id="straightray" />
          <use
             x="0"
             y="0"
             width="1"
             height="1"
             transform="scale(-1,-1)"
             xlink:href="#straightray"
             id="use3444" />
        </g>
        <use
           x="0"
           y="0"
           width="1"
           height="1"
           transform="matrix(0,1,-1,0,0,0)"
           xlink:href="#2straightrays"
           id="use3446" />
      </g>
      <use
         x="0"
         y="0"
         width="1"
         height="1"
         transform="matrix(0.70710678,0.70710678,-0.70710678,0.70710678,0,0)"
         xlink:href="#4straightrays"
         id="use3448" />
      <circle
         sodipodi:ry="11"
         sodipodi:rx="11"
         sodipodi:cy="0"
         sodipodi:cx="0"
         r="11"
         cx="0"
         cy="0"
         d="M 11,0 C 11,6.0751322 6.0751322,11 0,11 -6.0751322,11 -11,6.0751322 -11,0 c 0,-6.0751322 4.9248678,-11 11,-11 6.0751322,0 11,4.9248678 11,11 z"
         id="circle3450" />
      <g
         style="fill:#000000"
         transform="scale(0.1,0.1)"
         id="face">
        <g
           id="right">
          <path
             inkscape:connector-curvature="0"
             d="m 81,-44 c -7,8 -11,-6 -36,-6 -25,0 -29,15 -33,12 -4,-3 21,-21 29,-22 8,-1 31,7 40,16"
             id="path3454" />
          <path
             inkscape:connector-curvature="0"
             d="m 52,-35 c 7,6 1,19 -6,19 -7,0 -20,-12 -14,-20"
             id="path3456" />
          <path
             inkscape:connector-curvature="0"
             d="m 19,-26 c 1,-12 11,-14 27,-14 16,0 23,12 29,15 -7,0 -13,-10 -29,-10 -16,0 -16,0 -27,10"
             id="path3458" />
          <path
             inkscape:connector-curvature="0"
             d="m 22,-23 c 4,-6 9,6 20,6 11,0 17,-3 24,-8 7,-5 -10,12 -21,12 -11,0 -26,-6 -23,-10"
             id="path3460" />
          <path
             inkscape:connector-curvature="0"
             d="m 56,-17 c 13,-7 5,-17 0,-19 2,2 10,12 0,19"
             id="path3462" />
          <path
             inkscape:connector-curvature="0"
             d="m 0,43 c 6,0 8,-2 16,-2 8,0 27,11 38,7 -23,9 -14,3 -54,3 h -5"
             id="path3464" />
          <path
             inkscape:connector-curvature="0"
             d="m 58,57 c -4,-7 -3,-5 -11,-16 8,6 10,9 11,16"
             id="path3466" />
          <path
             inkscape:connector-curvature="0"
             d="M 0,67 C 25,67 21,62 54,48 30,51 25,59 0,59 h -5"
             id="path3468" />
          <path
             inkscape:connector-curvature="0"
             d="m 0,30 c 7,0 9,-5 17,-5 8,0 19,3 24,7 1,1 -3,-8 -11,-9 C 22,22 25,9 16,7 c 0,4 3,3 4,9 0,5 -9,5 -11,0 2,8 -4,8 -9,8 h -2"
             id="path3470" />
        </g>
        <use
           x="0"
           y="0"
           width="1"
           height="1"
           transform="scale(-1,1)"
           xlink:href="#right"
           id="use3472" />
        <path
           inkscape:connector-curvature="0"
           d="m 0,76 c -5,0 -18,3 0,3 18,0 5,-3 0,-3"
           id="path3474" />
      </g>
    </g>
    <text
       sodipodi:linespacing="125%"
       id="text4729"
       y="-139.72177"
       x="-164.88701"
       style="font-size:6.54761886999999998px;font-style:normal;font-weight:normal;line-height:125%;letter-spacing:0px;word-spacing:0px;fill:#000000;fill-opacity:1;stroke:none;font-family:Sans"
       xml:space="preserve"><tspan
         y="-139.72177"
         x="-164.88701"
         id="tspan4731"
         sodipodi:role="line">Ubuntu</tspan></text>
    <text
       sodipodi:linespacing="125%"
       id="text4733"
       y="-134.22185"
       x="-150.9827"
       style="font-size:6.54761886999999998px;font-style:normal;font-weight:normal;line-height:125%;letter-spacing:0px;word-spacing:0px;fill:#000000;fill-opacity:1;stroke:none;font-family:Sans"
       xml:space="preserve"><tspan
         y="-134.22185"
         x="-150.9827"
         id="tspan4735"
         sodipodi:role="line">Radio</tspan></text>
  </g>
</svg>
